# Blender 3.5.0
# www.blender.org
mtllib Face01.mtl
o Head
v 0.800000 1.683730 -0.400000
v 0.800000 0.005083 -0.400000
v 0.800000 1.683730 0.400000
v 0.800000 0.005083 0.400000
v 0.000000 1.683730 -0.400000
v 0.000000 0.005083 -0.400000
v 0.000000 1.683730 0.400000
v 0.000000 0.005083 0.400000
v 0.800000 0.401719 0.400000
v 0.000000 1.339778 0.400000
v 0.626362 1.494141 0.400000
v 0.620425 1.025112 0.400000
v 0.800000 0.057368 -0.400000
v 0.800000 0.971678 0.092025
v 0.800000 0.799503 -0.163270
v 0.800000 0.532335 -0.032654
v 0.668818 1.814304 0.333109
v 0.000000 1.814304 0.333109
v 0.668818 1.814304 -0.333109
v 0.000000 1.814304 -0.333109
v 0.143866 0.955215 0.431832
v 0.520684 1.064382 0.431832
v 0.115004 1.012033 0.431832
v 0.436867 1.155547 0.431832
v 0.000000 0.359820 0.453637
v 0.299774 0.336080 0.453637
v 0.000000 0.486820 0.453637
v 0.299774 0.463079 0.453637
v 0.214588 0.342595 0.453637
v 0.214588 0.469595 0.453637
v 0.299774 0.128349 0.453637
v 0.214588 0.134865 0.453637
v -0.800000 1.683730 -0.400000
v -0.800000 0.005083 -0.400000
v -0.800000 1.683730 0.400000
v -0.800000 0.005083 0.400000
v -0.800000 0.401719 0.400000
v -0.626362 1.494141 0.400000
v -0.620425 1.025112 0.400000
v -0.800000 0.057368 -0.400000
v -0.800000 0.971678 0.092025
v -0.800000 0.799503 -0.163270
v -0.800000 0.532335 -0.032654
v -0.668818 1.814304 0.333109
v -0.668818 1.814304 -0.333109
v -0.143866 0.955215 0.431832
v -0.520684 1.064382 0.431832
v -0.115004 1.012033 0.431832
v -0.436867 1.155547 0.431832
v -0.299774 0.336080 0.453637
v -0.299774 0.463079 0.453637
v -0.214588 0.342595 0.453637
v -0.214588 0.469595 0.453637
v -0.299774 0.128349 0.453637
v -0.214588 0.134865 0.453637
vn -1.0000 -0.0000 -0.0000
vn -0.0000 -0.0000 1.0000
vn -0.0000 -1.0000 -0.0000
vn 1.0000 -0.0000 -0.0000
vn -0.0000 -0.0000 -1.0000
vn -0.0000 1.0000 -0.0000
vn 0.7055 0.7088 -0.0000
vn -0.0000 0.4559 -0.8900
vn -0.0000 0.4559 0.8900
vn -0.7055 0.7088 -0.0000
vt 0.355469 0.371094
vt 0.359375 0.593750
vt 0.355469 0.371094
vt 0.355469 0.371094
vt 0.359375 0.593750
vt 0.359375 0.593750
vt 0.355469 0.371094
vt 0.359375 0.593750
vt 0.355469 0.371094
vt 0.359375 0.593750
vt 0.355469 0.371094
vt 0.359375 0.593750
vt 0.359375 0.593750
vt 0.355469 0.371094
vt 0.359375 0.593750
vt 0.355469 0.371094
vt 0.359375 0.593750
vt 0.355469 0.371094
vt 0.359375 0.593750
vt 0.355469 0.371094
vt 0.359375 0.593750
vt 0.355469 0.371094
vt 0.359375 0.593750
vt 0.355469 0.371094
vt 0.359375 0.593750
vt 0.355469 0.371094
vt 0.359375 0.593750
vt 0.355469 0.371094
vt 0.355469 0.371094
vt 0.359375 0.593750
vt 0.355469 0.371094
vt 0.355469 0.371094
vt 0.359375 0.593750
vt 0.355469 0.371094
vt 0.391486 0.400787
vt 0.391486 0.400787
vt 0.391486 0.400787
vt 0.391486 0.400787
vt 0.323278 0.431791
vt 0.323278 0.431791
vt 0.323278 0.431791
vt 0.323278 0.431791
vt 0.323278 0.431791
vt 0.323278 0.431791
vt 0.323278 0.431791
vt 0.323278 0.431791
vt 0.355469 0.371094
vt 0.359375 0.593750
vt 0.355469 0.371094
vt 0.355469 0.371094
vt 0.359375 0.593750
vt 0.359375 0.593750
vt 0.355469 0.371094
vt 0.359375 0.593750
vt 0.355469 0.371094
vt 0.359375 0.593750
vt 0.355469 0.371094
vt 0.359375 0.593750
vt 0.355469 0.371094
vt 0.359375 0.593750
vt 0.355469 0.371094
vt 0.359375 0.593750
vt 0.355469 0.371094
vt 0.359375 0.593750
vt 0.355469 0.371094
vt 0.355469 0.371094
vt 0.355469 0.371094
vt 0.391486 0.400787
vt 0.391486 0.400787
vt 0.391486 0.400787
vt 0.391486 0.400787
vt 0.323278 0.431791
vt 0.323278 0.431791
vt 0.323278 0.431791
vt 0.323278 0.431791
vt 0.323278 0.431791
vt 0.323278 0.431791
s 0
usemtl BaseMat
f 7/10/1 20/33/1 5/6/1
f 12/19/2 10/15/2 8/12/2
f 10/15/1 5/6/1 6/8/1
f 2/2/3 8/12/3 6/8/3
f 9/13/4 4/5/4 16/27/4
f 5/7/5 1/1/5 13/22/5
f 3/4/2 7/11/2 11/18/2
f 15/26/4 13/22/4 1/1/4
f 20/34/6 17/29/6 19/32/6
f 1/1/7 17/29/7 3/4/7
f 5/7/8 19/32/8 1/1/8
f 7/11/9 17/29/9 18/31/9
f 21/35/2 24/38/2 23/37/2
f 29/43/2 28/42/2 30/44/2
f 25/39/2 30/44/2 27/41/2
f 26/40/2 32/46/2 31/45/2
f 7/10/1 18/30/1 20/33/1
f 8/12/2 4/5/2 9/13/2
f 12/19/2 11/17/2 10/15/2
f 8/12/2 9/13/2 12/19/2
f 6/8/1 8/12/1 10/15/1
f 10/15/1 7/10/1 5/6/1
f 2/2/3 4/5/3 8/12/3
f 4/5/4 2/2/4 13/21/4
f 16/27/4 15/25/4 14/23/4
f 4/5/4 13/21/4 16/27/4
f 14/23/4 9/13/4 16/27/4
f 2/3/5 6/9/5 13/22/5
f 6/9/5 5/7/5 13/22/5
f 7/11/2 10/16/2 11/18/2
f 11/18/2 12/20/2 3/4/2
f 12/20/2 9/14/2 3/4/2
f 3/4/4 9/14/4 14/24/4
f 15/26/4 16/28/4 13/22/4
f 3/4/4 14/24/4 1/1/4
f 14/24/4 15/26/4 1/1/4
f 20/34/6 18/31/6 17/29/6
f 1/1/7 19/32/7 17/29/7
f 5/7/8 20/34/8 19/32/8
f 7/11/9 3/4/9 17/29/9
f 21/35/2 22/36/2 24/38/2
f 29/43/2 26/40/2 28/42/2
f 25/39/2 29/43/2 30/44/2
f 26/40/2 29/43/2 32/46/2
f 39/56/2 8/12/2 10/15/2
f 34/48/3 6/8/3 8/12/3
f 37/52/1 43/64/1 36/51/1
f 5/7/5 40/59/5 33/47/5
f 35/50/2 38/55/2 7/11/2
f 42/63/1 33/47/1 40/59/1
f 20/34/6 45/67/6 44/66/6
f 33/47/10 35/50/10 44/66/10
f 5/7/8 33/47/8 45/67/8
f 7/11/9 18/31/9 44/66/9
f 46/68/2 48/70/2 49/71/2
f 52/74/2 53/75/2 51/73/2
f 25/39/2 27/41/2 53/75/2
f 50/72/2 54/76/2 55/77/2
f 8/12/2 37/52/2 36/51/2
f 39/56/2 10/15/2 38/54/2
f 8/12/2 39/56/2 37/52/2
f 34/48/3 8/12/3 36/51/3
f 36/51/1 40/58/1 34/48/1
f 43/64/1 41/60/1 42/62/1
f 36/51/1 43/64/1 40/58/1
f 41/60/1 43/64/1 37/52/1
f 34/49/5 40/59/5 6/9/5
f 6/9/5 40/59/5 5/7/5
f 7/11/2 38/55/2 10/16/2
f 38/55/2 35/50/2 39/57/2
f 39/57/2 35/50/2 37/53/2
f 35/50/1 41/61/1 37/53/1
f 42/63/1 40/59/1 43/65/1
f 35/50/1 33/47/1 41/61/1
f 41/61/1 33/47/1 42/63/1
f 20/34/6 44/66/6 18/31/6
f 33/47/10 44/66/10 45/67/10
f 5/7/8 45/67/8 20/34/8
f 7/11/9 44/66/9 35/50/9
f 46/68/2 49/71/2 47/69/2
f 52/74/2 51/73/2 50/72/2
f 25/39/2 53/75/2 52/74/2
f 50/72/2 55/77/2 52/74/2
o Eye
v 0.088651 0.567022 0.423357
v 0.554112 0.567022 0.423357
v 0.088651 1.032483 0.423357
v 0.554112 1.032483 0.423357
v -0.088651 0.567022 0.423357
v -0.554112 0.567022 0.423357
v -0.088651 1.032483 0.423357
v -0.554112 1.032483 0.423357
vn -0.0000 -0.0000 1.0000
vt 0.000000 0.000000
vt 1.000000 0.000000
vt 0.000000 1.000000
vt 1.000000 1.000000
vt 0.000000 0.000000
vt 1.000000 0.000000
vt 0.000000 1.000000
vt 1.000000 1.000000
s 0
usemtl EyeMat
f 56/78/11 57/79/11 59/81/11 58/80/11
f 60/82/11 62/84/11 63/85/11 61/83/11
