# Blender 3.4.1
# www.blender.org
mtllib Bridge01.mtl
o Bridge01
v -0.300000 -0.000000 -0.852400
v -0.300000 0.114499 -0.624551
v -0.300000 0.217791 -0.485410
v -0.300000 0.299763 -0.352671
v -0.300000 0.352393 -0.185410
v -0.300000 0.370528 0.000000
v -0.300000 0.352393 0.185410
v -0.300000 0.299763 0.352671
v -0.300000 0.217791 0.485410
v -0.300000 0.114499 0.624551
v -0.300000 -0.000000 0.852400
v 0.300000 -0.000000 -0.852400
v 0.300000 0.114499 -0.624551
v 0.300000 0.217791 -0.485410
v 0.300000 0.299763 -0.352671
v 0.300000 0.352393 -0.185410
v 0.300000 0.370528 0.000000
v 0.300000 0.352393 0.185410
v 0.300000 0.299763 0.352671
v 0.300000 0.217791 0.485410
v 0.300000 0.114499 0.624551
v 0.300000 -0.000000 0.852400
v 0.360000 -0.000000 -0.852400
v 0.360000 0.114499 -0.624551
v 0.360000 0.217791 -0.485410
v 0.360000 0.299763 -0.352671
v 0.360000 0.352393 -0.185410
v 0.360000 0.370528 0.000000
v 0.360000 0.352393 0.185410
v 0.360000 0.299763 0.352671
v 0.360000 0.217791 0.485410
v 0.360000 0.114499 0.624551
v 0.360000 -0.000000 0.852400
v -0.360000 -0.000000 -0.852400
v -0.360000 0.114499 -0.624551
v -0.360000 0.217791 -0.485410
v -0.360000 0.299763 -0.352671
v -0.360000 0.352393 -0.185410
v -0.360000 0.370528 0.000000
v -0.360000 0.352393 0.185410
v -0.360000 0.299763 0.352671
v -0.360000 0.217791 0.485410
v -0.360000 0.114499 0.624551
v -0.360000 -0.000000 0.852400
v -0.300000 0.234499 -0.624551
v -0.300000 0.120000 -0.852400
v -0.300000 0.337791 -0.485410
v -0.300000 0.419763 -0.352671
v -0.300000 0.472393 -0.185410
v -0.300000 0.490528 0.000000
v -0.300000 0.472393 0.185410
v -0.300000 0.419763 0.352671
v -0.300000 0.337791 0.485410
v -0.300000 0.234499 0.624551
v -0.300000 0.120000 0.852400
v 0.300000 0.234499 -0.624551
v 0.300000 0.120000 -0.852400
v 0.300000 0.337791 -0.485410
v 0.300000 0.419763 -0.352671
v 0.300000 0.472393 -0.185410
v 0.300000 0.490528 0.000000
v 0.300000 0.472393 0.185410
v 0.300000 0.419763 0.352671
v 0.300000 0.337791 0.485410
v 0.300000 0.234499 0.624551
v 0.300000 0.120000 0.852400
v 0.360000 0.234499 -0.624551
v 0.360000 0.120000 -0.852400
v 0.360000 0.337791 -0.485410
v 0.360000 0.419763 -0.352671
v 0.360000 0.472393 -0.185410
v 0.360000 0.490528 0.000000
v 0.360000 0.472393 0.185410
v 0.360000 0.419763 0.352671
v 0.360000 0.337791 0.485410
v 0.360000 0.234499 0.624551
v 0.360000 0.120000 0.852400
v -0.360000 0.234499 -0.624551
v -0.360000 0.120000 -0.852400
v -0.360000 0.337791 -0.485410
v -0.360000 0.419763 -0.352671
v -0.360000 0.472393 -0.185410
v -0.360000 0.490528 0.000000
v -0.360000 0.472393 0.185410
v -0.360000 0.419763 0.352671
v -0.360000 0.337791 0.485410
v -0.360000 0.234499 0.624551
v -0.360000 0.120000 0.852400
vn -0.0000 0.8935 -0.4490
vn -0.0000 0.8508 0.5254
vn -0.0000 0.9953 -0.0973
vn -0.0000 0.8029 -0.5961
vn -0.0000 0.8029 0.5961
vn -0.0000 0.9953 0.0973
vn -0.0000 0.8508 -0.5254
vn -0.0000 0.8935 0.4490
vn -0.0000 0.9539 0.3001
vn -0.0000 0.9539 -0.3001
vn 1.0000 -0.0000 -0.0000
vn -1.0000 -0.0000 -0.0000
vn -0.0000 -0.0000 1.0000
vn -0.0000 -0.0000 -1.0000
vt 0.410156 0.824219
vt 0.410156 0.824219
vt 0.410156 0.824219
vt 0.410156 0.824219
vt 0.410156 0.824219
vt 0.410156 0.824219
vt 0.410156 0.824219
vt 0.410156 0.824219
vt 0.410156 0.824219
vt 0.410156 0.824219
vt 0.410156 0.824219
vt 0.410156 0.824219
vt 0.410156 0.824219
vt 0.410156 0.824219
vt 0.410156 0.824219
vt 0.410156 0.824219
vt 0.410156 0.824219
vt 0.410156 0.824219
vt 0.410156 0.824219
vt 0.410156 0.824219
vt 0.410156 0.824219
vt 0.410156 0.824219
vt 0.410156 0.824219
vt 0.410156 0.824219
vt 0.410156 0.824219
vt 0.410156 0.824219
vt 0.410156 0.824219
vt 0.410156 0.824219
vt 0.410156 0.824219
vt 0.410156 0.824219
vt 0.410156 0.824219
vt 0.410156 0.824219
vt 0.410156 0.824219
vt 0.410156 0.824219
vt 0.410156 0.824219
vt 0.410156 0.824219
vt 0.410156 0.824219
vt 0.410156 0.824219
vt 0.410156 0.824219
vt 0.410156 0.824219
vt 0.410156 0.824219
vt 0.410156 0.824219
vt 0.410156 0.824219
vt 0.410156 0.824219
vt 0.410156 0.824219
vt 0.410156 0.824219
vt 0.410156 0.824219
vt 0.410156 0.824219
vt 0.410156 0.824219
vt 0.410156 0.824219
vt 0.410156 0.824219
vt 0.410156 0.824219
vt 0.410156 0.824219
vt 0.410156 0.824219
vt 0.410156 0.824219
vt 0.410156 0.824219
vt 0.410156 0.824219
vt 0.410156 0.824219
vt 0.410156 0.824219
vt 0.410156 0.824219
vt 0.410156 0.824219
vt 0.410156 0.824219
vt 0.410156 0.824219
vt 0.410156 0.824219
vt 0.410156 0.824219
vt 0.410156 0.824219
vt 0.410156 0.824219
vt 0.410156 0.824219
vt 0.410156 0.824219
vt 0.410156 0.824219
vt 0.410156 0.824219
vt 0.410156 0.824219
vt 0.410156 0.824219
vt 0.410156 0.824219
vt 0.410156 0.824219
vt 0.410156 0.824219
vt 0.410156 0.824219
vt 0.410156 0.824219
vt 0.410156 0.824219
vt 0.410156 0.824219
vt 0.410156 0.824219
vt 0.410156 0.824219
vt 0.410156 0.824219
vt 0.410156 0.824219
vt 0.410156 0.824219
vt 0.410156 0.824219
vt 0.410156 0.824219
vt 0.410156 0.824219
s 0
usemtl Material
f 2/2/1 13/13/1 12/12/1 1/1/1
f 9/9/2 20/20/2 19/19/2 8/8/2
f 6/6/3 17/17/3 16/16/3 5/5/3
f 3/3/4 14/14/4 13/13/4 2/2/4
f 10/10/5 21/21/5 20/20/5 9/9/5
f 7/7/6 18/18/6 17/17/6 6/6/6
f 4/4/7 15/15/7 14/14/7 3/3/7
f 11/11/8 22/22/8 21/21/8 10/10/8
f 8/8/9 19/19/9 18/18/9 7/7/9
f 5/5/10 16/16/10 15/15/10 4/4/10
f 27/27/11 71/71/11 72/72/11 28/28/11
f 9/9/11 53/53/11 54/54/11 10/10/11
f 44/44/12 88/88/12 87/87/12 43/43/12
f 26/26/11 70/70/11 71/71/11 27/27/11
f 8/8/11 52/52/11 53/53/11 9/9/11
f 43/43/12 87/87/12 86/86/12 42/42/12
f 25/25/11 69/69/11 70/70/11 26/26/11
f 7/7/11 51/51/11 52/52/11 8/8/11
f 22/22/12 66/66/12 65/65/12 21/21/12
f 42/42/12 86/86/12 85/85/12 41/41/12
f 24/24/11 67/67/11 69/69/11 25/25/11
f 6/6/11 50/50/11 51/51/11 7/7/11
f 11/11/13 55/55/13 88/88/13 44/44/13
f 12/12/14 57/57/14 68/68/14 23/23/14
f 21/21/12 65/65/12 64/64/12 20/20/12
f 41/41/12 85/85/12 84/84/12 40/40/12
f 23/23/11 68/68/11 67/67/11 24/24/11
f 5/5/11 49/49/11 50/50/11 6/6/11
f 20/20/12 64/64/12 63/63/12 19/19/12
f 40/40/12 84/84/12 83/83/12 39/39/12
f 63/63/9 74/74/9 73/73/9 62/62/9
f 60/60/10 71/71/10 70/70/10 59/59/10
f 56/56/1 67/67/1 68/68/1 57/57/1
f 64/64/2 75/75/2 74/74/2 63/63/2
f 61/61/3 72/72/3 71/71/3 60/60/3
f 58/58/4 69/69/4 67/67/4 56/56/4
f 65/65/5 76/76/5 75/75/5 64/64/5
f 62/62/6 73/73/6 72/72/6 61/61/6
f 59/59/7 70/70/7 69/69/7 58/58/7
f 66/66/8 77/77/8 76/76/8 65/65/8
f 46/46/1 79/79/1 78/78/1 45/45/1
f 52/52/2 85/85/2 86/86/2 53/53/2
f 49/49/3 82/82/3 83/83/3 50/50/3
f 45/45/4 78/78/4 80/80/4 47/47/4
f 53/53/5 86/86/5 87/87/5 54/54/5
f 50/50/6 83/83/6 84/84/6 51/51/6
f 47/47/7 80/80/7 81/81/7 48/48/7
f 54/54/8 87/87/8 88/88/8 55/55/8
f 51/51/9 84/84/9 85/85/9 52/52/9
f 48/48/10 81/81/10 82/82/10 49/49/10
f 10/10/11 54/54/11 55/55/11 11/11/11
f 28/28/11 72/72/11 73/73/11 29/29/11
f 34/34/14 79/79/14 46/46/14 1/1/14
f 13/13/12 56/56/12 57/57/12 12/12/12
f 29/29/11 73/73/11 74/74/11 30/30/11
f 33/33/13 77/77/13 66/66/13 22/22/13
f 14/14/12 58/58/12 56/56/12 13/13/12
f 30/30/11 74/74/11 75/75/11 31/31/11
f 35/35/12 78/78/12 79/79/12 34/34/12
f 15/15/12 59/59/12 58/58/12 14/14/12
f 31/31/11 75/75/11 76/76/11 32/32/11
f 36/36/12 80/80/12 78/78/12 35/35/12
f 16/16/12 60/60/12 59/59/12 15/15/12
f 32/32/11 76/76/11 77/77/11 33/33/11
f 1/1/11 46/46/11 45/45/11 2/2/11
f 37/37/12 81/81/12 80/80/12 36/36/12
f 17/17/12 61/61/12 60/60/12 16/16/12
f 2/2/11 45/45/11 47/47/11 3/3/11
f 38/38/12 82/82/12 81/81/12 37/37/12
f 18/18/12 62/62/12 61/61/12 17/17/12
f 3/3/11 47/47/11 48/48/11 4/4/11
f 39/39/12 83/83/12 82/82/12 38/38/12
f 19/19/12 63/63/12 62/62/12 18/18/12
f 4/4/11 48/48/11 49/49/11 5/5/11
