# Blender 3.4.1
# www.blender.org
mtllib Camp01.mtl
o Camp01
v -0.021798 0.011611 -0.767198
v -0.588895 0.011611 -0.532298
v -0.823795 0.011611 0.034800
v -0.588895 0.011611 0.601897
v 0.545300 0.011611 0.601897
v 0.780200 0.011611 0.034800
v 0.545300 0.011611 -0.532298
v -0.021798 0.894041 -0.643129
v -0.501166 0.894041 -0.444568
v -0.699726 0.894041 0.034800
v -0.501166 0.894041 0.514167
v -0.021798 0.894041 0.712728
v 0.457570 0.894041 0.514167
v 0.656131 0.894041 0.034800
v 0.457570 0.894041 -0.444568
v -0.021798 1.370487 0.034800
v -0.021798 0.639221 0.748556
v 0.216050 0.011611 0.738277
v 0.216050 0.639221 0.650036
v -0.259646 0.011611 0.738277
v -0.259646 0.639221 0.650036
v -1.195954 0.012625 0.661397
v -1.649346 0.012625 0.849198
v -1.837147 0.012625 1.302590
v -1.649346 0.012625 1.755982
v -0.742562 0.012625 1.755982
v -0.554761 0.012625 1.302590
v -0.742562 0.012625 0.849198
v -1.195954 0.718123 0.760589
v -1.579206 0.718123 0.919337
v -1.737955 0.718123 1.302590
v -1.579206 0.718123 1.685842
v -1.195954 0.718123 1.844591
v -0.812702 0.718123 1.685842
v -0.653953 0.718123 1.302590
v -0.812702 0.718123 0.919337
v -1.195954 1.099040 1.302590
v -1.195954 0.514396 1.873234
v -1.005795 0.012625 1.865017
v -1.005795 0.514396 1.794468
v -1.386113 0.012625 1.865017
v -1.386113 0.514396 1.794468
v -0.604739 0.014548 -2.301910
v -1.036465 0.014548 -2.123084
v -1.215292 0.014548 -1.691358
v -1.036465 0.014548 -1.259633
v -0.173014 0.014548 -1.259633
v 0.005813 0.014548 -1.691358
v -0.173014 0.014548 -2.123084
v -0.604739 0.686333 -2.207458
v -0.969677 0.686333 -2.056296
v -1.120840 0.686333 -1.691358
v -0.969677 0.686333 -1.326420
v -0.604739 0.686333 -1.175258
v -0.239801 0.686333 -1.326420
v -0.088639 0.686333 -1.691358
v -0.239801 0.686333 -2.056296
v -0.604739 1.049047 -1.691358
v -0.604739 0.492341 -1.147983
v -0.423668 0.014548 -1.155808
v -0.423668 0.492341 -1.222985
v -0.785811 0.014548 -1.155808
v -0.785811 0.492341 -1.222985
v 1.382139 0.010669 0.152150
v 1.017348 0.010669 0.303252
v 0.866247 0.010669 0.668043
v 1.017348 0.010669 1.032834
v 1.746930 0.010669 1.032834
v 1.898032 0.010669 0.668043
v 1.746930 0.010669 0.303252
v 1.382139 0.578300 0.231959
v 1.073781 0.578300 0.359685
v 0.946055 0.578300 0.668043
v 1.073781 0.578300 0.976401
v 1.382139 0.578300 1.104127
v 1.690497 0.578300 0.976401
v 1.818223 0.578300 0.668043
v 1.690497 0.578300 0.359685
v 1.382139 0.884779 0.668043
v 1.382139 0.414385 1.127173
v 1.535137 0.010669 1.120562
v 1.535137 0.414385 1.063800
v 1.229141 0.010669 1.120562
v 1.229141 0.414385 1.063800
vn 0.9162 0.1288 -0.3795
vn -0.9162 0.1288 0.3795
vn -0.3795 0.1288 -0.9162
vn 0.3795 0.1288 -0.9162
vn 0.9162 0.1288 0.3795
vn -0.9162 0.1288 -0.3795
vn 0.2317 0.7959 -0.5594
vn 0.5594 0.7959 0.2317
vn -0.2317 0.7959 0.5594
vn -0.5594 0.7959 -0.2317
vn 0.5594 0.7959 -0.2317
vn 0.2317 0.7959 0.5594
vn -0.5594 0.7959 0.2317
vn -0.2317 0.7959 -0.5594
vn 0.3795 0.1288 0.9162
vn -0.3795 0.1288 0.9162
vt 0.875000 0.828125
vt 0.875000 0.828125
vt 0.875000 0.828125
vt 0.875000 0.828125
vt 0.875000 0.828125
vt 0.875000 0.828125
vt 0.875000 0.828125
vt 0.875000 0.828125
vt 0.875000 0.828125
vt 0.875000 0.828125
vt 0.875000 0.828125
vt 0.875000 0.828125
vt 0.875000 0.828125
vt 0.875000 0.828125
vt 0.875000 0.828125
vt 0.875000 0.828125
vt 0.875000 0.828125
vt 0.875000 0.828125
vt 0.875000 0.828125
vt 0.875000 0.828125
vt 0.875000 0.828125
vt 0.875000 0.828125
vt 0.875000 0.828125
vt 0.875000 0.828125
vt 0.875000 0.828125
vt 0.875000 0.828125
vt 0.875000 0.828125
vt 0.875000 0.828125
vt 0.875000 0.828125
vt 0.875000 0.828125
vt 0.875000 0.828125
vt 0.875000 0.828125
vt 0.875000 0.828125
vt 0.875000 0.828125
vt 0.875000 0.828125
vt 0.875000 0.828125
vt 0.875000 0.828125
vt 0.875000 0.828125
vt 0.875000 0.828125
vt 0.875000 0.828125
vt 0.875000 0.828125
vt 0.875000 0.828125
vt 0.875000 0.828125
vt 0.875000 0.828125
vt 0.875000 0.828125
vt 0.875000 0.828125
vt 0.875000 0.828125
vt 0.875000 0.828125
vt 0.875000 0.828125
vt 0.875000 0.828125
vt 0.875000 0.828125
vt 0.875000 0.828125
vt 0.875000 0.828125
vt 0.875000 0.828125
vt 0.875000 0.828125
vt 0.875000 0.828125
vt 0.875000 0.828125
vt 0.875000 0.828125
vt 0.875000 0.828125
vt 0.875000 0.828125
vt 0.875000 0.828125
vt 0.875000 0.828125
vt 0.875000 0.828125
vt 0.875000 0.828125
vt 0.875000 0.828125
vt 0.875000 0.828125
vt 0.875000 0.828125
vt 0.875000 0.828125
vt 0.875000 0.828125
vt 0.875000 0.828125
vt 0.875000 0.828125
vt 0.875000 0.828125
vt 0.875000 0.828125
vt 0.875000 0.828125
vt 0.875000 0.828125
vt 0.875000 0.828125
vt 0.875000 0.828125
vt 0.875000 0.828125
vt 0.875000 0.828125
vt 0.875000 0.828125
vt 0.875000 0.828125
vt 0.875000 0.828125
vt 0.875000 0.828125
vt 0.875000 0.828125
s 0
usemtl Material
f 7/7/1 15/15/1 14/14/1 6/6/1
f 4/4/2 11/11/2 10/10/2 3/3/2
f 2/2/3 9/9/3 8/8/3 1/1/3
f 1/1/4 8/8/4 15/15/4 7/7/4
f 6/6/5 14/14/5 13/13/5 5/5/5
f 3/3/6 10/10/6 9/9/6 2/2/6
f 8/8/7 16/16/7 15/15/7
f 14/14/8 16/16/8 13/13/8
f 12/12/9 16/16/9 11/11/9
f 10/10/10 16/16/10 9/9/10
f 15/15/11 16/16/11 14/14/11
f 13/13/12 16/16/12 12/12/12
f 11/11/13 16/16/13 10/10/13
f 9/9/14 16/16/14 8/8/14
f 19/19/15 5/5/15 13/13/15
f 21/21/16 12/12/16 11/11/16
f 28/28/1 36/36/1 35/35/1 27/27/1
f 25/25/2 32/32/2 31/31/2 24/24/2
f 23/23/3 30/30/3 29/29/3 22/22/3
f 22/22/4 29/29/4 36/36/4 28/28/4
f 27/27/5 35/35/5 34/34/5 26/26/5
f 24/24/6 31/31/6 30/30/6 23/23/6
f 29/29/7 37/37/7 36/36/7
f 35/35/8 37/37/8 34/34/8
f 33/33/9 37/37/9 32/32/9
f 31/31/10 37/37/10 30/30/10
f 36/36/11 37/37/11 35/35/11
f 34/34/12 37/37/12 33/33/12
f 32/32/13 37/37/13 31/31/13
f 30/30/14 37/37/14 29/29/14
f 40/40/15 26/26/15 34/34/15
f 42/42/16 33/33/16 32/32/16
f 49/49/1 57/57/1 56/56/1 48/48/1
f 46/46/2 53/53/2 52/52/2 45/45/2
f 44/44/3 51/51/3 50/50/3 43/43/3
f 43/43/4 50/50/4 57/57/4 49/49/4
f 48/48/5 56/56/5 55/55/5 47/47/5
f 45/45/6 52/52/6 51/51/6 44/44/6
f 50/50/7 58/58/7 57/57/7
f 56/56/8 58/58/8 55/55/8
f 54/54/9 58/58/9 53/53/9
f 52/52/10 58/58/10 51/51/10
f 57/57/11 58/58/11 56/56/11
f 55/55/12 58/58/12 54/54/12
f 53/53/13 58/58/13 52/52/13
f 51/51/14 58/58/14 50/50/14
f 61/61/15 47/47/15 55/55/15
f 63/63/16 54/54/16 53/53/16
f 70/70/1 78/78/1 77/77/1 69/69/1
f 67/67/2 74/74/2 73/73/2 66/66/2
f 65/65/3 72/72/3 71/71/3 64/64/3
f 64/64/4 71/71/4 78/78/4 70/70/4
f 69/69/5 77/77/5 76/76/5 68/68/5
f 66/66/6 73/73/6 72/72/6 65/65/6
f 71/71/7 79/79/7 78/78/7
f 77/77/8 79/79/8 76/76/8
f 75/75/9 79/79/9 74/74/9
f 73/73/10 79/79/10 72/72/10
f 78/78/11 79/79/11 77/77/11
f 76/76/12 79/79/12 75/75/12
f 74/74/13 79/79/13 73/73/13
f 72/72/14 79/79/14 71/71/14
f 82/82/15 68/68/15 76/76/15
f 84/84/16 75/75/16 74/74/16
f 13/13/15 12/12/15 19/19/15
f 12/12/15 17/17/15 19/19/15
f 19/19/15 18/18/15 5/5/15
f 11/11/16 4/4/16 21/21/16
f 4/4/16 20/20/16 21/21/16
f 21/21/16 17/17/16 12/12/16
f 34/34/15 33/33/15 40/40/15
f 33/33/15 38/38/15 40/40/15
f 40/40/15 39/39/15 26/26/15
f 32/32/16 25/25/16 42/42/16
f 25/25/16 41/41/16 42/42/16
f 42/42/16 38/38/16 33/33/16
f 55/55/15 54/54/15 61/61/15
f 54/54/15 59/59/15 61/61/15
f 61/61/15 60/60/15 47/47/15
f 53/53/16 46/46/16 63/63/16
f 46/46/16 62/62/16 63/63/16
f 63/63/16 59/59/16 54/54/16
f 76/76/15 75/75/15 82/82/15
f 75/75/15 80/80/15 82/82/15
f 82/82/15 81/81/15 68/68/15
f 74/74/16 67/67/16 84/84/16
f 67/67/16 83/83/16 84/84/16
f 84/84/16 80/80/16 75/75/16
