# Blender 3.4.1
# www.blender.org
mtllib City02.mtl
o City02
v 1.000000 0.000000 -1.000000
v -1.000000 0.000000 -1.000000
v 1.000000 0.000000 1.000000
v -1.000000 0.000000 1.000000
v 0.916667 0.000000 -1.000000
v -0.916667 0.000000 -1.000000
v 1.000000 0.000000 0.916667
v 1.000000 0.000000 -0.916667
v -0.916667 0.000000 1.000000
v 0.916667 0.000000 1.000000
v -1.000000 0.000000 -0.916667
v -1.000000 0.000000 0.916667
v -0.916667 0.000000 0.916667
v -0.916667 0.000000 -0.916667
v 0.916667 0.000000 0.916667
v 0.916667 0.000000 -0.916667
v -0.916667 0.288976 -1.000000
v -1.000000 0.288976 -1.000000
v 1.000000 0.288976 -0.916667
v 1.000000 0.288976 -1.000000
v 0.916667 0.288976 1.000000
v 1.000000 0.288976 1.000000
v -1.000000 0.288976 0.916667
v -1.000000 0.288976 1.000000
v 0.916667 0.288976 -1.000000
v 1.000000 0.288976 0.916667
v -0.916667 0.288976 1.000000
v -1.000000 0.288976 -0.916667
v -0.916667 0.288976 -0.916667
v -0.916667 0.288976 0.916667
v 0.916667 0.288976 -0.916667
v 0.916667 0.288976 0.916667
v -0.916667 0.381582 -1.000000
v -1.000000 0.381582 -1.000000
v 1.000000 0.381582 -0.916667
v 1.000000 0.381582 -1.000000
v 0.916667 0.381582 1.000000
v 1.000000 0.381582 1.000000
v -1.000000 0.381582 0.916667
v -1.000000 0.381582 1.000000
v 0.916667 0.381582 -1.000000
v 1.000000 0.381582 0.916667
v -0.916667 0.381582 1.000000
v -1.000000 0.381582 -0.916667
v -0.916667 0.381582 -0.916667
v -0.916667 0.381582 0.916667
v 0.916667 0.381582 -0.916667
v 0.916667 0.381582 0.916667
vn -0.0000 -1.0000 -0.0000
vn -1.0000 -0.0000 -0.0000
vn -0.0000 -0.0000 1.0000
vn 1.0000 -0.0000 -0.0000
vn -0.0000 -0.0000 -1.0000
vn -0.0000 1.0000 -0.0000
vt 0.382812 0.906250
vt 0.382812 0.906250
vt 0.382812 0.906250
vt 0.382812 0.906250
vt 0.382812 0.906250
vt 0.382812 0.906250
vt 0.382812 0.906250
vt 0.382812 0.906250
vt 0.382812 0.906250
vt 0.382812 0.906250
vt 0.382812 0.906250
vt 0.382812 0.906250
vt 0.382812 0.906250
vt 0.382812 0.906250
vt 0.382812 0.906250
vt 0.382812 0.906250
vt 0.382812 0.906250
vt 0.164063 0.343750
vt 0.382812 0.906250
vt 0.164063 0.343750
vt 0.382812 0.906250
vt 0.164063 0.343750
vt 0.382812 0.906250
vt 0.164063 0.343750
vt 0.164063 0.343750
vt 0.382812 0.906250
vt 0.382812 0.906250
vt 0.164063 0.343750
vt 0.164063 0.343750
vt 0.382812 0.906250
vt 0.164063 0.343750
vt 0.382812 0.906250
vt 0.382812 0.906250
vt 0.164063 0.343750
vt 0.382812 0.906250
vt 0.164063 0.343750
vt 0.164063 0.343750
vt 0.382812 0.906250
vt 0.164063 0.343750
vt 0.382812 0.906250
vt 0.382812 0.906250
vt 0.164063 0.343750
vt 0.382812 0.906250
vt 0.164063 0.343750
vt 0.382812 0.906250
vt 0.164063 0.343750
vt 0.382812 0.906250
vt 0.164063 0.343750
vt 0.164063 0.343750
vt 0.164063 0.343750
vt 0.164063 0.343750
vt 0.164063 0.343750
vt 0.164063 0.343750
vt 0.164063 0.343750
vt 0.164063 0.343750
vt 0.164063 0.343750
vt 0.164063 0.343750
vt 0.164063 0.343750
vt 0.164063 0.343750
vt 0.164063 0.343750
vt 0.164063 0.343750
vt 0.164063 0.343750
vt 0.164063 0.343750
vt 0.164063 0.343750
s 0
usemtl Material
f 16/16/1 5/5/1 1/1/1 8/8/1
f 11/11/1 2/2/1 6/6/1 14/14/1
f 14/14/1 6/6/1 5/5/1 16/16/1
f 4/4/1 12/12/1 13/13/1 9/9/1
f 12/12/1 11/11/1 14/14/1 13/13/1
f 9/9/1 13/13/1 15/15/1 10/10/1
f 28/39/2 23/29/2 39/55/2 44/60/2
f 10/10/1 15/15/1 7/7/1 3/3/1
f 15/15/1 16/16/1 8/8/1 7/7/1
f 23/29/2 24/31/2 40/56/2 39/55/2
f 18/20/2 28/39/2 44/60/2 34/50/2
f 31/46/2 32/48/2 48/64/2 47/63/2
f 21/25/3 22/28/3 38/54/3 37/53/3
f 27/37/3 21/25/3 37/53/3 43/59/3
f 19/22/4 20/24/4 36/52/4 35/51/4
f 24/31/3 27/37/3 43/59/3 40/56/3
f 16/16/2 15/15/2 32/47/2 31/45/2
f 2/2/2 11/11/2 28/40/2 18/19/2
f 12/12/2 4/4/2 24/32/2 23/30/2
f 11/11/2 12/12/2 23/30/2 28/40/2
f 1/1/5 5/5/5 25/33/5 20/23/5
f 5/5/5 6/6/5 17/17/5 25/33/5
f 15/15/5 13/13/5 30/43/5 32/47/5
f 3/3/4 7/7/4 26/35/4 22/27/4
f 14/14/3 16/16/3 31/45/3 29/41/3
f 13/13/4 14/14/4 29/41/4 30/43/4
f 7/7/4 8/8/4 19/21/4 26/35/4
f 6/6/5 2/2/5 18/19/5 17/17/5
f 4/4/3 9/9/3 27/38/3 24/32/3
f 8/8/4 1/1/4 20/23/4 19/21/4
f 9/9/3 10/10/3 21/26/3 27/38/3
f 10/10/3 3/3/3 22/27/3 21/26/3
f 47/63/6 35/51/6 36/52/6 41/57/6
f 44/60/6 45/61/6 33/49/6 34/50/6
f 45/61/6 47/63/6 41/57/6 33/49/6
f 40/56/6 43/59/6 46/62/6 39/55/6
f 39/55/6 46/62/6 45/61/6 44/60/6
f 43/59/6 37/53/6 48/64/6 46/62/6
f 37/53/6 38/54/6 42/58/6 48/64/6
f 48/64/6 42/58/6 35/51/6 47/63/6
f 20/24/5 25/34/5 41/57/5 36/52/5
f 25/34/5 17/18/5 33/49/5 41/57/5
f 32/48/5 30/44/5 46/62/5 48/64/5
f 22/28/4 26/36/4 42/58/4 38/54/4
f 29/42/3 31/46/3 47/63/3 45/61/3
f 30/44/4 29/42/4 45/61/4 46/62/4
f 26/36/4 19/22/4 35/51/4 42/58/4
f 17/18/5 18/20/5 34/50/5 33/49/5
