# Blender 3.5.0
# www.blender.org
mtllib City02.mtl
o City02
v 1.000000 0.000000 -1.000000
v -1.000000 0.000000 -1.000000
v 1.000000 0.000000 1.000000
v -1.000000 0.000000 1.000000
v 0.916667 0.000000 -1.000000
v -0.916667 0.000000 -1.000000
v 1.000000 0.000000 0.916667
v 1.000000 0.000000 -0.916667
v -0.916667 0.000000 1.000000
v 0.916667 0.000000 1.000000
v -1.000000 0.000000 -0.916667
v -1.000000 0.000000 0.916667
v -0.916667 0.000000 0.916667
v -0.916667 0.000000 -0.916667
v 0.916667 0.000000 0.916667
v 0.916667 0.000000 -0.916667
v -0.916667 0.288976 -1.000000
v -1.000000 0.288976 -1.000000
v 1.000000 0.288976 -0.916667
v 1.000000 0.288976 -1.000000
v 0.916667 0.288976 1.000000
v 1.000000 0.288976 1.000000
v -1.000000 0.288976 0.916667
v -1.000000 0.288976 1.000000
v 0.916667 0.288976 -1.000000
v 1.000000 0.288976 0.916667
v -0.916667 0.288976 1.000000
v -1.000000 0.288976 -0.916667
v -0.916667 0.288976 -0.916667
v -0.916667 0.288976 0.916667
v 0.916667 0.288976 -0.916667
v 0.916667 0.288976 0.916667
v -0.916667 0.381582 -1.000000
v -1.000000 0.381582 -1.000000
v 1.000000 0.381582 -0.916667
v 1.000000 0.381582 -1.000000
v 0.916667 0.381582 1.000000
v 1.000000 0.381582 1.000000
v -1.000000 0.381582 0.916667
v -1.000000 0.381582 1.000000
v 0.916667 0.381582 -1.000000
v 1.000000 0.381582 0.916667
v -0.916667 0.381582 1.000000
v -1.000000 0.381582 -0.916667
v -0.916667 0.381582 -0.916667
v -0.916667 0.381582 0.916667
v 0.916667 0.381582 -0.916667
v 0.916667 0.381582 0.916667
v 0.085680 0.000000 -1.000000
v -0.085680 0.000000 -1.000000
v -0.085680 0.000000 -0.916667
v 0.085680 0.000000 -0.916667
v 0.085680 0.000000 0.916667
v -0.085680 0.000000 0.916667
v -0.085680 0.000000 1.000000
v 0.085680 0.000000 1.000000
v -0.085680 0.071013 -1.000000
v 0.085680 0.071013 -1.000000
v -0.078739 0.133345 -1.000000
v -0.046798 0.180936 -1.000000
v 0.000000 0.198678 -1.000000
v 0.046798 0.180936 -1.000000
v 0.078739 0.133345 -1.000000
v -0.078739 0.133345 0.916667
v -0.085680 0.071013 0.916667
v 0.085680 0.071013 0.916667
v -0.046798 0.180936 0.916667
v 0.000000 0.198678 0.916667
v 0.078739 0.133345 0.916667
v 0.046798 0.180936 0.916667
v -0.085680 0.071013 -0.916667
v 0.078739 0.133345 -0.916667
v 0.085680 0.071013 -0.916667
v -0.078739 0.133345 -0.916667
v -0.046798 0.180936 -0.916667
v 0.000000 0.198678 -0.916667
v 0.046798 0.180936 -0.916667
v -0.085680 0.071013 1.000000
v 0.085680 0.071013 1.000000
v 0.078739 0.133345 1.000000
v -0.078739 0.133345 1.000000
v -0.046798 0.180936 1.000000
v 0.000000 0.198678 1.000000
v 0.046798 0.180936 1.000000
v 0.916667 0.133345 0.079354
v -1.000000 0.180936 0.047414
v 1.000000 0.000000 0.086295
v 1.000000 0.180936 0.047414
v 0.916667 0.180936 0.047414
v -0.916667 0.133345 -0.078123
v -1.000000 0.071013 -0.085064
v -0.916667 0.071013 -0.085064
v -1.000000 0.071013 0.086295
v -0.916667 0.071013 0.086295
v 0.916667 0.071013 0.086295
v -0.916667 0.133345 0.079354
v 1.000000 0.071013 -0.085064
v 1.000000 0.133345 -0.078123
v -1.000000 0.133345 0.079354
v -1.000000 0.133345 -0.078123
v 0.916667 0.071013 -0.085064
v 0.916667 0.133345 -0.078123
v 1.000000 0.133345 0.079354
v 0.916667 0.000000 0.086295
v 1.000000 0.071013 0.086295
v -0.916667 0.000000 0.086295
v -1.000000 0.000000 0.086295
v -1.000000 0.000000 0.086295
v -1.000000 0.000000 -0.085064
v -0.916667 0.000000 0.086295
v -0.916667 0.000000 -0.085064
v 0.916667 0.000000 0.086295
v 0.916667 0.000000 -0.085064
v 1.000000 0.000000 0.086295
v 1.000000 0.000000 -0.085064
v 0.916667 0.071013 0.086295
v 0.916667 0.071013 -0.085064
v 0.916667 0.133345 0.079354
v 0.916667 0.180936 0.047414
v 0.916667 0.198678 0.000615
v 0.916667 0.180936 -0.046183
v 0.916667 0.133345 -0.078123
v -1.000000 0.133345 0.079354
v -1.000000 0.071013 0.086295
v -1.000000 0.071013 -0.085064
v -1.000000 0.180936 0.047414
v -1.000000 0.198678 0.000615
v -1.000000 0.133345 -0.078123
v -1.000000 0.180936 -0.046183
v -0.916667 0.071013 0.086295
v -0.916667 0.071013 -0.085064
v -0.916667 0.133345 -0.078123
v -0.916667 0.133345 0.079354
v -0.916667 0.180936 0.047414
v -0.916667 0.198678 0.000615
v -0.916667 0.180936 -0.046183
v 1.000000 0.071013 0.086295
v 1.000000 0.133345 -0.078123
v 1.000000 0.071013 -0.085064
v 1.000000 0.133345 0.079354
v 1.000000 0.180936 0.047414
v 1.000000 0.198678 0.000615
v 1.000000 0.180936 -0.046183
v -0.916667 0.180936 0.047414
v 1.000000 0.180936 -0.046183
v 0.916667 0.180936 -0.046183
v -1.000000 0.180936 -0.046183
v -0.916667 0.180936 -0.046183
v -1.000000 0.000000 -0.085064
v -0.916667 0.000000 -0.085064
v 1.000000 0.000000 -0.085064
v 0.916667 0.000000 -0.085064
v 1.000000 0.198678 0.000615
v 0.916667 0.198678 0.000615
v -1.000000 0.198678 0.000615
v -0.916667 0.198678 0.000615
vn -0.0000 -1.0000 -0.0000
vn -1.0000 -0.0000 -0.0000
vn -0.0000 -0.0000 1.0000
vn 1.0000 -0.0000 -0.0000
vn -0.0000 -0.0000 -1.0000
vn -0.0000 1.0000 -0.0000
vn -0.8303 0.5573 -0.0000
vn 0.9939 0.1107 -0.0000
vn -0.9939 0.1107 -0.0000
vn 0.8303 0.5573 -0.0000
vn 0.3545 0.9351 -0.0000
vn -0.3545 0.9351 -0.0000
vn -0.0000 -0.1107 -0.9939
vn -0.0000 -0.1107 0.9939
vn -0.0000 -0.5573 -0.8303
vn -0.0000 -0.5573 0.8303
vn -0.0000 -0.9351 -0.3545
vn -0.0000 -0.9351 0.3545
vt 0.382812 0.906250
vt 0.382812 0.906250
vt 0.382812 0.906250
vt 0.382812 0.906250
vt 0.382812 0.906250
vt 0.382812 0.906250
vt 0.382812 0.906250
vt 0.382812 0.906250
vt 0.382812 0.906250
vt 0.382812 0.906250
vt 0.382812 0.906250
vt 0.382812 0.906250
vt 0.382812 0.906250
vt 0.382812 0.906250
vt 0.382812 0.906250
vt 0.382812 0.906250
vt 0.164063 0.343750
vt 0.382812 0.906250
vt 0.382812 0.906250
vt 0.164063 0.343750
vt 0.164063 0.343750
vt 0.382812 0.906250
vt 0.382812 0.906250
vt 0.164063 0.343750
vt 0.164063 0.343750
vt 0.382812 0.906250
vt 0.382812 0.906250
vt 0.164063 0.343750
vt 0.164063 0.343750
vt 0.382812 0.906250
vt 0.164063 0.343750
vt 0.382812 0.906250
vt 0.164063 0.343750
vt 0.382812 0.906250
vt 0.164063 0.343750
vt 0.382812 0.906250
vt 0.164063 0.343750
vt 0.382812 0.906250
vt 0.164063 0.343750
vt 0.382812 0.906250
vt 0.164063 0.343750
vt 0.382812 0.906250
vt 0.164063 0.343750
vt 0.382812 0.906250
vt 0.164063 0.343750
vt 0.382812 0.906250
vt 0.164063 0.343750
vt 0.382812 0.906250
vt 0.164063 0.343750
vt 0.164063 0.343750
vt 0.164063 0.343750
vt 0.164063 0.343750
vt 0.164063 0.343750
vt 0.164063 0.343750
vt 0.164063 0.343750
vt 0.164063 0.343750
vt 0.164063 0.343750
vt 0.164063 0.343750
vt 0.164063 0.343750
vt 0.164063 0.343750
vt 0.164063 0.343750
vt 0.164063 0.343750
vt 0.164063 0.343750
vt 0.164063 0.343750
vt 0.348362 0.359956
vt 0.000000 0.000000
vt 0.382812 0.906250
vt 0.348362 0.359956
vt 0.000000 0.000000
vt 0.382812 0.906250
vt 0.348362 0.359956
vt 0.000000 0.000000
vt 0.382812 0.906250
vt 0.348362 0.359956
vt 0.000000 0.000000
vt 0.382812 0.906250
vt 0.348362 0.359956
vt 0.000000 0.000000
vt 0.382812 0.906250
vt 0.348362 0.359956
vt 0.000000 0.000000
vt 0.382812 0.906250
vt 0.348362 0.359956
vt 0.000000 0.000000
vt 0.382812 0.906250
vt 0.348362 0.359956
vt 0.000000 0.000000
vt 0.382812 0.906250
vt 0.348362 0.359956
vt 0.000000 0.000000
vt 0.382813 0.906250
vt 0.348362 0.359956
vt 0.000000 0.000000
vt 0.382812 0.906250
vt 0.348362 0.359956
vt 0.000000 0.000000
vt 0.382812 0.906250
vt 0.348362 0.359956
vt 0.000000 0.000000
vt 0.382812 0.906250
vt 0.348362 0.359956
vt 0.000000 0.000000
vt 0.382812 0.906250
vt 0.348362 0.359956
vt 0.000000 0.000000
vt 0.382812 0.906250
vt 0.348362 0.359956
vt 0.000000 0.000000
vt 0.382812 0.906250
vt 0.348362 0.359956
vt 0.000000 0.000000
vt 0.382812 0.906250
vt 0.348362 0.359956
vt 0.000000 0.000000
vt 0.382813 0.906250
vt 0.348362 0.359956
vt 0.000000 0.000000
vt 0.382812 0.906250
vt 0.348362 0.359956
vt 0.000000 0.000000
vt 0.382812 0.906250
vt 0.348362 0.359956
vt 0.000000 0.000000
vt 0.382812 0.906250
vt 0.348362 0.359956
vt 0.000000 0.000000
vt 0.382812 0.906250
vt 0.348362 0.359956
vt 0.000000 0.000000
vt 0.382812 0.906250
vt 0.348362 0.359956
vt 0.000000 0.000000
vt 0.382812 0.906250
vt 0.348362 0.359956
vt 0.000000 0.000000
vt 0.382812 0.906250
vt 0.348362 0.359956
vt 0.000000 0.000000
vt 0.382813 0.906250
vt 0.348362 0.359956
vt 0.000000 0.000000
vt 0.382812 0.906250
vt 0.348362 0.359956
vt 0.000000 0.000000
vt 0.382812 0.906250
vt 0.348362 0.359956
vt 0.000000 0.000000
vt 0.382812 0.906250
vt 0.348362 0.359956
vt 0.000000 0.000000
vt 0.382812 0.906250
vt 0.348362 0.359956
vt 0.000000 0.000000
vt 0.382812 0.906250
vt 0.348362 0.359956
vt 0.000000 0.000000
vt 0.382813 0.906250
vt 0.348362 0.359956
vt 0.000000 0.000000
vt 0.382812 0.906250
vt 0.348362 0.359956
vt 0.000000 0.000000
vt 0.382812 0.906250
vt 0.348362 0.359956
vt 0.000000 0.000000
vt 0.382812 0.906250
vt 0.348362 0.359956
vt 0.000000 0.000000
vt 0.382812 0.906250
vt 0.348362 0.359956
vt 0.000000 0.000000
vt 0.382812 0.906250
vt 0.000000 0.000000
vt 0.000000 0.000000
vt 0.000000 0.000000
vt 0.000000 0.000000
vt 0.000000 0.000000
vt 0.000000 0.000000
vt 0.000000 0.000000
vt 0.000000 0.000000
vt 0.000000 0.000000
vt 0.000000 0.000000
vt 0.000000 0.000000
vt 0.000000 0.000000
vt 0.000000 0.000000
vt 0.000000 0.000000
vt 0.000000 0.000000
vt 0.000000 0.000000
vt 0.000000 0.000000
vt 0.000000 0.000000
vt 0.000000 0.000000
vt 0.000000 0.000000
vt 0.000000 0.000000
vt 0.000000 0.000000
vt 0.000000 0.000000
vt 0.348362 0.359956
vt 0.382812 0.906250
vt 0.348362 0.359956
vt 0.382812 0.906250
vt 0.348362 0.359956
vt 0.382812 0.906250
vt 0.348362 0.359956
vt 0.382812 0.906250
vt 0.348362 0.359956
vt 0.382812 0.906250
vt 0.348362 0.359956
vt 0.382812 0.906250
vt 0.348362 0.359956
vt 0.382812 0.906250
vt 0.348362 0.359956
vt 0.382812 0.906250
vt 0.348362 0.359956
vt 0.382812 0.906250
vt 0.348362 0.359956
vt 0.382813 0.906250
vt 0.348362 0.359956
vt 0.382812 0.906250
vt 0.348362 0.359956
vt 0.382812 0.906250
vt 0.348362 0.359956
vt 0.382812 0.906250
vt 0.348362 0.359956
vt 0.382812 0.906250
vt 0.348362 0.359956
vt 0.382812 0.906250
vt 0.348362 0.359956
vt 0.382812 0.906250
vt 0.348362 0.359956
vt 0.382812 0.906250
vt 0.348362 0.359956
vt 0.382813 0.906250
vt 0.348362 0.359956
vt 0.382812 0.906250
vt 0.348362 0.359956
vt 0.382812 0.906250
vt 0.348362 0.359956
vt 0.382812 0.906250
vt 0.348362 0.359956
vt 0.382812 0.906250
vt 0.348362 0.359956
vt 0.382812 0.906250
vt 0.348362 0.359956
vt 0.382812 0.906250
vt 0.348362 0.359956
vt 0.382812 0.906250
vt 0.348362 0.359956
vt 0.382812 0.906250
vt 0.348362 0.359956
vt 0.382813 0.906250
vt 0.348362 0.359956
vt 0.382812 0.906250
vt 0.348362 0.359956
vt 0.382812 0.906250
vt 0.348362 0.359956
vt 0.382812 0.906250
vt 0.348362 0.359956
vt 0.382812 0.906250
vt 0.348362 0.359956
vt 0.382812 0.906250
vt 0.348362 0.359956
vt 0.382812 0.906250
vt 0.348362 0.359956
vt 0.382813 0.906250
vt 0.348362 0.359956
vt 0.382812 0.906250
vt 0.348362 0.359956
vt 0.382812 0.906250
vt 0.000000 0.000000
vt 0.000000 0.000000
vt 0.000000 0.000000
vt 0.000000 0.000000
vt 0.000000 0.000000
vt 0.000000 0.000000
vt 0.000000 0.000000
vt 0.000000 0.000000
vt 0.000000 0.000000
vt 0.000000 0.000000
vt 0.000000 0.000000
vt 0.000000 0.000000
vt 0.000000 0.000000
s 0
usemtl Material
f 16/16/1 5/5/1 1/1/1 8/8/1
f 11/11/1 2/2/1 6/6/1 14/14/1
f 4/4/1 12/12/1 13/13/1 9/9/1
f 28/39/2 23/29/2 39/55/2 44/60/2
f 10/10/1 15/15/1 7/7/1 3/3/1
f 23/29/2 24/31/2 40/56/2 39/55/2
f 18/20/2 28/39/2 44/60/2 34/50/2
f 31/45/2 32/47/2 48/64/2 47/63/2
f 21/25/3 22/28/3 38/54/3 37/53/3
f 27/37/3 21/25/3 37/53/3 43/59/3
f 19/21/4 20/24/4 36/52/4 35/51/4
f 24/31/3 27/37/3 43/59/3 40/56/3
f 2/2/2 11/11/2 28/40/2 18/19/2
f 12/12/2 4/4/2 24/32/2 23/30/2
f 1/1/5 5/5/5 25/34/5 20/23/5
f 3/3/4 7/7/4 26/36/4 22/27/4
f 6/6/5 2/2/5 18/19/5 17/18/5
f 4/4/3 9/9/3 27/38/3 24/32/3
f 8/8/4 1/1/4 20/23/4 19/22/4
f 10/10/3 3/3/3 22/27/3 21/26/3
f 47/63/6 35/51/6 36/52/6 41/57/6
f 44/60/6 45/61/6 33/49/6 34/50/6
f 45/61/6 47/63/6 41/57/6 33/49/6
f 40/56/6 43/59/6 46/62/6 39/55/6
f 39/55/6 46/62/6 45/61/6 44/60/6
f 43/59/6 37/53/6 48/64/6 46/62/6
f 37/53/6 38/54/6 42/58/6 48/64/6
f 48/64/6 42/58/6 35/51/6 47/63/6
f 20/24/5 25/33/5 41/57/5 36/52/5
f 25/33/5 17/17/5 33/49/5 41/57/5
f 32/47/5 30/43/5 46/62/5 48/64/5
f 22/28/4 26/35/4 42/58/4 38/54/4
f 29/41/3 31/45/3 47/63/3 45/61/3
f 30/43/4 29/41/4 45/61/4 46/62/4
f 26/35/4 19/21/4 35/51/4 42/58/4
f 17/17/5 18/20/5 34/50/5 33/49/5
f 5/5/1 16/16/1 52/76/1 49/67/1
f 14/14/1 6/6/1 50/70/1 51/73/1
f 50/70/1 49/67/1 52/76/1 51/73/1
f 15/15/1 10/10/1 56/88/1 53/79/1
f 9/9/1 13/13/1 54/82/1 55/85/1
f 54/82/1 53/79/1 56/88/1 55/85/1
f 17/18/5 25/34/5 61/103/5
f 58/92/5 49/65/5 50/68/5 57/89/5 59/95/5 60/98/5 61/101/5 62/104/5 63/107/5
f 30/44/5 32/48/5 68/124/5
f 69/125/5 66/116/5 53/77/5 54/80/5 65/113/5 64/110/5 67/119/5 68/122/5 70/128/5
f 31/46/3 29/42/3 76/148/3
f 74/140/3 71/131/3 51/71/3 52/74/3 73/137/3 72/134/3 77/149/3 76/146/3 75/143/3
f 21/26/3 27/38/3 83/169/3
f 81/161/3 78/152/3 55/83/3 56/86/3 79/155/3 80/158/3 84/170/3 83/167/3 82/164/3
f 108/197/1 109/199/1 111/203/1 110/201/1
f 109/199/1 11/11/1 14/14/1 111/203/1
f 13/13/1 12/12/1 108/197/1 110/201/1
f 112/205/1 113/207/1 115/211/1 114/209/1
f 113/207/1 16/16/1 8/8/1 115/211/1
f 7/7/1 15/15/1 112/205/1 114/209/1
f 32/48/2 31/46/2 120/221/2
f 117/214/2 113/206/2 112/204/2 116/212/2 118/216/2 119/218/2 120/220/2 121/222/2 122/224/2
f 23/30/2 28/40/2 127/235/2
f 128/236/2 125/230/2 109/198/2 108/196/2 124/228/2 123/226/2 126/232/2 127/234/2 129/238/2
f 29/42/4 30/44/4 135/251/4
f 133/246/4 130/240/4 110/200/4 111/202/4 131/242/4 132/244/4 136/252/4 135/250/4 134/248/4
f 19/22/4 26/36/4 142/265/4
f 142/264/4 141/262/4 140/260/4 137/254/4 114/208/4 115/210/4 139/258/4 138/256/4 143/266/4
f 59/96/7 74/141/7 75/144/7 60/99/7
f 82/165/7 67/120/7 64/111/7 81/162/7
f 58/93/8 63/108/8 72/135/8 73/138/8
f 79/156/8 66/117/8 69/126/8 80/159/8
f 59/96/9 57/90/9 71/132/9 74/141/9
f 81/162/9 64/111/9 65/114/9 78/153/9
f 69/126/10 70/129/10 84/171/10 80/159/10
f 63/108/10 62/105/10 77/150/10 72/135/10
f 56/87/4 53/78/4 66/117/4 79/156/4
f 49/66/4 58/93/4 73/138/4 52/75/4
f 84/171/11 70/129/11 68/123/11 83/168/11
f 77/150/11 62/105/11 61/102/11 76/147/11
f 83/168/12 68/123/12 67/120/12 82/165/12
f 76/147/12 61/102/12 60/99/12 75/144/12
f 55/84/2 78/153/2 65/114/2 54/81/2
f 50/69/2 51/72/2 71/132/2 57/90/2
f 107/195/5 93/181/5 94/182/5 106/194/5
f 104/192/5 95/183/5 105/193/5 87/175/5
f 99/187/13 96/184/13 94/182/13 93/181/13
f 85/173/13 103/191/13 105/193/13 95/183/13
f 100/188/14 91/179/14 92/180/14 90/178/14
f 98/186/14 102/190/14 101/189/14 97/185/14
f 96/184/15 99/187/15 86/174/15 144/268/15
f 89/177/15 88/176/15 103/191/15 85/173/15
f 147/271/16 100/188/16 90/178/16 148/272/16
f 145/269/16 146/270/16 102/190/16 98/186/16
f 149/273/3 150/274/3 92/180/3 91/179/3
f 101/189/3 152/276/3 151/275/3 97/185/3
f 144/268/17 86/174/17 155/279/17 156/280/17
f 154/278/17 153/277/17 88/176/17 89/177/17
f 147/271/18 148/272/18 156/280/18 155/279/18
f 146/270/18 145/269/18 153/277/18 154/278/18
f 50/70/5 6/6/5 57/91/5
f 6/6/5 17/18/5 57/91/5
f 25/34/5 5/5/5 58/94/5
f 5/5/5 49/67/5 58/94/5
f 59/97/5 57/91/5 17/18/5
f 25/34/5 58/94/5 63/109/5
f 25/34/5 63/109/5 62/106/5
f 60/100/5 59/97/5 17/18/5
f 25/34/5 62/106/5 61/103/5
f 61/103/5 60/100/5 17/18/5
f 56/88/3 10/10/3 79/157/3
f 10/10/3 21/26/3 79/157/3
f 27/38/3 9/9/3 78/154/3
f 9/9/3 55/85/3 78/154/3
f 80/160/3 79/157/3 21/26/3
f 27/38/3 78/154/3 81/163/3
f 27/38/3 81/163/3 82/166/3
f 84/172/3 80/160/3 21/26/3
f 27/38/3 82/166/3 83/169/3
f 83/169/3 84/172/3 21/26/3
f 108/197/2 12/12/2 124/229/2
f 12/12/2 23/30/2 124/229/2
f 28/40/2 11/11/2 125/231/2
f 11/11/2 109/199/2 125/231/2
f 123/227/2 124/229/2 23/30/2
f 28/40/2 125/231/2 128/237/2
f 28/40/2 128/237/2 129/239/2
f 126/233/2 123/227/2 23/30/2
f 28/40/2 129/239/2 127/235/2
f 127/235/2 126/233/2 23/30/2
f 139/259/4 115/211/4 8/8/4
f 26/36/4 7/7/4 137/255/4
f 7/7/4 114/209/4 137/255/4
f 139/259/4 8/8/4 19/22/4
f 138/257/4 139/259/4 19/22/4
f 26/36/4 137/255/4 140/261/4
f 26/36/4 140/261/4 141/263/4
f 143/267/4 138/257/4 19/22/4
f 26/36/4 141/263/4 142/265/4
f 142/265/4 143/267/4 19/22/4
f 54/82/5 13/13/5 65/115/5
f 13/13/5 30/44/5 65/115/5
f 32/48/5 15/15/5 66/118/5
f 15/15/5 53/79/5 66/118/5
f 64/112/5 65/115/5 30/44/5
f 32/48/5 66/118/5 69/127/5
f 32/48/5 69/127/5 70/130/5
f 67/121/5 64/112/5 30/44/5
f 32/48/5 70/130/5 68/124/5
f 68/124/5 67/121/5 30/44/5
f 73/139/3 52/76/3 16/16/3
f 29/42/3 14/14/3 71/133/3
f 14/14/3 51/73/3 71/133/3
f 73/139/3 16/16/3 31/46/3
f 72/136/3 73/139/3 31/46/3
f 29/42/3 71/133/3 74/142/3
f 29/42/3 74/142/3 75/145/3
f 77/151/3 72/136/3 31/46/3
f 29/42/3 75/145/3 76/148/3
f 76/148/3 77/151/3 31/46/3
f 112/205/2 15/15/2 116/213/2
f 15/15/2 32/48/2 116/213/2
f 31/46/2 16/16/2 117/215/2
f 16/16/2 113/207/2 117/215/2
f 118/217/2 116/213/2 32/48/2
f 31/46/2 117/215/2 122/225/2
f 31/46/2 122/225/2 121/223/2
f 119/219/2 118/217/2 32/48/2
f 31/46/2 121/223/2 120/221/2
f 120/221/2 119/219/2 32/48/2
f 111/203/4 14/14/4 131/243/4
f 14/14/4 29/42/4 131/243/4
f 30/44/4 13/13/4 130/241/4
f 13/13/4 110/201/4 130/241/4
f 132/245/4 131/243/4 29/42/4
f 30/44/4 130/241/4 133/247/4
f 30/44/4 133/247/4 134/249/4
f 136/253/4 132/245/4 29/42/4
f 30/44/4 134/249/4 135/251/4
f 135/251/4 136/253/4 29/42/4
