# Blender 3.4.1
# www.blender.org
mtllib Farm.mtl
o Farm
v -0.842787 0.000000 0.829758
v -0.842787 0.000000 -0.829758
v 0.842787 0.000000 0.829758
v 0.842787 0.000000 -0.829758
v -0.842787 0.000000 0.719124
v -0.842787 0.000000 0.608489
v -0.842787 0.000000 0.497855
v -0.842787 0.000000 0.387220
v -0.842787 0.000000 0.276586
v -0.842787 0.000000 0.165952
v -0.842787 0.000000 0.055317
v -0.842787 0.000000 -0.055317
v -0.842787 0.000000 -0.165952
v -0.842787 0.000000 -0.276586
v -0.842787 0.000000 -0.387220
v -0.842787 0.000000 -0.497855
v -0.842787 0.000000 -0.608489
v -0.842787 0.000000 -0.719124
v 0.842787 0.000000 0.719124
v 0.842787 0.000000 0.608489
v 0.842787 0.000000 0.497855
v 0.842787 0.000000 0.387220
v 0.842787 0.000000 0.276586
v 0.842787 0.000000 0.165952
v 0.842787 0.000000 0.055317
v 0.842787 0.000000 -0.055317
v 0.842787 0.000000 -0.165952
v 0.842787 0.000000 -0.276586
v 0.842787 0.000000 -0.387220
v 0.842787 0.000000 -0.497855
v 0.842787 0.000000 -0.608489
v 0.842787 0.000000 -0.719124
v 1.000000 0.000000 -1.000000
v -1.000000 0.000000 -1.000000
v 1.000000 0.000000 1.000000
v -1.000000 0.000000 1.000000
v 0.842787 0.000000 -1.000000
v -0.842787 0.000000 -1.000000
v 1.000000 0.000000 0.829758
v 1.000000 0.000000 -0.829758
v -0.842787 0.000000 1.000000
v 0.842787 0.000000 1.000000
v -1.000000 0.000000 -0.829758
v -1.000000 0.000000 0.829758
v -0.842787 0.000000 0.829758
v -0.842787 0.000000 -0.829758
v 0.842787 0.000000 0.829758
v 0.842787 0.000000 -0.829758
v -0.842787 0.129188 -1.000000
v -1.000000 0.129188 -1.000000
v 1.000000 0.129188 -0.829758
v 1.000000 0.129188 -1.000000
v 0.842787 0.129188 1.000000
v 1.000000 0.129188 1.000000
v -1.000000 0.129188 0.829758
v -1.000000 0.129188 1.000000
v 0.842787 0.129188 -1.000000
v 1.000000 0.129188 0.829758
v -0.842787 0.129188 1.000000
v -1.000000 0.129188 -0.829758
v -0.842787 0.129188 -0.829758
v -0.842787 0.129188 0.829758
v 0.842787 0.129188 -0.829758
v 0.842787 0.129188 0.829758
vn -0.0000 1.0000 -0.0000
vn -0.0000 -0.0000 1.0000
vn 1.0000 -0.0000 -0.0000
vn -0.0000 -0.0000 -1.0000
vn -1.0000 -0.0000 -0.0000
vt 0.155490 0.603353
vt 0.155490 0.603353
vt 0.155490 0.603353
vt 0.155490 0.603353
vt 0.155490 0.603353
vt 0.157951 0.854353
vt 0.157951 0.854353
vt 0.155490 0.603353
vt 0.155490 0.603353
vt 0.157951 0.854353
vt 0.157951 0.854353
vt 0.155490 0.603353
vt 0.155490 0.603353
vt 0.157951 0.854353
vt 0.157951 0.854353
vt 0.155490 0.603353
vt 0.155490 0.603353
vt 0.157951 0.854353
vt 0.157951 0.854353
vt 0.155490 0.603353
vt 0.155490 0.603353
vt 0.157951 0.854353
vt 0.157951 0.854353
vt 0.155490 0.603353
vt 0.155490 0.603353
vt 0.157951 0.854353
vt 0.157951 0.854353
vt 0.155490 0.603353
vt 0.155490 0.603353
vt 0.157951 0.854353
vt 0.155490 0.603353
vt 0.157951 0.854353
vt 0.155490 0.603353
vt 0.157951 0.854353
vt 0.157951 0.854353
vt 0.155490 0.603353
vt 0.155490 0.603353
vt 0.157951 0.854353
vt 0.157951 0.854353
vt 0.155490 0.603353
vt 0.155490 0.603353
vt 0.157951 0.854353
vt 0.157951 0.854353
vt 0.155490 0.603353
vt 0.155490 0.603353
vt 0.157951 0.854353
vt 0.157951 0.854353
vt 0.155490 0.603353
vt 0.155490 0.603353
vt 0.157951 0.854353
vt 0.157951 0.854353
vt 0.155490 0.603353
vt 0.155490 0.603353
vt 0.157951 0.854353
vt 0.157951 0.854353
vt 0.155490 0.603353
vt 0.155490 0.603353
vt 0.157951 0.854353
vt 0.155490 0.603353
vt 0.157951 0.854353
vt 0.617887 0.355814
vt 0.617887 0.355814
vt 0.617887 0.355814
vt 0.617887 0.355814
vt 0.617887 0.355814
vt 0.617887 0.355814
vt 0.617887 0.355814
vt 0.617887 0.355814
vt 0.617887 0.355814
vt 0.617887 0.355814
vt 0.617887 0.355814
vt 0.617887 0.355814
vt 0.617887 0.355814
vt 0.617887 0.355814
vt 0.617887 0.355814
vt 0.617887 0.355814
vt 0.617887 0.355814
vt 0.617887 0.355814
vt 0.617887 0.355814
vt 0.617887 0.355814
vt 0.617887 0.355814
vt 0.617887 0.355814
vt 0.617887 0.355814
vt 0.617887 0.355814
vt 0.617887 0.355814
vt 0.617887 0.355814
vt 0.617887 0.355814
vt 0.617887 0.355814
vt 0.617887 0.355814
vt 0.617887 0.355814
vt 0.617887 0.355814
vt 0.617887 0.355814
s 0
usemtl Material
f 18/31/1 32/59/1 4/4/1 2/2/1
f 1/1/1 3/3/1 19/33/1 5/5/1
f 5/6/1 19/34/1 20/35/1 6/7/1
f 6/8/1 20/36/1 21/37/1 7/9/1
f 7/10/1 21/38/1 22/39/1 8/11/1
f 8/12/1 22/40/1 23/41/1 9/13/1
f 9/14/1 23/42/1 24/43/1 10/15/1
f 10/16/1 24/44/1 25/45/1 11/17/1
f 11/18/1 25/46/1 26/47/1 12/19/1
f 12/20/1 26/48/1 27/49/1 13/21/1
f 13/22/1 27/50/1 28/51/1 14/23/1
f 14/24/1 28/52/1 29/53/1 15/25/1
f 15/26/1 29/54/1 30/55/1 16/27/1
f 16/28/1 30/56/1 31/57/1 17/29/1
f 17/30/1 31/58/1 32/60/1 18/32/1
f 46/74/2 48/76/2 63/91/2 61/89/2
f 35/63/3 39/67/3 58/86/3 54/82/3
f 47/75/4 45/73/4 62/90/4 64/92/4
f 37/65/4 38/66/4 49/77/4 57/85/4
f 33/61/4 37/65/4 57/85/4 52/80/4
f 43/71/5 44/72/5 55/83/5 60/88/5
f 44/72/5 36/64/5 56/84/5 55/83/5
f 34/62/5 43/71/5 60/88/5 50/78/5
f 63/91/1 51/79/1 52/80/1 57/85/1
f 60/88/1 61/89/1 49/77/1 50/78/1
f 61/89/1 63/91/1 57/85/1 49/77/1
f 56/84/1 59/87/1 62/90/1 55/83/1
f 55/83/1 62/90/1 61/89/1 60/88/1
f 59/87/1 53/81/1 64/92/1 62/90/1
f 53/81/1 54/82/1 58/86/1 64/92/1
f 64/92/1 58/86/1 51/79/1 63/91/1
f 45/73/3 46/74/3 61/89/3 62/90/3
f 39/67/3 40/68/3 51/79/3 58/86/3
f 38/66/4 34/62/4 50/78/4 49/77/4
f 36/64/2 41/69/2 59/87/2 56/84/2
f 40/68/3 33/61/3 52/80/3 51/79/3
f 41/69/2 42/70/2 53/81/2 59/87/2
f 42/70/2 35/63/2 54/82/2 53/81/2
f 48/76/5 47/75/5 64/92/5 63/91/5
