# Blender 3.5.0
# www.blender.org
mtllib Flag03.mtl
o Flag03
v -0.100000 0.000000 0.100000
v -0.100000 2.000000 0.100000
v -0.100000 0.000000 -0.100000
v -0.100000 2.000000 -0.100000
v 0.100000 0.000000 0.100000
v 0.100000 2.000000 0.100000
v 0.100000 0.000000 -0.100000
v 0.100000 2.000000 -0.100000
v -0.100000 4.281923 0.100000
v -0.100000 4.281923 -0.100000
v 0.100000 4.281923 0.100000
v 0.100000 4.281923 -0.100000
v 0.100000 2.000000 2.025753
v -0.100000 2.000000 2.025753
v 0.100000 4.281923 2.025753
v -0.100000 4.281923 2.025753
v 0.100000 2.000000 2.025753
v -0.100000 2.000000 2.025753
v 0.100000 4.281923 2.025753
v -0.100000 4.281923 2.025753
v -0.100000 2.325989 2.025753
v -0.100000 2.651978 2.025753
v -0.100000 2.977967 2.025753
v -0.100000 3.303956 2.025753
v -0.100000 3.629945 2.025753
v -0.100000 3.955934 2.025753
v 0.100000 2.325989 2.025753
v 0.100000 2.651978 2.025753
v 0.100000 2.977967 2.025753
v 0.100000 3.303956 2.025753
v 0.100000 3.629945 2.025753
v 0.100000 3.955934 2.025753
v 0.100000 2.000000 2.608800
v -0.100000 2.000000 2.608800
v 0.100000 4.281923 2.608800
v -0.100000 4.281923 2.608800
v -0.100000 3.955934 2.608800
v 0.100000 3.955934 2.608800
v -0.100000 2.325989 2.608800
v -0.100000 2.651978 2.608800
v -0.100000 2.977967 2.608800
v -0.100000 3.303956 2.608800
v -0.100000 3.629945 2.608800
v 0.100000 2.325989 2.608800
v 0.100000 2.651978 2.608800
v 0.100000 2.977967 2.608800
v 0.100000 3.303956 2.608800
v 0.100000 3.629945 2.608800
v -0.100000 4.281923 0.485151
v -0.100000 4.281923 0.870301
v -0.100000 4.281923 1.255452
v -0.100000 4.281923 1.640603
v 0.100000 4.281923 1.640603
v 0.100000 4.281923 1.255452
v 0.100000 4.281923 0.870301
v 0.100000 4.281923 0.485151
v 0.100000 2.000000 0.485151
v 0.100000 2.000000 0.870301
v 0.100000 2.000000 1.255452
v 0.100000 2.000000 1.640603
v -0.100000 2.000000 1.640603
v -0.100000 2.000000 1.255452
v -0.100000 2.000000 0.870301
v -0.100000 2.000000 0.485151
v 0.100000 3.955934 2.317276
v -0.100000 3.955934 2.317276
v -0.100000 4.281923 2.317276
v 0.100000 4.281923 2.317276
v 0.100000 3.303956 2.317276
v -0.100000 3.303956 2.317276
v -0.100000 3.629945 2.317276
v 0.100000 3.629945 2.317276
v 0.100000 2.977967 2.317276
v 0.100000 2.651978 2.317276
v -0.100000 2.651978 2.317276
v -0.100000 2.977967 2.317276
v -0.100000 2.000000 2.317276
v -0.100000 2.325989 2.317276
v 0.100000 2.000000 2.317276
v 0.100000 2.325989 2.317276
v 0.100000 2.000000 2.906344
v -0.100000 2.000000 2.906344
v 0.100000 4.281923 2.906344
v -0.100000 4.281923 2.906344
v -0.100000 3.955934 2.906344
v 0.100000 3.955934 2.906344
v -0.100000 2.325989 2.906344
v -0.100000 2.651978 2.906344
v -0.100000 2.977967 2.906344
v -0.100000 3.303956 2.906344
v -0.100000 3.629945 2.906344
v 0.100000 2.325989 2.906344
v 0.100000 2.651978 2.906344
v 0.100000 2.977967 2.906344
v 0.100000 3.303956 2.906344
v 0.100000 3.629945 2.906344
vn -1.0000 -0.0000 -0.0000
vn -0.0000 -0.0000 -1.0000
vn 1.0000 -0.0000 -0.0000
vn -0.0000 -0.0000 1.0000
vn -0.0000 -1.0000 -0.0000
vn -0.0000 1.0000 -0.0000
vt 0.369579 0.863696
vt 0.369579 0.863696
vt 0.363676 0.627961
vt 0.369579 0.863696
vt 0.369579 0.863696
vt 0.369579 0.863696
vt 0.369579 0.863696
vt 0.363676 0.627961
vt 0.369579 0.863696
vt 0.369579 0.863696
vt 0.369579 0.863696
vt 0.363676 0.627961
vt 0.369579 0.863696
vt 0.369579 0.863696
vt 0.363676 0.627961
vt 0.369579 0.863696
vt 0.363676 0.627961
vt 0.363676 0.627961
vt 0.363676 0.627961
vt 0.363676 0.627961
vt 0.363676 0.627961
vt 0.363676 0.627961
vt 0.363676 0.627961
vt 0.363676 0.627961
vt 0.363676 0.627961
vt 0.363676 0.627961
vt 0.363676 0.627961
vt 0.363676 0.627961
vt 0.363676 0.627961
vt 0.363676 0.627961
vt 0.363676 0.627961
vt 0.363676 0.627961
vt 0.363676 0.627961
vt 0.363676 0.627961
vt 0.363676 0.627961
vt 0.363676 0.627961
vt 0.363676 0.627961
vt 0.363676 0.627961
vt 0.363676 0.627961
vt 0.363676 0.627961
vt 0.363676 0.627961
vt 0.363676 0.627961
vt 0.363676 0.627961
vt 0.363676 0.627961
vt 0.363676 0.627961
vt 0.363676 0.627961
vt 0.363676 0.627961
vt 0.363676 0.627961
vt 0.363676 0.627961
vt 0.363676 0.627961
vt 0.363676 0.627961
vt 0.363676 0.627961
vt 0.363677 0.627961
vt 0.363676 0.627961
vt 0.363676 0.627961
vt 0.363676 0.627961
vt 0.363677 0.627961
vt 0.363676 0.627961
vt 0.363676 0.627961
vt 0.363676 0.627961
vt 0.363677 0.627961
vt 0.363676 0.627961
vt 0.363676 0.627961
vt 0.363676 0.627961
vt 0.363677 0.627961
vt 0.363676 0.627961
vt 0.363676 0.627961
vt 0.363676 0.627961
vt 0.363676 0.627961
vt 0.363676 0.627961
vt 0.363676 0.627961
vt 0.363676 0.627961
vt 0.363676 0.627961
vt 0.363676 0.627961
vt 0.363676 0.627961
vt 0.363676 0.627961
vt 0.363676 0.627961
vt 0.363676 0.627961
vt 0.363676 0.627961
vt 0.363676 0.627961
vt 0.363676 0.627961
vt 0.363676 0.627961
vt 0.363676 0.627961
vt 0.363676 0.627961
vt 0.363676 0.627961
vt 0.363676 0.627961
vt 0.363676 0.627961
vt 0.363676 0.627961
vt 0.363676 0.627961
vt 0.363676 0.627961
vt 0.363676 0.627961
vt 0.363676 0.627961
vt 0.363676 0.627961
vt 0.363676 0.627961
vt 0.363676 0.627961
vt 0.363676 0.627961
vt 0.363676 0.627961
vt 0.363676 0.627961
vt 0.363676 0.627961
vt 0.363676 0.627961
s 0
usemtl Pole
f 1/1/1 2/2/1 4/5/1 3/4/1
f 3/4/2 4/5/2 8/10/2 7/9/2
f 7/9/3 8/10/3 6/7/3 5/6/3
f 5/6/4 6/7/4 2/2/4 1/1/4
f 3/4/5 7/9/5 5/6/5 1/1/5
f 4/5/1 2/2/1 9/11/1 10/13/1
f 12/16/6 10/13/6 9/11/6 11/14/6
f 8/10/2 4/5/2 10/13/2 12/16/2
f 6/7/3 8/10/3 12/16/3 11/14/3
usemtl Flag
f 53/57/6 52/56/6 16/20/6 15/19/6
f 14/18/4 13/17/4 15/19/4 16/20/4
f 61/65/5 60/64/5 13/17/5 14/18/5
f 60/64/3 53/57/3 15/19/3 13/17/3
f 52/56/1 61/65/1 14/18/1 16/20/1
f 72/76/6 71/75/6 43/47/6 48/52/6
f 74/78/3 73/77/3 46/50/3 45/49/3
f 21/25/4 27/31/4 28/32/4 22/26/4
f 70/74/5 69/73/5 47/51/5 42/46/5
f 23/27/4 29/33/4 30/34/4 24/28/4
f 78/82/1 77/81/1 34/38/1 39/43/1
f 25/29/4 31/35/4 32/36/4 26/30/4
f 76/80/1 75/79/1 40/44/1 41/45/1
f 66/70/5 65/69/5 38/42/5 37/41/5
f 69/73/3 72/76/3 48/52/3 47/51/3
f 77/81/5 79/83/5 33/37/5 34/38/5
f 71/75/1 70/74/1 42/46/1 43/47/1
f 68/72/6 67/71/6 36/40/6 35/39/6
f 80/84/6 78/82/6 39/43/6 44/48/6
f 67/71/1 66/70/1 37/41/1 36/40/1
f 75/79/5 74/78/5 45/49/5 40/44/5
f 79/83/3 80/84/3 44/48/3 33/37/3
f 65/69/3 68/72/3 35/39/3 38/42/3
f 73/77/6 76/80/6 41/45/6 46/50/6
f 9/12/1 2/3/1 64/68/1 49/53/1
f 49/53/1 64/68/1 63/67/1 50/54/1
f 50/54/1 63/67/1 62/66/1 51/55/1
f 51/55/1 62/66/1 61/65/1 52/56/1
f 6/8/3 11/15/3 56/60/3 57/61/3
f 57/61/3 56/60/3 55/59/3 58/62/3
f 58/62/3 55/59/3 54/58/3 59/63/3
f 59/63/3 54/58/3 53/57/3 60/64/3
f 2/3/5 6/8/5 57/61/5 64/68/5
f 64/68/5 57/61/5 58/62/5 63/67/5
f 63/67/5 58/62/5 59/63/5 62/66/5
f 62/66/5 59/63/5 60/64/5 61/65/5
f 11/15/6 9/12/6 49/53/6 56/60/6
f 56/60/6 49/53/6 50/54/6 55/59/6
f 55/59/6 50/54/6 51/55/6 54/58/6
f 54/58/6 51/55/6 52/56/6 53/57/6
f 32/36/3 19/23/3 68/72/3 65/69/3
f 20/24/1 26/30/1 66/70/1 67/71/1
f 19/23/6 20/24/6 67/71/6 68/72/6
f 26/30/5 32/36/5 65/69/5 66/70/5
f 25/29/1 24/28/1 70/74/1 71/75/1
f 30/34/3 31/35/3 72/76/3 69/73/3
f 24/28/5 30/34/5 69/73/5 70/74/5
f 31/35/6 25/29/6 71/75/6 72/76/6
f 29/33/6 23/27/6 76/80/6 73/77/6
f 22/26/5 28/32/5 74/78/5 75/79/5
f 23/27/1 22/26/1 75/79/1 76/80/1
f 28/32/3 29/33/3 73/77/3 74/78/3
f 17/21/3 27/31/3 80/84/3 79/83/3
f 27/31/6 21/25/6 78/82/6 80/84/6
f 18/22/5 17/21/5 79/83/5 77/81/5
f 21/25/1 18/22/1 77/81/1 78/82/1
f 44/48/6 39/43/6 87/91/6 92/96/6
f 36/40/1 37/41/1 85/89/1 84/88/1
f 47/51/3 48/52/3 96/100/3 95/99/3
f 35/39/6 36/40/6 84/88/6 83/87/6
f 89/93/4 88/92/4 93/97/4 94/98/4
f 91/95/4 90/94/4 95/99/4 96/100/4
f 84/88/4 85/89/4 86/90/4 83/87/4
f 82/86/4 81/85/4 92/96/4 87/91/4
f 38/42/3 35/39/3 83/87/3 86/90/3
f 40/44/5 45/49/5 93/97/5 88/92/5
f 39/43/1 34/38/1 82/86/1 87/91/1
f 46/50/6 41/45/6 89/93/6 94/98/6
f 41/45/1 40/44/1 88/92/1 89/93/1
f 42/46/5 47/51/5 95/99/5 90/94/5
f 43/47/1 42/46/1 90/94/1 91/95/1
f 48/52/6 43/47/6 91/95/6 96/100/6
f 33/37/3 44/48/3 92/96/3 81/85/3
f 34/38/5 33/37/5 81/85/5 82/86/5
f 37/41/5 38/42/5 86/90/5 85/89/5
f 45/49/3 46/50/3 94/98/3 93/97/3
