# Blender 3.4.1
# www.blender.org
mtllib House01.mtl
o House01
v 0.386986 0.422750 -0.193493
v 0.386986 0.000000 -0.193493
v 0.386986 0.422750 0.193493
v 0.386986 0.000000 0.193493
v -0.386986 0.422750 -0.193493
v -0.386986 0.000000 -0.193493
v -0.386986 0.422750 0.193493
v -0.386986 0.000000 0.193493
v 0.264053 0.604066 0.000000
v -0.264053 0.604066 0.000000
v -0.812556 0.194943 -0.089226
v -0.812556 0.000000 -0.089226
v -0.812556 0.194943 0.089226
v -0.812556 0.000000 0.089226
v -1.169458 0.194943 -0.089226
v -1.169458 0.000000 -0.089226
v -1.169458 0.194943 0.089226
v -1.169458 0.000000 0.089226
v -0.869244 0.278553 0.000000
v -1.112770 0.278553 0.000000
v 1.200614 0.291522 -0.133430
v 1.200614 0.000000 -0.133430
v 1.200614 0.291522 0.133430
v 1.200614 0.000000 0.133430
v 0.666894 0.291522 -0.133430
v 0.666894 0.000000 -0.133430
v 0.666894 0.291522 0.133430
v 0.666894 0.000000 0.133430
v 1.115841 0.416555 0.000000
v 0.751667 0.416555 0.000000
v -0.105005 0.230855 0.371136
v -0.105005 0.000000 0.371136
v -0.105005 0.230855 0.582461
v -0.105005 0.000000 0.582461
v -0.527656 0.230855 0.371136
v -0.527656 0.000000 0.371136
v -0.527656 0.230855 0.582461
v -0.527656 0.000000 0.582461
v -0.172137 0.329868 0.476798
v -0.460525 0.329868 0.476798
v 0.865193 0.283328 0.534668
v 0.865193 0.000000 0.534668
v 0.865193 0.283328 0.794027
v 0.865193 0.000000 0.794027
v 0.346475 0.283328 0.534668
v 0.346475 0.000000 0.534668
v 0.346475 0.283328 0.794027
v 0.346475 0.000000 0.794027
v 0.782803 0.404847 0.664347
v 0.428865 0.404847 0.664347
v 0.739237 0.325738 -0.777984
v 0.739237 0.000000 -0.777984
v 0.739237 0.325738 -0.479802
v 0.739237 0.000000 -0.479802
v 0.142874 0.325738 -0.777984
v 0.142874 0.000000 -0.777984
v 0.142874 0.325738 -0.479802
v 0.142874 0.000000 -0.479802
v 0.644514 0.465446 -0.628893
v 0.237596 0.465446 -0.628893
vn -0.8277 0.5612 -0.0000
vn -0.0000 -0.0000 1.0000
vn -1.0000 -0.0000 -0.0000
vn 1.0000 -0.0000 -0.0000
vn -0.0000 -0.0000 -1.0000
vn 0.8277 0.5612 -0.0000
vn -0.0000 0.7297 -0.6838
vn -0.0000 0.7297 0.6838
vt 0.820312 0.859375
vt 0.398438 0.433594
vt 0.820312 0.859375
vt 0.820312 0.859375
vt 0.398438 0.433594
vt 0.820312 0.859375
vt 0.820312 0.859375
vt 0.398438 0.433594
vt 0.820312 0.859375
vt 0.820312 0.859375
vt 0.398438 0.433594
vt 0.820312 0.859375
vt 0.398438 0.433594
vt 0.398438 0.433594
vt 0.820312 0.859375
vt 0.398438 0.433594
vt 0.820312 0.859375
vt 0.820312 0.859375
vt 0.398438 0.433594
vt 0.820312 0.859375
vt 0.820312 0.859375
vt 0.398438 0.433594
vt 0.820312 0.859375
vt 0.820312 0.859375
vt 0.398438 0.433594
vt 0.820312 0.859375
vt 0.398438 0.433594
vt 0.398438 0.433594
vt 0.820312 0.859375
vt 0.398438 0.433594
vt 0.820312 0.859375
vt 0.820312 0.859375
vt 0.398438 0.433594
vt 0.820312 0.859375
vt 0.820312 0.859375
vt 0.398438 0.433594
vt 0.820312 0.859375
vt 0.820312 0.859375
vt 0.398438 0.433594
vt 0.820312 0.859375
vt 0.398438 0.433594
vt 0.398438 0.433594
vt 0.820312 0.859375
vt 0.398438 0.433594
vt 0.820312 0.859375
vt 0.820312 0.859375
vt 0.398438 0.433594
vt 0.820312 0.859375
vt 0.820312 0.859375
vt 0.398438 0.433594
vt 0.820312 0.859375
vt 0.820312 0.859375
vt 0.398438 0.433594
vt 0.820312 0.859375
vt 0.398438 0.433594
vt 0.398438 0.433594
vt 0.820312 0.859375
vt 0.398438 0.433594
vt 0.820312 0.859375
vt 0.820312 0.859375
vt 0.398438 0.433594
vt 0.820312 0.859375
vt 0.820312 0.859375
vt 0.398438 0.433594
vt 0.820312 0.859375
vt 0.820312 0.859375
vt 0.398438 0.433594
vt 0.820312 0.859375
vt 0.398438 0.433594
vt 0.398438 0.433594
vt 0.820312 0.859375
vt 0.398438 0.433594
vt 0.820312 0.859375
vt 0.820312 0.859375
vt 0.398438 0.433594
vt 0.820312 0.859375
vt 0.820312 0.859375
vt 0.398438 0.433594
vt 0.820312 0.859375
vt 0.820312 0.859375
vt 0.398438 0.433594
vt 0.820312 0.859375
vt 0.398438 0.433594
vt 0.398438 0.433594
s 0
usemtl Material
f 5/8/1 7/11/1 10/14/1
f 4/6/2 3/4/2 7/10/2 8/12/2
f 8/12/3 7/10/3 5/7/3 6/9/3
f 2/3/4 1/1/4 3/4/4 4/6/4
f 6/9/5 5/7/5 1/1/5 2/3/5
f 3/5/6 1/2/6 9/13/6
f 1/2/7 5/8/7 10/14/7 9/13/7
f 7/11/8 3/5/8 9/13/8 10/14/8
f 15/22/1 17/25/1 20/28/1
f 14/20/2 13/18/2 17/24/2 18/26/2
f 18/26/3 17/24/3 15/21/3 16/23/3
f 12/17/4 11/15/4 13/18/4 14/20/4
f 16/23/5 15/21/5 11/15/5 12/17/5
f 13/19/6 11/16/6 19/27/6
f 11/16/7 15/22/7 20/28/7 19/27/7
f 17/25/8 13/19/8 19/27/8 20/28/8
f 25/36/1 27/39/1 30/42/1
f 24/34/2 23/32/2 27/38/2 28/40/2
f 28/40/3 27/38/3 25/35/3 26/37/3
f 22/31/4 21/29/4 23/32/4 24/34/4
f 26/37/5 25/35/5 21/29/5 22/31/5
f 23/33/6 21/30/6 29/41/6
f 21/30/7 25/36/7 30/42/7 29/41/7
f 27/39/8 23/33/8 29/41/8 30/42/8
f 35/50/1 37/53/1 40/56/1
f 34/48/2 33/46/2 37/52/2 38/54/2
f 38/54/3 37/52/3 35/49/3 36/51/3
f 32/45/4 31/43/4 33/46/4 34/48/4
f 36/51/5 35/49/5 31/43/5 32/45/5
f 33/47/6 31/44/6 39/55/6
f 31/44/7 35/50/7 40/56/7 39/55/7
f 37/53/8 33/47/8 39/55/8 40/56/8
f 45/64/1 47/67/1 50/70/1
f 44/62/2 43/60/2 47/66/2 48/68/2
f 48/68/3 47/66/3 45/63/3 46/65/3
f 42/59/4 41/57/4 43/60/4 44/62/4
f 46/65/5 45/63/5 41/57/5 42/59/5
f 43/61/6 41/58/6 49/69/6
f 41/58/7 45/64/7 50/70/7 49/69/7
f 47/67/8 43/61/8 49/69/8 50/70/8
f 55/78/1 57/81/1 60/84/1
f 54/76/2 53/74/2 57/80/2 58/82/2
f 58/82/3 57/80/3 55/77/3 56/79/3
f 52/73/4 51/71/4 53/74/4 54/76/4
f 56/79/5 55/77/5 51/71/5 52/73/5
f 53/75/6 51/72/6 59/83/6
f 51/72/7 55/78/7 60/84/7 59/83/7
f 57/81/8 53/75/8 59/83/8 60/84/8
