# Blender 3.4.1
# www.blender.org
mtllib House03.mtl
o House03
v 0.607942 1.488924 -0.311622
v 0.874030 0.000000 -0.448015
v 0.607942 1.488924 0.311622
v 0.874030 -0.000000 0.448015
v -0.607942 1.488924 -0.311622
v -0.874030 0.000000 -0.448015
v -0.607942 1.488924 0.311622
v -0.874030 -0.000000 0.448015
v -0.766099 2.033629 0.376640
v -0.377529 2.321560 0.080312
v -0.766099 2.033629 -0.376640
v -0.377529 2.321560 -0.080312
v 0.766099 2.033629 0.376640
v 0.377529 2.321560 0.080312
v 0.766099 2.033629 -0.376640
v 0.377529 2.321560 -0.080312
v -0.443406 2.466376 0.094326
v -0.443406 2.466376 -0.094326
v 0.443406 2.466376 0.094326
v 0.443406 2.466376 -0.094326
v -0.123253 -0.000000 0.448015
v -0.123253 0.316680 0.419006
v 0.111659 0.316680 0.419006
v 0.111659 -0.000000 0.448015
v -0.123253 0.000000 -0.448015
v -0.123253 0.316680 -0.419005
v 0.111659 0.316680 -0.419005
v 0.111659 0.000000 -0.448015
v -0.123253 0.000000 -0.448015
v -0.123253 0.316680 -0.419005
v 0.159354 -0.001573 0.485927
v -0.159354 0.331633 0.455209
v -0.159354 0.331633 0.485927
v 0.159354 -0.001573 0.455209
v 0.159354 0.331633 0.485927
v -0.159354 -0.001573 0.455209
v -0.159354 -0.001573 0.485927
v 0.159354 0.331633 0.455209
vn -0.0000 1.0000 -0.0000
vn -0.9844 0.1759 -0.0000
vn 0.9844 0.1759 -0.0000
vn -0.5954 0.8035 -0.0000
vn -0.0000 0.7172 -0.6969
vn 0.5954 0.8035 -0.0000
vn -0.0000 0.7172 0.6969
vn 0.9102 -0.4141 -0.0000
vn -0.0000 -0.0963 -0.9954
vn -0.9102 -0.4141 -0.0000
vn -0.0000 -0.0963 0.9954
vn -0.0000 0.0912 0.9958
vn -0.0000 0.0912 -0.9958
vn -0.0000 -0.0000 -1.0000
vn -0.0000 -1.0000 -0.0000
vn -1.0000 -0.0000 -0.0000
vn 1.0000 -0.0000 -0.0000
vn -0.0000 -0.0000 1.0000
vt 0.390625 0.625000
vt 0.390625 0.625000
vt 0.390625 0.625000
vt 0.390625 0.625000
vt 0.390625 0.625000
vt 0.390625 0.625000
vt 0.390625 0.625000
vt 0.390625 0.625000
vt 0.390625 0.375000
vt 0.390625 0.375000
vt 0.390625 0.375000
vt 0.390625 0.375000
vt 0.390625 0.375000
vt 0.390625 0.375000
vt 0.390625 0.375000
vt 0.390625 0.375000
vt 0.390625 0.375000
vt 0.390625 0.375000
vt 0.390625 0.375000
vt 0.390625 0.375000
vt 0.390625 0.625000
vt 0.390625 0.625000
vt 0.390625 0.625000
vt 0.390625 0.625000
vt 0.390625 0.625000
vt 0.390625 0.625000
vt 0.390625 0.625000
vt 0.390625 0.625000
vt 0.398438 0.847656
vt 0.398438 0.847656
vt 0.398438 0.847656
vt 0.398438 0.847656
vt 0.398438 0.847656
vt 0.398438 0.847656
vt 0.398438 0.847656
vt 0.398438 0.847656
s 0
usemtl Material.001
f 1/1/1 5/5/1 7/7/1 3/3/1
f 8/8/2 7/7/2 5/5/2 6/6/2
f 20/20/1 18/18/1 17/17/1 19/19/1
f 2/2/3 1/1/3 3/3/3 4/4/3
f 9/9/4 10/10/4 12/12/4 11/11/4
f 11/11/5 12/12/5 16/16/5 15/15/5
f 15/15/6 16/16/6 14/14/6 13/13/6
f 13/13/7 14/14/7 10/10/7 9/9/7
f 14/14/8 16/16/8 20/20/8 19/19/8
f 16/16/9 12/12/9 18/18/9 20/20/9
f 12/12/10 10/10/10 17/17/10 18/18/10
f 10/10/11 14/14/11 19/19/11 17/17/11
f 4/4/12 3/3/12 7/7/12 8/8/12 21/21/12 22/22/12 23/23/12 24/24/12
f 6/6/13 5/5/13 1/1/13 2/2/13 28/28/13 27/27/13 26/26/13 25/25/13
f 36/34/14 32/30/14 38/36/14 34/32/14
f 36/34/15 34/32/15 31/29/15 37/35/15
f 37/35/16 33/31/16 32/30/16 36/34/16
f 34/32/17 38/36/17 35/33/17 31/29/17
f 31/29/18 35/33/18 33/31/18 37/35/18
f 38/36/1 32/30/1 33/31/1 35/33/1
l 30 29
