# Blender 3.4.1
# www.blender.org
mtllib Pool01.mtl
o Pool01
v 0.066030 0.052541 -1.148567
v -0.563024 0.052541 -0.908062
v -0.620907 0.052541 -0.185211
v -0.769474 0.052541 0.350286
v -0.480487 0.052541 0.784256
v 0.099045 0.052541 0.950478
v 0.678576 0.052541 0.701718
v 1.066609 0.052541 0.185211
v 1.149146 0.052541 -0.432823
v 0.736353 0.052541 -0.858539
v 0.071403 0.008276 -1.064898
v -0.509472 0.008276 -0.842812
v -0.562921 0.008276 -0.175324
v -0.700110 0.008276 0.319159
v -0.433256 0.008276 0.719891
v 0.101890 0.008276 0.873382
v 0.637035 0.008276 0.643675
v 0.995348 0.008276 0.166727
v 1.071564 0.008276 -0.403972
v 0.690386 0.008276 -0.797083
v 0.056360 0.052541 -1.299148
v -0.659402 0.052541 -1.025492
v -0.725263 0.052541 -0.203004
v -0.894309 0.052541 0.406305
v -0.565488 0.052541 0.900093
v 0.093925 0.052541 1.089226
v 0.753339 0.052541 0.806178
v 1.194857 0.052541 0.218476
v 1.288771 0.052541 -0.484747
v 0.819079 0.052541 -0.969143
v 0.048225 -0.057318 -1.425811
v -0.740472 -0.057318 -1.124269
v -0.813045 -0.057318 -0.217971
v -0.999316 -0.057318 0.453426
v -0.636988 -0.057318 0.997531
v 0.089619 -0.057318 1.205937
v 0.816226 -0.057318 0.894047
v 1.302735 -0.057318 0.246458
v 1.406219 -0.057318 -0.528423
v 0.888665 -0.057318 -1.062179
vn 0.4231 0.8612 -0.2818
vn 0.1728 0.8752 0.4519
vn -0.5135 0.8553 -0.0686
vn 0.1403 0.8609 -0.4891
vn 0.6009 0.7979 0.0481
vn -0.3621 0.8635 0.3511
vn -0.2114 0.8442 -0.4925
vn 0.5813 0.7975 0.1613
vn -0.2025 0.8602 0.4681
vn -0.4358 0.8384 -0.3274
vn -0.0000 1.0000 -0.0000
vn 0.6984 0.7096 0.0933
vn -0.1919 0.7182 0.6689
vn -0.7756 0.6282 -0.0621
vn 0.4965 0.7222 -0.4815
vn 0.2844 0.6928 0.6626
vn -0.7501 0.6277 -0.2081
vn 0.2768 0.7171 -0.6397
vn 0.5831 0.6842 0.4381
vn -0.5788 0.7186 0.3855
vn -0.2398 0.7410 -0.6273
vt 0.666584 0.381348
vt 0.666584 0.381348
vt 0.666584 0.381348
vt 0.666584 0.381348
vt 0.666584 0.381348
vt 0.666584 0.381348
vt 0.666584 0.381348
vt 0.666584 0.381348
vt 0.666584 0.381348
vt 0.666584 0.381348
vt 0.666584 0.381348
vt 0.666584 0.381348
vt 0.666584 0.381348
vt 0.666584 0.381348
vt 0.666584 0.381348
vt 0.666584 0.381348
vt 0.666584 0.381348
vt 0.666584 0.381348
vt 0.666584 0.381348
vt 0.666584 0.381348
vt 0.666584 0.381348
vt 0.666584 0.381348
vt 0.666584 0.381348
vt 0.666584 0.381348
vt 0.666584 0.381348
vt 0.666584 0.381348
vt 0.666584 0.381348
vt 0.666584 0.381348
vt 0.666584 0.381348
vt 0.666584 0.381348
vt 0.666584 0.381348
vt 0.666584 0.381348
vt 0.666584 0.381348
vt 0.666584 0.381348
vt 0.666584 0.381348
vt 0.666584 0.381348
vt 0.666584 0.381348
vt 0.666584 0.381348
vt 0.666584 0.381348
vt 0.666584 0.381348
s 0
usemtl Material
f 5/5/1 15/15/1 14/14/1 4/4/1
f 2/2/2 12/12/2 11/11/2 1/1/2
f 9/9/3 19/19/3 18/18/3 8/8/3
f 6/6/4 16/16/4 15/15/4 5/5/4
f 3/3/5 13/13/5 12/12/5 2/2/5
f 10/10/6 20/20/6 19/19/6 9/9/6
f 7/7/7 17/17/7 16/16/7 6/6/7
f 4/4/8 14/14/8 13/13/8 3/3/8
f 1/1/9 11/11/9 20/20/9 10/10/9
f 8/8/10 18/18/10 17/17/10 7/7/10
f 4/4/11 24/24/11 25/25/11 5/5/11
f 1/1/11 21/21/11 22/22/11 2/2/11
f 8/8/11 28/28/11 29/29/11 9/9/11
f 5/5/11 25/25/11 26/26/11 6/6/11
f 2/2/11 22/22/11 23/23/11 3/3/11
f 9/9/11 29/29/11 30/30/11 10/10/11
f 6/6/11 26/26/11 27/27/11 7/7/11
f 3/3/11 23/23/11 24/24/11 4/4/11
f 10/10/11 30/30/11 21/21/11 1/1/11
f 7/7/11 27/27/11 28/28/11 8/8/11
f 28/28/12 38/38/12 39/39/12 29/29/12
f 25/25/13 35/35/13 36/36/13 26/26/13
f 22/22/14 32/32/14 33/33/14 23/23/14
f 29/29/15 39/39/15 40/40/15 30/30/15
f 26/26/16 36/36/16 37/37/16 27/27/16
f 23/23/17 33/33/17 34/34/17 24/24/17
f 30/30/18 40/40/18 31/31/18 21/21/18
f 27/27/19 37/37/19 38/38/19 28/28/19
f 24/24/20 34/34/20 35/35/20 25/25/20
f 21/21/21 31/31/21 32/32/21 22/22/21
o Water01
v 0.071403 0.008276 -1.064898
v -0.509472 0.008276 -0.842812
v -0.562921 0.008276 -0.175324
v -0.700110 0.008276 0.319159
v -0.433256 0.008276 0.719891
v 0.101890 0.008276 0.873382
v 0.637035 0.008276 0.643675
v 0.995348 0.008276 0.166727
v 1.071564 0.008276 -0.403972
v 0.690386 0.008276 -0.797083
vn -0.0000 1.0000 -0.0000
vt 0.325541 0.127116
vt 0.325541 0.127116
vt 0.325541 0.127116
vt 0.325541 0.127116
vt 0.325541 0.127116
vt 0.325541 0.127116
vt 0.325541 0.127116
vt 0.325541 0.127116
vt 0.325541 0.127116
vt 0.325541 0.127116
s 0
usemtl Material
f 41/41/22 42/42/22 43/43/22 44/44/22 45/45/22 46/46/22 47/47/22 48/48/22 49/49/22 50/50/22
