# Blender 3.4.1
# www.blender.org
mtllib Road01.mtl
o Road01
v -0.545547 0.000000 10.000000
v 0.545547 0.000000 10.000000
v -0.545547 0.000000 -10.000000
v 0.545547 0.000000 -10.000000
v 0.500000 0.000000 -0.500000
v -0.500000 0.000000 -0.500000
v 0.500000 0.000000 0.500000
v -0.500000 0.000000 0.500000
v 10.000000 0.000000 -0.500000
v -10.000000 0.000000 -0.500000
v 10.000000 0.000000 0.500000
v -10.000000 0.000000 0.500000
vn -0.0000 1.0000 -0.0000
vt 0.609375 0.328125
vt 0.609375 0.328125
vt 0.609375 0.328125
vt 0.609375 0.328125
vt 0.609375 0.328125
vt 0.609375 0.328125
vt 0.609375 0.328125
vt 0.609375 0.328125
vt 0.609375 0.328125
vt 0.609375 0.328125
vt 0.609375 0.328125
vt 0.609375 0.328125
s 0
usemtl Material
f 8/8/1 7/7/1 5/5/1 6/6/1
f 7/7/1 8/8/1 1/1/1 2/2/1
f 6/6/1 5/5/1 4/4/1 3/3/1
f 5/5/1 7/7/1 11/11/1 9/9/1
f 8/8/1 6/6/1 10/10/1 12/12/1
