# Blender 3.4.1
# www.blender.org
mtllib Tower01.mtl
o Tower01
v 0.000000 0.000000 -1.000000
v -0.707107 0.000000 -0.707107
v -1.000000 0.000000 0.000000
v -0.707107 0.000000 0.707107
v 0.000000 0.000000 1.000000
v 0.707107 0.000000 0.707107
v 1.000000 0.000000 0.000000
v 0.707107 0.000000 -0.707107
v 0.000000 1.092957 -1.000000
v -0.707107 1.092957 -0.707107
v -1.000000 1.092957 0.000000
v -0.707107 1.092957 0.707107
v 0.000000 1.092957 1.000000
v 0.707107 1.092957 0.707107
v 1.000000 1.092957 0.000000
v 0.707107 1.092957 -0.707107
v 0.000000 1.092957 -1.598769
v -1.130500 1.092957 -1.130500
v -1.598769 1.092957 0.000000
v -1.130500 1.092957 1.130500
v 0.000000 1.092957 1.598769
v 1.130500 1.092957 1.130500
v 1.598769 1.092957 0.000000
v 1.130500 1.092957 -1.130500
v 0.000000 1.583385 -0.800000
v -0.565685 1.583385 -0.565685
v -0.800000 1.583385 -0.000000
v -0.565685 1.583385 0.565685
v 0.000000 1.583385 0.800000
v 0.565685 1.583385 0.565685
v 0.800000 1.583385 -0.000000
v 0.565685 1.583385 -0.565685
v 0.000000 2.457750 -0.800000
v -0.565685 2.457750 -0.565685
v -0.800000 2.457750 -0.000000
v -0.565685 2.457750 0.565685
v 0.000000 2.457750 0.800000
v 0.565685 2.457750 0.565685
v 0.800000 2.457750 -0.000000
v 0.565685 2.457750 -0.565685
v 0.000000 2.457750 -1.279015
v -0.904400 2.457750 -0.904400
v -1.279015 2.457750 -0.000000
v -0.904400 2.457750 0.904400
v 0.000000 2.457750 1.279015
v 0.904400 2.457750 0.904400
v 1.279015 2.457750 -0.000000
v 0.904400 2.457750 -0.904400
v -0.000000 2.847608 -0.640000
v -0.452548 2.847608 -0.452548
v -0.640000 2.847608 -0.000000
v -0.452548 2.847608 0.452548
v -0.000000 2.847608 0.640000
v 0.452548 2.847608 0.452548
v 0.640000 2.847608 -0.000000
v 0.452548 2.847608 -0.452548
v -0.000000 3.547100 -0.640000
v -0.452548 3.547100 -0.452548
v -0.640000 3.547100 -0.000000
v -0.452548 3.547100 0.452548
v -0.000000 3.547100 0.640000
v 0.452548 3.547100 0.452548
v 0.640000 3.547100 -0.000000
v 0.452548 3.547100 -0.452548
v 0.000000 3.547100 -1.023212
v -0.723520 3.547100 -0.723520
v -1.023212 3.547100 -0.000000
v -0.723520 3.547100 0.723520
v 0.000000 3.547100 1.023212
v 0.723520 3.547100 0.723520
v 1.023212 3.547100 -0.000000
v 0.723520 3.547100 -0.723520
v 0.000000 3.860600 -0.512000
v -0.362039 3.860600 -0.362039
v -0.512000 3.860600 -0.000000
v -0.362039 3.860600 0.362039
v 0.000000 3.860600 0.512000
v 0.362039 3.860600 0.362039
v 0.512000 3.860600 -0.000000
v 0.362039 3.860600 -0.362039
v 0.000000 4.420194 -0.512000
v -0.362039 4.420194 -0.362039
v -0.512000 4.420194 -0.000000
v -0.362039 4.420194 0.362039
v 0.000000 4.420194 0.512000
v 0.362039 4.420194 0.362039
v 0.512000 4.420194 -0.000000
v 0.362039 4.420194 -0.362039
v 0.000000 4.420194 -0.818570
v -0.578816 4.420194 -0.578816
v -0.818570 4.420194 -0.000000
v -0.578816 4.420194 0.578816
v 0.000000 4.420194 0.818570
v 0.578816 4.420194 0.578816
v 0.818570 4.420194 -0.000000
v 0.578816 4.420194 -0.578816
v -0.000000 4.669727 -0.502639
v -0.355420 4.669727 -0.355420
v -0.502639 4.669727 -0.000000
v -0.355420 4.669727 0.355420
v -0.000000 4.669727 0.502639
v 0.355420 4.669727 0.355420
v 0.502639 4.669727 -0.000000
v 0.355420 4.669727 -0.355420
v -0.000000 5.027056 -0.136232
v -0.096330 5.027056 -0.096330
v -0.136232 5.027056 -0.000000
v -0.096330 5.027056 0.096330
v -0.000000 5.027056 0.136232
v 0.096330 5.027056 0.096330
v 0.136232 5.027056 -0.000000
v 0.096330 5.027056 -0.096330
v -0.000000 5.563245 -0.055870
v -0.039506 5.563245 -0.039506
v -0.055870 5.563245 -0.000000
v -0.039506 5.563245 0.039506
v -0.000000 5.563245 0.055870
v 0.039506 5.563245 0.039506
v 0.055870 5.563245 -0.000000
v 0.039506 5.563245 -0.039506
v -0.000000 5.679842 -0.103377
v -0.073098 5.679842 -0.073098
v -0.103377 5.679842 -0.000000
v -0.073098 5.679842 0.073098
v -0.000000 5.679842 0.103377
v 0.073098 5.679842 0.073098
v 0.103377 5.679842 -0.000000
v 0.073098 5.679842 -0.073098
v -0.000000 5.810179 -0.143160
v -0.101230 5.810179 -0.101230
v -0.143160 5.810179 -0.000000
v -0.101230 5.810179 0.101230
v -0.000000 5.810179 0.143160
v 0.101230 5.810179 0.101230
v 0.143160 5.810179 -0.000000
v 0.101230 5.810179 -0.101230
v -0.000000 6.016547 -0.143160
v -0.101230 6.016547 -0.101230
v -0.143160 6.016547 -0.000000
v -0.101230 6.016547 0.101230
v -0.000000 6.016547 0.143160
v 0.101230 6.016547 0.101230
v 0.143160 6.016547 -0.000000
v 0.101230 6.016547 -0.101230
vn -0.3827 -0.0000 -0.9239
vn 0.3827 -0.0000 -0.9239
vn 0.9239 -0.0000 0.3827
vn -0.3827 -0.0000 0.9239
vn -0.9239 -0.0000 -0.3827
vn 0.9239 -0.0000 -0.3827
vn 0.3827 -0.0000 0.9239
vn -0.9239 -0.0000 0.3827
vn -0.0000 -1.0000 -0.0000
vn -0.5114 0.8329 0.2118
vn -0.2118 0.8329 -0.5114
vn 0.2118 0.8329 -0.5114
vn 0.5114 0.8329 0.2118
vn -0.2118 0.8329 0.5114
vn -0.5114 0.8329 -0.2118
vn 0.5114 0.8329 -0.2118
vn 0.2118 0.8329 0.5114
vn -0.5091 0.8345 0.2109
vn -0.2109 0.8345 -0.5091
vn 0.2109 0.8345 -0.5091
vn 0.5091 0.8345 0.2109
vn -0.2109 0.8345 0.5091
vn -0.5091 0.8345 -0.2109
vn 0.5091 0.8345 -0.2109
vn 0.2109 0.8345 0.5091
vn -0.5109 0.8332 0.2116
vn -0.2116 0.8332 -0.5109
vn 0.2116 0.8332 -0.5109
vn 0.5109 0.8332 0.2116
vn -0.2116 0.8332 0.5109
vn -0.5109 0.8332 -0.2116
vn 0.5109 0.8332 -0.2116
vn 0.2116 0.8332 0.5109
vn -0.6003 0.7601 0.2487
vn -0.2487 0.7601 -0.6003
vn 0.2487 0.7601 -0.6003
vn 0.6003 0.7601 0.2487
vn -0.2487 0.7601 0.6003
vn -0.6003 0.7601 -0.2487
vn 0.6003 0.7601 -0.2487
vn 0.2487 0.7601 0.6003
vn -0.2778 0.6877 -0.6707
vn 0.2778 0.6877 -0.6707
vn 0.6707 0.6877 0.2778
vn -0.2778 0.6877 0.6707
vn -0.6707 0.6877 -0.2778
vn 0.6707 0.6877 -0.2778
vn 0.2778 0.6877 0.6707
vn -0.6707 0.6877 0.2778
vn 0.9151 0.1372 0.3791
vn -0.3791 0.1372 0.9151
vn -0.9151 0.1372 -0.3791
vn 0.9151 0.1372 -0.3791
vn 0.3791 0.1372 0.9151
vn -0.9151 0.1372 0.3791
vn -0.3791 0.1372 -0.9151
vn 0.3791 0.1372 -0.9151
vn -0.3582 -0.3523 -0.8646
vn 0.3582 -0.3523 -0.8646
vn 0.8647 -0.3523 0.3581
vn -0.3582 -0.3523 0.8646
vn -0.8647 -0.3523 -0.3581
vn 0.8647 -0.3523 -0.3581
vn 0.3582 -0.3523 0.8646
vn -0.8647 -0.3523 0.3581
vn 0.8892 -0.2714 -0.3683
vn 0.3683 -0.2714 0.8892
vn -0.8892 -0.2714 0.3683
vn -0.3683 -0.2714 -0.8892
vn 0.3683 -0.2714 -0.8892
vn 0.8892 -0.2714 0.3683
vn -0.3683 -0.2714 0.8892
vn -0.8892 -0.2714 -0.3683
vn -0.0000 1.0000 -0.0000
vt 0.620117 0.329745
vt 0.620117 0.329745
vt 0.620117 0.329745
vt 0.620117 0.329745
vt 0.620117 0.329745
vt 0.620117 0.329745
vt 0.620117 0.329745
vt 0.620117 0.329745
vt 0.620117 0.329745
vt 0.620117 0.329745
vt 0.620117 0.329745
vt 0.620117 0.329745
vt 0.620117 0.329745
vt 0.620117 0.329745
vt 0.620117 0.329745
vt 0.620117 0.329745
vt 0.620117 0.329745
vt 0.664411 0.083667
vt 0.620117 0.329745
vt 0.664411 0.083667
vt 0.620117 0.329745
vt 0.664411 0.083667
vt 0.620117 0.329745
vt 0.664411 0.083667
vt 0.620117 0.329745
vt 0.664411 0.083667
vt 0.620117 0.329745
vt 0.664411 0.083667
vt 0.620117 0.329745
vt 0.664411 0.083667
vt 0.620117 0.329745
vt 0.664411 0.083667
vt 0.664411 0.083667
vt 0.620117 0.329745
vt 0.664411 0.083667
vt 0.620117 0.329745
vt 0.664411 0.083667
vt 0.620117 0.329745
vt 0.664411 0.083667
vt 0.620117 0.329745
vt 0.664411 0.083667
vt 0.620117 0.329745
vt 0.664411 0.083667
vt 0.620117 0.329745
vt 0.664411 0.083667
vt 0.620117 0.329745
vt 0.664411 0.083667
vt 0.620117 0.329745
vt 0.620117 0.329745
vt 0.620117 0.329745
vt 0.620117 0.329745
vt 0.620117 0.329745
vt 0.620117 0.329745
vt 0.620117 0.329745
vt 0.620117 0.329745
vt 0.620117 0.329745
vt 0.620117 0.329745
vt 0.664411 0.083667
vt 0.620117 0.329745
vt 0.664411 0.083667
vt 0.620117 0.329745
vt 0.664411 0.083667
vt 0.620117 0.329745
vt 0.664411 0.083667
vt 0.620117 0.329745
vt 0.664411 0.083667
vt 0.620117 0.329745
vt 0.664411 0.083667
vt 0.620117 0.329745
vt 0.664411 0.083667
vt 0.620117 0.329745
vt 0.664411 0.083667
vt 0.664411 0.083667
vt 0.620117 0.329745
vt 0.664411 0.083667
vt 0.620117 0.329745
vt 0.664411 0.083667
vt 0.620117 0.329745
vt 0.664411 0.083667
vt 0.620117 0.329745
vt 0.664411 0.083667
vt 0.620117 0.329745
vt 0.664411 0.083667
vt 0.620117 0.329745
vt 0.664411 0.083667
vt 0.620117 0.329745
vt 0.664411 0.083667
vt 0.620117 0.329745
vt 0.620117 0.329745
vt 0.620117 0.329745
vt 0.620117 0.329745
vt 0.620117 0.329745
vt 0.620117 0.329745
vt 0.664411 0.083667
vt 0.620117 0.329745
vt 0.664411 0.083667
vt 0.620117 0.329745
vt 0.620117 0.329745
vt 0.620117 0.329745
vt 0.664411 0.083667
vt 0.620117 0.329745
vt 0.664411 0.083667
vt 0.620117 0.329745
vt 0.664411 0.083667
vt 0.620117 0.329745
vt 0.664411 0.083667
vt 0.620117 0.329745
vt 0.664411 0.083667
vt 0.620117 0.329745
vt 0.664411 0.083667
vt 0.620117 0.329745
vt 0.664411 0.083667
vt 0.620117 0.329745
vt 0.664411 0.083667
vt 0.664411 0.083667
vt 0.620117 0.329745
vt 0.664411 0.083667
vt 0.620117 0.329745
vt 0.664411 0.083667
vt 0.620117 0.329745
vt 0.664411 0.083667
vt 0.620117 0.329745
vt 0.664411 0.083667
vt 0.620117 0.329745
vt 0.664411 0.083667
vt 0.620117 0.329745
vt 0.664411 0.083667
vt 0.620117 0.329745
vt 0.664411 0.083667
vt 0.620117 0.329745
vt 0.620117 0.329745
vt 0.620117 0.329745
vt 0.620117 0.329745
vt 0.620117 0.329745
vt 0.620117 0.329745
vt 0.620117 0.329745
vt 0.620117 0.329745
vt 0.620117 0.329745
vt 0.620117 0.329745
vt 0.664411 0.083667
vt 0.620117 0.329745
vt 0.664411 0.083667
vt 0.620117 0.329745
vt 0.664411 0.083667
vt 0.620117 0.329745
vt 0.664411 0.083667
vt 0.620117 0.329745
vt 0.664411 0.083667
vt 0.620117 0.329745
vt 0.664411 0.083667
vt 0.620117 0.329745
vt 0.664411 0.083667
vt 0.620117 0.329745
vt 0.664411 0.083667
vt 0.664411 0.083667
vt 0.664411 0.083667
vt 0.664411 0.083667
vt 0.664411 0.083667
vt 0.664411 0.083667
vt 0.664411 0.083667
vt 0.664411 0.083667
vt 0.664411 0.083667
vt 0.664411 0.083667
vt 0.664411 0.083667
vt 0.664411 0.083667
vt 0.664411 0.083667
vt 0.664411 0.083667
vt 0.664411 0.083667
vt 0.664411 0.083667
vt 0.664411 0.083667
vt 0.664411 0.083667
vt 0.664411 0.083667
vt 0.664411 0.083667
vt 0.664411 0.083667
vt 0.664411 0.083667
vt 0.664411 0.083667
vt 0.664411 0.083667
vt 0.664411 0.083667
vt 0.664411 0.083667
vt 0.664411 0.083667
vt 0.664411 0.083667
vt 0.664411 0.083667
vt 0.664411 0.083667
vt 0.664411 0.083667
vt 0.664411 0.083667
vt 0.664411 0.083667
vt 0.664411 0.083667
vt 0.664411 0.083667
vt 0.664411 0.083667
vt 0.664411 0.083667
vt 0.664411 0.083667
vt 0.664411 0.083667
vt 0.664411 0.083667
vt 0.664411 0.083667
vt 0.664411 0.083667
vt 0.664411 0.083667
vt 0.664411 0.083667
vt 0.664411 0.083667
vt 0.664411 0.083667
vt 0.664411 0.083667
vt 0.664411 0.083667
vt 0.664411 0.083667
s 0
usemtl Material
f 2/2/1 10/10/1 9/9/1 1/1/1
f 1/1/2 9/9/2 16/16/2 8/8/2
f 7/7/3 15/15/3 14/14/3 6/6/3
f 5/5/4 13/13/4 12/12/4 4/4/4
f 3/3/5 11/11/5 10/10/5 2/2/5
f 8/8/6 16/16/6 15/15/6 7/7/6
f 6/6/7 14/14/7 13/13/7 5/5/7
f 4/4/8 12/12/8 11/11/8 3/3/8
f 9/9/9 17/17/9 24/31/9 16/16/9
f 15/15/9 23/29/9 22/27/9 14/14/9
f 13/13/9 21/25/9 20/23/9 12/12/9
f 11/11/9 19/21/9 18/19/9 10/10/9
f 16/16/9 24/31/9 23/29/9 15/15/9
f 14/14/9 22/27/9 21/25/9 13/13/9
f 12/12/9 20/23/9 19/21/9 11/11/9
f 10/10/9 18/19/9 17/17/9 9/9/9
f 20/24/10 28/39/10 27/37/10 19/22/10
f 18/20/11 26/35/11 25/33/11 17/18/11
f 17/18/12 25/33/12 32/47/12 24/32/12
f 23/30/13 31/45/13 30/43/13 22/28/13
f 21/26/14 29/41/14 28/39/14 20/24/14
f 19/22/15 27/37/15 26/35/15 18/20/15
f 24/32/16 32/47/16 31/45/16 23/30/16
f 22/28/17 30/43/17 29/41/17 21/26/17
f 26/36/1 34/50/1 33/49/1 25/34/1
f 25/34/2 33/49/2 40/56/2 32/48/2
f 31/46/3 39/55/3 38/54/3 30/44/3
f 29/42/4 37/53/4 36/52/4 28/40/4
f 27/38/5 35/51/5 34/50/5 26/36/5
f 32/48/6 40/56/6 39/55/6 31/46/6
f 30/44/7 38/54/7 37/53/7 29/42/7
f 28/40/8 36/52/8 35/51/8 27/38/8
f 33/49/9 41/57/9 48/71/9 40/56/9
f 39/55/9 47/69/9 46/67/9 38/54/9
f 37/53/9 45/65/9 44/63/9 36/52/9
f 35/51/9 43/61/9 42/59/9 34/50/9
f 40/56/9 48/71/9 47/69/9 39/55/9
f 38/54/9 46/67/9 45/65/9 37/53/9
f 36/52/9 44/63/9 43/61/9 35/51/9
f 34/50/9 42/59/9 41/57/9 33/49/9
f 44/64/18 52/79/18 51/77/18 43/62/18
f 42/60/19 50/75/19 49/73/19 41/58/19
f 41/58/20 49/73/20 56/87/20 48/72/20
f 47/70/21 55/85/21 54/83/21 46/68/21
f 45/66/22 53/81/22 52/79/22 44/64/22
f 43/62/23 51/77/23 50/75/23 42/60/23
f 48/72/24 56/87/24 55/85/24 47/70/24
f 46/68/25 54/83/25 53/81/25 45/66/25
f 50/76/1 58/90/1 57/89/1 49/74/1
f 49/74/2 57/89/2 64/98/2 56/88/2
f 55/86/3 63/97/3 62/95/3 54/84/3
f 53/82/4 61/93/4 60/92/4 52/80/4
f 51/78/5 59/91/5 58/90/5 50/76/5
f 56/88/6 64/98/6 63/97/6 55/86/6
f 54/84/7 62/95/7 61/93/7 53/82/7
f 52/80/8 60/92/8 59/91/8 51/78/8
f 57/89/9 65/99/9 72/113/9 64/98/9
f 63/96/9 71/112/9 70/110/9 62/94/9
f 61/93/9 69/107/9 68/105/9 60/92/9
f 59/91/9 67/103/9 66/101/9 58/90/9
f 64/98/9 72/113/9 71/111/9 63/97/9
f 62/95/9 70/109/9 69/107/9 61/93/9
f 60/92/9 68/105/9 67/103/9 59/91/9
f 58/90/9 66/101/9 65/99/9 57/89/9
f 68/106/26 76/121/26 75/119/26 67/104/26
f 66/102/27 74/117/27 73/115/27 65/100/27
f 65/100/28 73/115/28 80/129/28 72/114/28
f 71/112/29 79/127/29 78/125/29 70/110/29
f 69/108/30 77/123/30 76/121/30 68/106/30
f 67/104/31 75/119/31 74/117/31 66/102/31
f 72/114/32 80/129/32 79/127/32 71/112/32
f 70/110/33 78/125/33 77/123/33 69/108/33
f 74/118/1 82/132/1 81/131/1 73/116/1
f 73/116/2 81/131/2 88/138/2 80/130/2
f 79/128/3 87/137/3 86/136/3 78/126/3
f 77/124/4 85/135/4 84/134/4 76/122/4
f 75/120/5 83/133/5 82/132/5 74/118/5
f 80/130/6 88/138/6 87/137/6 79/128/6
f 78/126/7 86/136/7 85/135/7 77/124/7
f 76/122/8 84/134/8 83/133/8 75/120/8
f 81/131/9 89/139/9 96/153/9 88/138/9
f 87/137/9 95/151/9 94/149/9 86/136/9
f 85/135/9 93/147/9 92/145/9 84/134/9
f 83/133/9 91/143/9 90/141/9 82/132/9
f 88/138/9 96/153/9 95/151/9 87/137/9
f 86/136/9 94/149/9 93/147/9 85/135/9
f 84/134/9 92/145/9 91/143/9 83/133/9
f 82/132/9 90/141/9 89/139/9 81/131/9
f 92/146/34 100/158/34 99/157/34 91/144/34
f 90/142/35 98/156/35 97/155/35 89/140/35
f 89/140/36 97/155/36 104/162/36 96/154/36
f 95/152/37 103/161/37 102/160/37 94/150/37
f 93/148/38 101/159/38 100/158/38 92/146/38
f 91/144/39 99/157/39 98/156/39 90/142/39
f 96/154/40 104/162/40 103/161/40 95/152/40
f 94/150/41 102/160/41 101/159/41 93/148/41
f 98/156/42 106/164/42 105/163/42 97/155/42
f 97/155/43 105/163/43 112/170/43 104/162/43
f 103/161/44 111/169/44 110/168/44 102/160/44
f 101/159/45 109/167/45 108/166/45 100/158/45
f 99/157/46 107/165/46 106/164/46 98/156/46
f 104/162/47 112/170/47 111/169/47 103/161/47
f 102/160/48 110/168/48 109/167/48 101/159/48
f 100/158/49 108/166/49 107/165/49 99/157/49
f 111/169/50 119/177/50 118/176/50 110/168/50
f 109/167/51 117/175/51 116/174/51 108/166/51
f 107/165/52 115/173/52 114/172/52 106/164/52
f 112/170/53 120/178/53 119/177/53 111/169/53
f 110/168/54 118/176/54 117/175/54 109/167/54
f 108/166/55 116/174/55 115/173/55 107/165/55
f 106/164/56 114/172/56 113/171/56 105/163/56
f 105/163/57 113/171/57 120/178/57 112/170/57
f 114/172/58 122/180/58 121/179/58 113/171/58
f 113/171/59 121/179/59 128/186/59 120/178/59
f 119/177/60 127/185/60 126/184/60 118/176/60
f 117/175/61 125/183/61 124/182/61 116/174/61
f 115/173/62 123/181/62 122/180/62 114/172/62
f 120/178/63 128/186/63 127/185/63 119/177/63
f 118/176/64 126/184/64 125/183/64 117/175/64
f 116/174/65 124/182/65 123/181/65 115/173/65
f 128/186/66 136/194/66 135/193/66 127/185/66
f 126/184/67 134/192/67 133/191/67 125/183/67
f 124/182/68 132/190/68 131/189/68 123/181/68
f 122/180/69 130/188/69 129/187/69 121/179/69
f 121/179/70 129/187/70 136/194/70 128/186/70
f 127/185/71 135/193/71 134/192/71 126/184/71
f 125/183/72 133/191/72 132/190/72 124/182/72
f 123/181/73 131/189/73 130/188/73 122/180/73
f 131/189/5 139/197/5 138/196/5 130/188/5
f 136/194/6 144/202/6 143/201/6 135/193/6
f 134/192/7 142/200/7 141/199/7 133/191/7
f 132/190/8 140/198/8 139/197/8 131/189/8
f 130/188/1 138/196/1 137/195/1 129/187/1
f 129/187/2 137/195/2 144/202/2 136/194/2
f 135/193/3 143/201/3 142/200/3 134/192/3
f 133/191/4 141/199/4 140/198/4 132/190/4
f 138/196/74 139/197/74 140/198/74 141/199/74 142/200/74 143/201/74 144/202/74 137/195/74
