# Blender 3.4.1
# www.blender.org
mtllib Tower01.mtl
o Tower01
v 0.000000 0.000000 -1.000000
v -0.707107 0.000000 -0.707107
v -1.000000 0.000000 0.000000
v -0.707107 0.000000 0.707107
v 0.000000 0.000000 1.000000
v 0.707107 0.000000 0.707107
v 1.000000 0.000000 0.000000
v 0.707107 0.000000 -0.707107
v 0.000000 1.092957 -1.000000
v -0.707107 1.092957 -0.707107
v -1.000000 1.092957 0.000000
v -0.707107 1.092957 0.707107
v 0.000000 1.092957 1.000000
v 0.707107 1.092957 0.707107
v 1.000000 1.092957 0.000000
v 0.707107 1.092957 -0.707107
v 0.000000 1.092957 -1.394379
v -0.985975 1.092957 -0.985975
v -1.394379 1.092957 -0.000000
v -0.985975 1.092957 0.985975
v 0.000000 1.092957 1.394379
v 0.985975 1.092957 0.985975
v 1.394379 1.092957 -0.000000
v 0.985975 1.092957 -0.985975
v 0.000000 1.583385 -0.800000
v -0.565685 1.583385 -0.565685
v -0.800000 1.583385 -0.000000
v -0.565685 1.583385 0.565685
v 0.000000 1.583385 0.800000
v 0.565685 1.583385 0.565685
v 0.800000 1.583385 -0.000000
v 0.565685 1.583385 -0.565685
v 0.000000 2.457750 -0.800000
v -0.565685 2.457750 -0.565685
v -0.800000 2.457750 -0.000000
v -0.565685 2.457750 0.565685
v 0.000000 2.457750 0.800000
v 0.565685 2.457750 0.565685
v 0.800000 2.457750 -0.000000
v 0.565685 2.457750 -0.565685
v 0.000000 2.457750 -1.115503
v -0.788780 2.457750 -0.788780
v -1.115503 2.457750 -0.000000
v -0.788780 2.457750 0.788780
v 0.000000 2.457750 1.115503
v 0.788780 2.457750 0.788780
v 1.115503 2.457750 -0.000000
v 0.788780 2.457750 -0.788780
v -0.000000 2.847608 -0.640000
v -0.452548 2.847608 -0.452548
v -0.640000 2.847608 -0.000000
v -0.452548 2.847608 0.452548
v -0.000000 2.847608 0.640000
v 0.452548 2.847608 0.452548
v 0.640000 2.847608 -0.000000
v 0.452548 2.847608 -0.452548
v -0.000000 3.547100 -0.640000
v -0.452548 3.547100 -0.452548
v -0.640000 3.547100 -0.000000
v -0.452548 3.547100 0.452548
v -0.000000 3.547100 0.640000
v 0.452548 3.547100 0.452548
v 0.640000 3.547100 -0.000000
v 0.452548 3.547100 -0.452548
v 0.000000 3.547100 -0.892403
v -0.631024 3.547100 -0.631024
v -0.892403 3.547100 -0.000000
v -0.631024 3.547100 0.631024
v 0.000000 3.547100 0.892403
v 0.631024 3.547100 0.631024
v 0.892403 3.547100 -0.000000
v 0.631024 3.547100 -0.631024
v 0.000000 3.860600 -0.512000
v -0.362039 3.860600 -0.362039
v -0.512000 3.860600 -0.000000
v -0.362039 3.860600 0.362039
v 0.000000 3.860600 0.512000
v 0.362039 3.860600 0.362039
v 0.512000 3.860600 -0.000000
v 0.362039 3.860600 -0.362039
v 0.000000 4.420194 -0.512000
v -0.362039 4.420194 -0.362039
v -0.512000 4.420194 -0.000000
v -0.362039 4.420194 0.362039
v 0.000000 4.420194 0.512000
v 0.362039 4.420194 0.362039
v 0.512000 4.420194 -0.000000
v 0.362039 4.420194 -0.362039
v 0.000000 4.420194 -0.713922
v -0.504819 4.420194 -0.504819
v -0.713922 4.420194 -0.000000
v -0.504819 4.420194 0.504819
v 0.000000 4.420194 0.713922
v 0.504819 4.420194 0.504819
v 0.713922 4.420194 -0.000000
v 0.504819 4.420194 -0.504819
v -0.000000 4.669727 -0.502639
v -0.355420 4.669727 -0.355420
v -0.502639 4.669727 -0.000000
v -0.355420 4.669727 0.355420
v -0.000000 4.669727 0.502639
v 0.355420 4.669727 0.355420
v 0.502639 4.669727 -0.000000
v 0.355420 4.669727 -0.355420
v -0.000000 5.027056 -0.136232
v -0.096330 5.027056 -0.096330
v -0.136232 5.027056 -0.000000
v -0.096330 5.027056 0.096330
v -0.000000 5.027056 0.136232
v 0.096330 5.027056 0.096330
v 0.136232 5.027056 -0.000000
v 0.096330 5.027056 -0.096330
v -0.000000 5.563245 -0.055870
v -0.039506 5.563245 -0.039506
v -0.055870 5.563245 -0.000000
v -0.039506 5.563245 0.039506
v -0.000000 5.563245 0.055870
v 0.039506 5.563245 0.039506
v 0.055870 5.563245 -0.000000
v 0.039506 5.563245 -0.039506
v -0.000000 5.664431 -0.123477
v -0.087311 5.664431 -0.087311
v -0.123477 5.664431 -0.000000
v -0.087311 5.664431 0.087311
v -0.000000 5.664431 0.123477
v 0.087311 5.664431 0.087311
v 0.123477 5.664431 -0.000000
v 0.087311 5.664431 -0.087311
v -0.000000 5.920351 -0.078152
v -0.055262 5.920351 -0.055262
v -0.078152 5.920351 -0.000000
v -0.055262 5.920351 0.055262
v -0.000000 5.920351 0.078152
v 0.055262 5.920351 0.055262
v 0.078152 5.920351 -0.000000
v 0.055262 5.920351 -0.055262
v 0.087311 5.853770 -0.087311
v 0.123477 5.853770 -0.000000
v 0.087311 5.853770 0.087311
v -0.000000 5.853770 0.123477
v -0.087311 5.853770 0.087311
v -0.123477 5.853770 -0.000000
v -0.087311 5.853770 -0.087311
v -0.000000 5.853770 -0.123477
vn -0.3827 -0.0000 -0.9239
vn 0.3827 -0.0000 -0.9239
vn 0.9239 -0.0000 0.3827
vn -0.3827 -0.0000 0.9239
vn -0.9239 -0.0000 -0.3827
vn 0.9239 -0.0000 -0.3827
vn 0.3827 -0.0000 0.9239
vn -0.9239 -0.0000 0.3827
vn -0.0000 -1.0000 -0.0000
vn -0.6154 0.7459 0.2549
vn -0.2549 0.7459 -0.6154
vn 0.2549 0.7459 -0.6154
vn 0.6154 0.7459 0.2549
vn -0.2549 0.7459 0.6154
vn -0.6154 0.7459 -0.2549
vn 0.6154 0.7459 -0.2549
vn 0.2549 0.7459 0.6154
vn -0.6132 0.7479 0.2540
vn -0.2540 0.7479 -0.6132
vn 0.2540 0.7479 -0.6132
vn 0.6132 0.7479 0.2540
vn -0.2540 0.7479 0.6132
vn -0.6132 0.7479 -0.2540
vn 0.6132 0.7479 -0.2540
vn 0.2540 0.7479 0.6132
vn -0.6150 0.7462 0.2547
vn -0.2547 0.7462 -0.6150
vn 0.2547 0.7462 -0.6150
vn 0.6150 0.7462 0.2547
vn -0.2547 0.7462 0.6150
vn -0.6150 0.7462 -0.2547
vn 0.6150 0.7462 -0.2547
vn 0.2547 0.7462 0.6150
vn -0.7277 0.6161 0.3014
vn -0.3014 0.6161 -0.7277
vn 0.3014 0.6161 -0.7277
vn 0.7277 0.6161 0.3014
vn -0.3014 0.6161 0.7277
vn -0.7277 0.6161 -0.3014
vn 0.7277 0.6161 -0.3014
vn 0.3014 0.6161 0.7277
vn -0.2778 0.6877 -0.6707
vn 0.2778 0.6877 -0.6707
vn 0.6707 0.6877 0.2778
vn -0.2778 0.6877 0.6707
vn -0.6707 0.6877 -0.2778
vn 0.6707 0.6877 -0.2778
vn 0.2778 0.6877 0.6707
vn -0.6707 0.6877 0.2778
vn 0.9151 0.1372 0.3791
vn -0.3791 0.1372 0.9151
vn -0.9151 0.1372 -0.3791
vn 0.9151 0.1372 -0.3791
vn 0.3791 0.1372 0.9151
vn -0.9151 0.1372 0.3791
vn -0.3791 0.1372 -0.9151
vn 0.3791 0.1372 -0.9151
vn -0.3256 -0.5253 -0.7862
vn 0.3256 -0.5253 -0.7862
vn 0.7862 -0.5253 0.3256
vn -0.3256 -0.5253 0.7862
vn -0.7862 -0.5253 -0.3256
vn 0.7862 -0.5253 -0.3256
vn 0.3256 -0.5253 0.7862
vn -0.7862 -0.5253 0.3256
vn 0.3239 0.5324 0.7821
vn -0.3239 0.5324 -0.7821
vn -0.3239 0.5324 0.7821
vn 0.7821 0.5324 -0.3239
vn -0.7821 0.5324 -0.3239
vn 0.3239 0.5324 -0.7821
vn 0.7821 0.5324 0.3239
vn -0.7821 0.5324 0.3239
vn -0.0000 1.0000 -0.0000
vt 0.620117 0.329745
vt 0.620117 0.329745
vt 0.620117 0.329745
vt 0.620117 0.329745
vt 0.620117 0.329745
vt 0.620117 0.329745
vt 0.620117 0.329745
vt 0.620117 0.329745
vt 0.620117 0.329745
vt 0.620117 0.329745
vt 0.620117 0.329745
vt 0.620117 0.329745
vt 0.620117 0.329745
vt 0.620117 0.329745
vt 0.620117 0.329745
vt 0.620117 0.329745
vt 0.620117 0.329745
vt 0.664411 0.083667
vt 0.620117 0.329745
vt 0.664411 0.083667
vt 0.620117 0.329745
vt 0.664411 0.083667
vt 0.620117 0.329745
vt 0.664411 0.083667
vt 0.620117 0.329745
vt 0.664411 0.083667
vt 0.620117 0.329745
vt 0.664411 0.083667
vt 0.620117 0.329745
vt 0.664411 0.083667
vt 0.620117 0.329745
vt 0.664411 0.083667
vt 0.664411 0.083667
vt 0.620117 0.329745
vt 0.664411 0.083667
vt 0.620117 0.329745
vt 0.664411 0.083667
vt 0.620117 0.329745
vt 0.664411 0.083667
vt 0.620117 0.329745
vt 0.664411 0.083667
vt 0.620117 0.329745
vt 0.664411 0.083667
vt 0.620117 0.329745
vt 0.664411 0.083667
vt 0.620117 0.329745
vt 0.664411 0.083667
vt 0.620117 0.329745
vt 0.620117 0.329745
vt 0.620117 0.329745
vt 0.620117 0.329745
vt 0.620117 0.329745
vt 0.620117 0.329745
vt 0.620117 0.329745
vt 0.620117 0.329745
vt 0.620117 0.329745
vt 0.620117 0.329745
vt 0.664411 0.083667
vt 0.620117 0.329745
vt 0.664411 0.083667
vt 0.620117 0.329745
vt 0.664411 0.083667
vt 0.620117 0.329745
vt 0.664411 0.083667
vt 0.620117 0.329745
vt 0.664411 0.083667
vt 0.620117 0.329745
vt 0.664411 0.083667
vt 0.620117 0.329745
vt 0.664411 0.083667
vt 0.620117 0.329745
vt 0.664411 0.083667
vt 0.664411 0.083667
vt 0.620117 0.329745
vt 0.664411 0.083667
vt 0.620117 0.329745
vt 0.664411 0.083667
vt 0.620117 0.329745
vt 0.664411 0.083667
vt 0.620117 0.329745
vt 0.664411 0.083667
vt 0.620117 0.329745
vt 0.664411 0.083667
vt 0.620117 0.329745
vt 0.664411 0.083667
vt 0.620117 0.329745
vt 0.664411 0.083667
vt 0.620117 0.329745
vt 0.620117 0.329745
vt 0.620117 0.329745
vt 0.620117 0.329745
vt 0.620117 0.329745
vt 0.620117 0.329745
vt 0.664411 0.083667
vt 0.620117 0.329745
vt 0.664411 0.083667
vt 0.620117 0.329745
vt 0.620117 0.329745
vt 0.620117 0.329745
vt 0.664411 0.083667
vt 0.620117 0.329745
vt 0.664411 0.083667
vt 0.620117 0.329745
vt 0.664411 0.083667
vt 0.620117 0.329745
vt 0.664411 0.083667
vt 0.620117 0.329745
vt 0.664411 0.083667
vt 0.620117 0.329745
vt 0.664411 0.083667
vt 0.620117 0.329745
vt 0.664411 0.083667
vt 0.620117 0.329745
vt 0.664411 0.083667
vt 0.664411 0.083667
vt 0.620117 0.329745
vt 0.664411 0.083667
vt 0.620117 0.329745
vt 0.664411 0.083667
vt 0.620117 0.329745
vt 0.664411 0.083667
vt 0.620117 0.329745
vt 0.664411 0.083667
vt 0.620117 0.329745
vt 0.664411 0.083667
vt 0.620117 0.329745
vt 0.664411 0.083667
vt 0.620117 0.329745
vt 0.664411 0.083667
vt 0.620117 0.329745
vt 0.620117 0.329745
vt 0.620117 0.329745
vt 0.620117 0.329745
vt 0.620117 0.329745
vt 0.620117 0.329745
vt 0.620117 0.329745
vt 0.620117 0.329745
vt 0.620117 0.329745
vt 0.620117 0.329745
vt 0.664411 0.083667
vt 0.620117 0.329745
vt 0.664411 0.083667
vt 0.620117 0.329745
vt 0.664411 0.083667
vt 0.620117 0.329745
vt 0.664411 0.083667
vt 0.620117 0.329745
vt 0.664411 0.083667
vt 0.620117 0.329745
vt 0.664411 0.083667
vt 0.620117 0.329745
vt 0.664411 0.083667
vt 0.620117 0.329745
vt 0.664411 0.083667
vt 0.664411 0.083667
vt 0.664411 0.083667
vt 0.664411 0.083667
vt 0.664411 0.083667
vt 0.664411 0.083667
vt 0.664411 0.083667
vt 0.664411 0.083667
vt 0.664411 0.083667
vt 0.664411 0.083667
vt 0.664411 0.083667
vt 0.664411 0.083667
vt 0.664411 0.083667
vt 0.664411 0.083667
vt 0.664411 0.083667
vt 0.664411 0.083667
vt 0.664411 0.083667
vt 0.664411 0.083667
vt 0.408490 0.605353
vt 0.664411 0.083667
vt 0.408490 0.605353
vt 0.664411 0.083667
vt 0.408490 0.605353
vt 0.664411 0.083667
vt 0.408490 0.605353
vt 0.664411 0.083667
vt 0.408490 0.605353
vt 0.664411 0.083667
vt 0.408490 0.605353
vt 0.664411 0.083667
vt 0.408490 0.605353
vt 0.664411 0.083667
vt 0.408490 0.605353
vt 0.408490 0.605353
vt 0.408490 0.605353
vt 0.408490 0.605353
vt 0.408490 0.605353
vt 0.408490 0.605353
vt 0.408490 0.605353
vt 0.408490 0.605353
vt 0.408490 0.605353
vt 0.408490 0.605353
vt 0.408490 0.605353
vt 0.408490 0.605353
vt 0.408490 0.605353
vt 0.408490 0.605353
vt 0.408490 0.605353
vt 0.408490 0.605353
vt 0.408490 0.605353
vt 0.408490 0.605353
vt 0.408490 0.605353
vt 0.408490 0.605353
vt 0.408490 0.605353
vt 0.408490 0.605353
vt 0.408490 0.605353
vt 0.408490 0.605353
vt 0.408490 0.605353
s 0
usemtl Material
f 2/2/1 10/10/1 9/9/1 1/1/1
f 1/1/2 9/9/2 16/16/2 8/8/2
f 7/7/3 15/15/3 14/14/3 6/6/3
f 5/5/4 13/13/4 12/12/4 4/4/4
f 3/3/5 11/11/5 10/10/5 2/2/5
f 8/8/6 16/16/6 15/15/6 7/7/6
f 6/6/7 14/14/7 13/13/7 5/5/7
f 4/4/8 12/12/8 11/11/8 3/3/8
f 9/9/9 17/17/9 24/31/9 16/16/9
f 15/15/9 23/29/9 22/27/9 14/14/9
f 13/13/9 21/25/9 20/23/9 12/12/9
f 11/11/9 19/21/9 18/19/9 10/10/9
f 16/16/9 24/31/9 23/29/9 15/15/9
f 14/14/9 22/27/9 21/25/9 13/13/9
f 12/12/9 20/23/9 19/21/9 11/11/9
f 10/10/9 18/19/9 17/17/9 9/9/9
f 20/24/10 28/39/10 27/37/10 19/22/10
f 18/20/11 26/35/11 25/33/11 17/18/11
f 17/18/12 25/33/12 32/47/12 24/32/12
f 23/30/13 31/45/13 30/43/13 22/28/13
f 21/26/14 29/41/14 28/39/14 20/24/14
f 19/22/15 27/37/15 26/35/15 18/20/15
f 24/32/16 32/47/16 31/45/16 23/30/16
f 22/28/17 30/43/17 29/41/17 21/26/17
f 26/36/1 34/50/1 33/49/1 25/34/1
f 25/34/2 33/49/2 40/56/2 32/48/2
f 31/46/3 39/55/3 38/54/3 30/44/3
f 29/42/4 37/53/4 36/52/4 28/40/4
f 27/38/5 35/51/5 34/50/5 26/36/5
f 32/48/6 40/56/6 39/55/6 31/46/6
f 30/44/7 38/54/7 37/53/7 29/42/7
f 28/40/8 36/52/8 35/51/8 27/38/8
f 33/49/9 41/57/9 48/71/9 40/56/9
f 39/55/9 47/69/9 46/67/9 38/54/9
f 37/53/9 45/65/9 44/63/9 36/52/9
f 35/51/9 43/61/9 42/59/9 34/50/9
f 40/56/9 48/71/9 47/69/9 39/55/9
f 38/54/9 46/67/9 45/65/9 37/53/9
f 36/52/9 44/63/9 43/61/9 35/51/9
f 34/50/9 42/59/9 41/57/9 33/49/9
f 44/64/18 52/79/18 51/77/18 43/62/18
f 42/60/19 50/75/19 49/73/19 41/58/19
f 41/58/20 49/73/20 56/87/20 48/72/20
f 47/70/21 55/85/21 54/83/21 46/68/21
f 45/66/22 53/81/22 52/79/22 44/64/22
f 43/62/23 51/77/23 50/75/23 42/60/23
f 48/72/24 56/87/24 55/85/24 47/70/24
f 46/68/25 54/83/25 53/81/25 45/66/25
f 50/76/1 58/90/1 57/89/1 49/74/1
f 49/74/2 57/89/2 64/98/2 56/88/2
f 55/86/3 63/97/3 62/95/3 54/84/3
f 53/82/4 61/93/4 60/92/4 52/80/4
f 51/78/5 59/91/5 58/90/5 50/76/5
f 56/88/6 64/98/6 63/97/6 55/86/6
f 54/84/7 62/95/7 61/93/7 53/82/7
f 52/80/8 60/92/8 59/91/8 51/78/8
f 57/89/9 65/99/9 72/113/9 64/98/9
f 63/96/9 71/112/9 70/110/9 62/94/9
f 61/93/9 69/107/9 68/105/9 60/92/9
f 59/91/9 67/103/9 66/101/9 58/90/9
f 64/98/9 72/113/9 71/111/9 63/97/9
f 62/95/9 70/109/9 69/107/9 61/93/9
f 60/92/9 68/105/9 67/103/9 59/91/9
f 58/90/9 66/101/9 65/99/9 57/89/9
f 68/106/26 76/121/26 75/119/26 67/104/26
f 66/102/27 74/117/27 73/115/27 65/100/27
f 65/100/28 73/115/28 80/129/28 72/114/28
f 71/112/29 79/127/29 78/125/29 70/110/29
f 69/108/30 77/123/30 76/121/30 68/106/30
f 67/104/31 75/119/31 74/117/31 66/102/31
f 72/114/32 80/129/32 79/127/32 71/112/32
f 70/110/33 78/125/33 77/123/33 69/108/33
f 74/118/1 82/132/1 81/131/1 73/116/1
f 73/116/2 81/131/2 88/138/2 80/130/2
f 79/128/3 87/137/3 86/136/3 78/126/3
f 77/124/4 85/135/4 84/134/4 76/122/4
f 75/120/5 83/133/5 82/132/5 74/118/5
f 80/130/6 88/138/6 87/137/6 79/128/6
f 78/126/7 86/136/7 85/135/7 77/124/7
f 76/122/8 84/134/8 83/133/8 75/120/8
f 81/131/9 89/139/9 96/153/9 88/138/9
f 87/137/9 95/151/9 94/149/9 86/136/9
f 85/135/9 93/147/9 92/145/9 84/134/9
f 83/133/9 91/143/9 90/141/9 82/132/9
f 88/138/9 96/153/9 95/151/9 87/137/9
f 86/136/9 94/149/9 93/147/9 85/135/9
f 84/134/9 92/145/9 91/143/9 83/133/9
f 82/132/9 90/141/9 89/139/9 81/131/9
f 92/146/34 100/158/34 99/157/34 91/144/34
f 90/142/35 98/156/35 97/155/35 89/140/35
f 89/140/36 97/155/36 104/162/36 96/154/36
f 95/152/37 103/161/37 102/160/37 94/150/37
f 93/148/38 101/159/38 100/158/38 92/146/38
f 91/144/39 99/157/39 98/156/39 90/142/39
f 96/154/40 104/162/40 103/161/40 95/152/40
f 94/150/41 102/160/41 101/159/41 93/148/41
f 98/156/42 106/164/42 105/163/42 97/155/42
f 97/155/43 105/163/43 112/170/43 104/162/43
f 103/161/44 111/169/44 110/168/44 102/160/44
f 101/159/45 109/167/45 108/166/45 100/158/45
f 99/157/46 107/165/46 106/164/46 98/156/46
f 104/162/47 112/170/47 111/169/47 103/161/47
f 102/160/48 110/168/48 109/167/48 101/159/48
f 100/158/49 108/166/49 107/165/49 99/157/49
f 111/169/50 119/183/50 118/181/50 110/168/50
f 109/167/51 117/179/51 116/177/51 108/166/51
f 107/165/52 115/175/52 114/173/52 106/164/52
f 112/170/53 120/185/53 119/183/53 111/169/53
f 110/168/54 118/181/54 117/179/54 109/167/54
f 108/166/55 116/177/55 115/175/55 107/165/55
f 106/164/56 114/173/56 113/171/56 105/163/56
f 105/163/57 113/171/57 120/185/57 112/170/57
f 114/174/58 122/188/58 121/187/58 113/172/58
f 113/172/59 121/187/59 128/194/59 120/186/59
f 119/184/60 127/193/60 126/192/60 118/182/60
f 117/180/61 125/191/61 124/190/61 116/178/61
f 115/176/62 123/189/62 122/188/62 114/174/62
f 120/186/63 128/194/63 127/193/63 119/184/63
f 118/182/64 126/192/64 125/191/64 117/180/64
f 116/178/65 124/190/65 123/189/65 115/176/65
f 122/188/5 123/189/5 142/208/5 143/209/5
f 121/187/1 122/188/1 143/209/1 144/210/1
f 140/206/66 139/205/66 134/200/66 133/199/66
f 144/210/67 143/209/67 130/196/67 129/195/67
f 141/207/68 140/206/68 133/199/68 132/198/68
f 125/191/7 126/192/7 139/205/7 140/206/7
f 126/192/3 127/193/3 138/204/3 139/205/3
f 138/204/69 137/203/69 136/202/69 135/201/69
f 143/209/70 142/208/70 131/197/70 130/196/70
f 127/193/6 128/194/6 137/203/6 138/204/6
f 128/194/2 121/187/2 144/210/2 137/203/2
f 137/203/71 144/210/71 129/195/71 136/202/71
f 139/205/72 138/204/72 135/201/72 134/200/72
f 123/189/8 124/190/8 141/207/8 142/208/8
f 142/208/73 141/207/73 132/198/73 131/197/73
f 124/190/4 125/191/4 140/206/4 141/207/4
f 131/197/74 132/198/74 133/199/74 134/200/74 135/201/74 136/202/74 129/195/74 130/196/74
