# Blender 3.5.0
# www.blender.org
mtllib Tree03.mtl
o Cube
v -0.000000 0.000000 -0.171789
v -0.000000 0.450758 -0.171789
v 0.100975 0.000000 -0.138980
v 0.100975 0.450758 -0.138980
v 0.163381 0.000000 -0.053086
v 0.163381 0.450758 -0.053086
v 0.163381 0.000000 0.053086
v 0.163381 0.450758 0.053086
v 0.100975 0.000000 0.138980
v 0.100975 0.450758 0.138980
v -0.000000 0.000000 0.171789
v -0.000000 0.450758 0.171789
v -0.100975 0.000000 0.138980
v -0.100975 0.450758 0.138980
v -0.163381 0.000000 0.053086
v -0.163381 0.450758 0.053086
v -0.163381 0.000000 -0.053086
v -0.163381 0.450758 -0.053086
v -0.100975 0.000000 -0.138980
v -0.100975 0.450758 -0.138980
v -0.000000 0.450758 -0.171789
v 0.100975 0.450758 -0.138980
v 0.163381 0.450758 -0.053086
v 0.163381 0.450758 0.053086
v 0.100975 0.450758 0.138980
v -0.000000 0.450758 0.171789
v -0.100975 0.450758 0.138980
v -0.163381 0.450758 0.053086
v -0.163381 0.450758 -0.053086
v -0.100975 0.450758 -0.138980
v -0.000000 0.450757 -0.653029
v 0.383841 0.450757 -0.528311
v 0.621067 0.450757 -0.201797
v 0.621067 0.450757 0.201797
v 0.383841 0.450757 0.528311
v -0.000000 0.450757 0.653029
v -0.383841 0.450757 0.528311
v -0.621067 0.450757 0.201797
v -0.621067 0.450757 -0.201797
v -0.383841 0.450757 -0.528311
v -0.000000 0.872297 -0.276168
v 0.162327 0.872297 -0.223425
v 0.262651 0.872297 -0.085341
v 0.262651 0.872297 0.085341
v 0.162327 0.872297 0.223425
v -0.000000 0.872297 0.276168
v -0.162327 0.872297 0.223425
v -0.262651 0.872297 0.085341
v -0.262651 0.872297 -0.085341
v -0.162327 0.872297 -0.223425
v 0.000000 0.933566 -0.501483
v 0.294764 0.933566 -0.405708
v 0.476938 0.933566 -0.154967
v 0.476938 0.933566 0.154967
v 0.294764 0.933566 0.405708
v 0.000000 0.933566 0.501483
v -0.294764 0.933566 0.405708
v -0.476938 0.933566 0.154967
v -0.476938 0.933566 -0.154967
v -0.294764 0.933566 -0.405708
v 0.000000 1.262845 -0.183835
v 0.108056 1.262845 -0.148726
v 0.174838 1.262845 -0.056808
v 0.174838 1.262845 0.056808
v 0.108056 1.262845 0.148726
v 0.000000 1.262845 0.183835
v -0.108056 1.262845 0.148726
v -0.174838 1.262845 0.056808
v -0.174838 1.262845 -0.056808
v -0.108056 1.262845 -0.148726
v 0.000000 1.298316 -0.354172
v 0.208177 1.298316 -0.286531
v 0.336837 1.298316 -0.109445
v 0.336837 1.298316 0.109445
v 0.208177 1.298316 0.286531
v 0.000000 1.298316 0.354172
v -0.208177 1.298316 0.286531
v -0.336837 1.298316 0.109445
v -0.336837 1.298316 -0.109445
v -0.208177 1.298316 -0.286531
v 0.000000 1.572800 -0.075966
v 0.044652 1.572800 -0.061458
v 0.072248 1.572800 -0.023475
v 0.072248 1.572800 0.023475
v 0.044652 1.572800 0.061458
v 0.000000 1.572800 0.075966
v -0.044652 1.572800 0.061458
v -0.072248 1.572800 0.023475
v -0.072248 1.572800 -0.023475
v -0.044652 1.572800 -0.061458
v 0.000000 1.597682 -0.196564
v 0.115537 1.597682 -0.159023
v 0.186943 1.597682 -0.060742
v 0.186943 1.597682 0.060742
v 0.115537 1.597682 0.159023
v 0.000000 1.597682 0.196564
v -0.115537 1.597682 0.159023
v -0.186943 1.597682 0.060742
v -0.186943 1.597682 -0.060742
v -0.115537 1.597682 -0.159023
v 0.000000 1.782738 -0.000000
vn 0.3090 -0.0000 -0.9511
vn 0.8090 -0.0000 -0.5878
vn 1.0000 -0.0000 -0.0000
vn 0.8090 -0.0000 0.5878
vn 0.3090 -0.0000 0.9511
vn -0.3090 -0.0000 0.9511
vn -0.8090 -0.0000 0.5878
vn -1.0000 -0.0000 -0.0000
vn -0.0000 1.0000 -0.0000
vn -0.8090 -0.0000 -0.5878
vn -0.3090 -0.0000 -0.9511
vn -0.0000 -1.0000 -0.0000
vn -0.2354 0.6478 0.7246
vn 0.2749 -0.9615 -0.0000
vn 0.7618 0.6478 -0.0000
vn -0.2354 0.6478 -0.7246
vn -0.6163 0.6478 0.4478
vn 0.6163 0.6478 0.4478
vn 0.2354 0.6478 -0.7246
vn -0.7618 0.6478 -0.0000
vn 0.2354 0.6478 0.7246
vn 0.6163 0.6478 -0.4478
vn -0.6163 0.6478 -0.4478
vn -0.5961 0.6760 0.4331
vn -0.0850 -0.9615 -0.2615
vn -0.2224 -0.9615 0.1616
vn 0.2224 -0.9615 0.1616
vn 0.0850 -0.9615 -0.2615
vn -0.2749 -0.9615 -0.0000
vn 0.0850 -0.9615 0.2615
vn 0.2224 -0.9615 -0.1616
vn -0.2224 -0.9615 -0.1616
vn -0.0850 -0.9615 0.2615
vn 0.1730 -0.9769 0.1257
vn 0.5961 0.6760 0.4331
vn 0.2277 0.6760 -0.7008
vn -0.7369 0.6760 -0.0000
vn 0.2277 0.6760 0.7008
vn 0.5961 0.6760 -0.4331
vn -0.5961 0.6760 -0.4331
vn -0.2277 0.6760 0.7008
vn 0.7369 0.6760 -0.0000
vn -0.2277 0.6760 -0.7008
vn 0.2225 0.6940 -0.6847
vn 0.0661 -0.9769 -0.2034
vn -0.2139 -0.9769 -0.0000
vn 0.0661 -0.9769 0.2034
vn 0.1730 -0.9769 -0.1257
vn -0.1730 -0.9769 -0.1257
vn -0.0661 -0.9769 0.2034
vn 0.2139 -0.9769 -0.0000
vn -0.0661 -0.9769 -0.2034
vn -0.1730 -0.9769 0.1257
vn -0.2120 -0.9773 -0.0000
vn -0.7200 0.6940 -0.0000
vn 0.2225 0.6940 0.6847
vn 0.5825 0.6940 -0.4232
vn -0.5825 0.6940 -0.4232
vn -0.2225 0.6940 0.6847
vn 0.7200 0.6940 -0.0000
vn -0.2225 0.6940 -0.6847
vn -0.5825 0.6940 0.4232
vn 0.5825 0.6940 0.4232
vn 0.2174 0.7107 0.6691
vn 0.0655 -0.9773 0.2016
vn 0.1715 -0.9773 -0.1246
vn -0.1715 -0.9773 -0.1246
vn -0.0655 -0.9773 0.2016
vn 0.2120 -0.9773 -0.0000
vn -0.0655 -0.9773 -0.2016
vn -0.1715 -0.9773 0.1246
vn 0.1715 -0.9773 0.1246
vn 0.0655 -0.9773 -0.2016
vn 0.5692 0.7107 -0.4135
vn -0.5692 0.7107 -0.4135
vn -0.2174 0.7107 0.6691
vn 0.7035 0.7107 -0.0000
vn -0.2174 0.7107 -0.6691
vn -0.5692 0.7107 0.4135
vn 0.5692 0.7107 0.4135
vn 0.2174 0.7107 -0.6691
vn -0.7035 0.7107 -0.0000
vt 0.388386 0.846043
vt 0.121752 0.604213
vt 0.388386 0.846043
vt 0.388386 0.846043
vt 0.388386 0.846043
vt 0.121752 0.604213
vt 0.388386 0.846043
vt 0.388386 0.846043
vt 0.121752 0.604213
vt 0.388386 0.846043
vt 0.388386 0.846043
vt 0.121752 0.604213
vt 0.388386 0.846043
vt 0.388386 0.846043
vt 0.121752 0.604213
vt 0.388386 0.846043
vt 0.388386 0.846043
vt 0.121752 0.604213
vt 0.388386 0.846043
vt 0.388386 0.846043
vt 0.121752 0.604213
vt 0.388386 0.846043
vt 0.388386 0.846043
vt 0.121752 0.604213
vt 0.388386 0.846043
vt 0.121752 0.604213
vt 0.388386 0.846043
vt 0.388386 0.846043
vt 0.121752 0.604213
vt 0.388386 0.846043
vt 0.121752 0.604213
vt 0.121752 0.604213
vt 0.121752 0.604213
vt 0.121752 0.604213
vt 0.121752 0.604213
vt 0.121752 0.604213
vt 0.121752 0.604213
vt 0.121752 0.604213
vt 0.121752 0.604213
vt 0.121752 0.604213
vt 0.121752 0.604213
vt 0.121752 0.604213
vt 0.121752 0.604213
vt 0.121752 0.604213
vt 0.121752 0.604213
vt 0.121752 0.604213
vt 0.121752 0.604213
vt 0.121752 0.604213
vt 0.121752 0.604213
vt 0.121752 0.604213
vt 0.121752 0.604213
vt 0.121752 0.604213
vt 0.121752 0.604213
vt 0.121752 0.604213
vt 0.121752 0.604213
vt 0.121752 0.604213
vt 0.121752 0.604213
vt 0.121752 0.604213
vt 0.121752 0.604213
vt 0.121752 0.604213
vt 0.121752 0.604213
vt 0.121752 0.604213
vt 0.121752 0.604213
vt 0.121752 0.604213
vt 0.121752 0.604213
vt 0.121752 0.604213
vt 0.121752 0.604213
vt 0.121752 0.604213
vt 0.121752 0.604213
vt 0.121752 0.604213
vt 0.121752 0.604213
vt 0.121752 0.604213
vt 0.121752 0.604213
vt 0.121752 0.604213
vt 0.121752 0.604213
vt 0.121752 0.604213
vt 0.121752 0.604213
vt 0.121752 0.604213
vt 0.121752 0.604213
vt 0.121752 0.604213
vt 0.121752 0.604213
vt 0.121752 0.604213
vt 0.121752 0.604213
vt 0.121752 0.604213
vt 0.121752 0.604213
vt 0.121752 0.604213
vt 0.121752 0.604213
vt 0.121752 0.604213
vt 0.121752 0.604213
vt 0.121752 0.604213
vt 0.121752 0.604213
vt 0.121752 0.604213
vt 0.121752 0.604213
vt 0.121752 0.604213
vt 0.121752 0.604213
vt 0.121752 0.604213
vt 0.121752 0.604213
vt 0.121752 0.604213
vt 0.121752 0.604213
vt 0.121752 0.604213
vt 0.121752 0.604213
vt 0.121752 0.604213
vt 0.121752 0.604213
vt 0.121752 0.604213
vt 0.121752 0.604213
vt 0.121752 0.604213
vt 0.121752 0.604213
vt 0.121752 0.604213
vt 0.121752 0.604213
vt 0.121752 0.604213
vt 0.121752 0.604213
s 0
usemtl Material
f 1/1/1 2/3/1 4/5/1 3/4/1
f 3/4/2 4/5/2 6/8/2 5/7/2
f 5/7/3 6/8/3 8/11/3 7/10/3
f 7/10/4 8/11/4 10/14/4 9/13/4
f 9/13/5 10/14/5 12/17/5 11/16/5
f 11/16/6 12/17/6 14/20/6 13/19/6
f 13/19/7 14/20/7 16/23/7 15/22/7
f 15/22/8 16/23/8 18/27/8 17/25/8
f 4/6/9 2/2/9 20/29/9 18/26/9 16/24/9 14/21/9 12/18/9 10/15/9 8/12/9 6/9/9
f 17/25/10 18/27/10 20/30/10 19/28/10
f 19/28/11 20/30/11 2/3/11 1/1/11
f 1/1/12 3/4/12 5/7/12 7/10/12 9/13/12 11/16/12 13/19/12 15/22/12 17/25/12 19/28/12
f 22/32/12 23/33/12 24/34/12 25/35/12 26/36/12 27/37/12 28/38/12 29/39/12 30/40/12 21/31/12
f 37/47/13 36/46/13 46/56/13 47/57/13
f 27/37/12 26/36/12 36/46/12 37/47/12
f 24/34/12 23/33/12 33/43/12 34/44/12
f 21/31/12 30/40/12 40/50/12 31/41/12
f 28/38/12 27/37/12 37/47/12 38/48/12
f 25/35/12 24/34/12 34/44/12 35/45/12
f 22/32/12 21/31/12 31/41/12 32/42/12
f 29/39/12 28/38/12 38/48/12 39/49/12
f 26/36/12 25/35/12 35/45/12 36/46/12
f 23/33/12 22/32/12 32/42/12 33/43/12
f 30/40/12 29/39/12 39/49/12 40/50/12
f 44/54/14 43/53/14 53/63/14 54/64/14
f 34/44/15 33/43/15 43/53/15 44/54/15
f 31/41/16 40/50/16 50/60/16 41/51/16
f 38/48/17 37/47/17 47/57/17 48/58/17
f 35/45/18 34/44/18 44/54/18 45/55/18
f 32/42/19 31/41/19 41/51/19 42/52/19
f 39/49/20 38/48/20 48/58/20 49/59/20
f 36/46/21 35/45/21 45/55/21 46/56/21
f 33/43/22 32/42/22 42/52/22 43/53/22
f 40/50/23 39/49/23 49/59/23 50/60/23
f 58/68/24 57/67/24 67/77/24 68/78/24
f 41/51/25 50/60/25 60/70/25 51/61/25
f 48/58/26 47/57/26 57/67/26 58/68/26
f 45/55/27 44/54/27 54/64/27 55/65/27
f 42/52/28 41/51/28 51/61/28 52/62/28
f 49/59/29 48/58/29 58/68/29 59/69/29
f 46/56/30 45/55/30 55/65/30 56/66/30
f 43/53/31 42/52/31 52/62/31 53/63/31
f 50/60/32 49/59/32 59/69/32 60/70/32
f 47/57/33 46/56/33 56/66/33 57/67/33
f 65/75/34 64/74/34 74/84/34 75/85/34
f 55/65/35 54/64/35 64/74/35 65/75/35
f 52/62/36 51/61/36 61/71/36 62/72/36
f 59/69/37 58/68/37 68/78/37 69/79/37
f 56/66/38 55/65/38 65/75/38 66/76/38
f 53/63/39 52/62/39 62/72/39 63/73/39
f 60/70/40 59/69/40 69/79/40 70/80/40
f 57/67/41 56/66/41 66/76/41 67/77/41
f 54/64/42 53/63/42 63/73/42 64/74/42
f 51/61/43 60/70/43 70/80/43 61/71/43
f 72/82/44 71/81/44 81/91/44 82/92/44
f 62/72/45 61/71/45 71/81/45 72/82/45
f 69/79/46 68/78/46 78/88/46 79/89/46
f 66/76/47 65/75/47 75/85/47 76/86/47
f 63/73/48 62/72/48 72/82/48 73/83/48
f 70/80/49 69/79/49 79/89/49 80/90/49
f 67/77/50 66/76/50 76/86/50 77/87/50
f 64/74/51 63/73/51 73/83/51 74/84/51
f 61/71/52 70/80/52 80/90/52 71/81/52
f 68/78/53 67/77/53 77/87/53 78/88/53
f 89/99/54 88/98/54 98/108/54 99/109/54
f 79/89/55 78/88/55 88/98/55 89/99/55
f 76/86/56 75/85/56 85/95/56 86/96/56
f 73/83/57 72/82/57 82/92/57 83/93/57
f 80/90/58 79/89/58 89/99/58 90/100/58
f 77/87/59 76/86/59 86/96/59 87/97/59
f 74/84/60 73/83/60 83/93/60 84/94/60
f 71/81/61 80/90/61 90/100/61 81/91/61
f 78/88/62 77/87/62 87/97/62 88/98/62
f 75/85/63 74/84/63 84/94/63 85/95/63
f 96/106/64 95/105/64 101/111/64
f 86/96/65 85/95/65 95/105/65 96/106/65
f 83/93/66 82/92/66 92/102/66 93/103/66
f 90/100/67 89/99/67 99/109/67 100/110/67
f 87/97/68 86/96/68 96/106/68 97/107/68
f 84/94/69 83/93/69 93/103/69 94/104/69
f 81/91/70 90/100/70 100/110/70 91/101/70
f 88/98/71 87/97/71 97/107/71 98/108/71
f 85/95/72 84/94/72 94/104/72 95/105/72
f 82/92/73 81/91/73 91/101/73 92/102/73
f 93/103/74 92/102/74 101/111/74
f 100/110/75 99/109/75 101/111/75
f 97/107/76 96/106/76 101/111/76
f 94/104/77 93/103/77 101/111/77
f 91/101/78 100/110/78 101/111/78
f 98/108/79 97/107/79 101/111/79
f 95/105/80 94/104/80 101/111/80
f 92/102/81 91/101/81 101/111/81
f 99/109/82 98/108/82 101/111/82
