# Blender 3.4.1
# www.blender.org
mtllib WorkHouse.mtl
o Plane
v 1.002269 0.129103 -0.996724
v -0.997731 0.129103 -0.996724
v 1.002269 0.129103 1.003276
v -0.997731 0.129103 1.003276
v -0.369920 0.005981 0.008671
v -0.735566 0.005981 0.262618
v -0.115972 0.005981 0.374317
v -0.481619 0.005981 0.628265
v -0.340292 0.005981 0.051329
v -0.145599 0.005981 0.331658
v -0.692908 0.005981 0.232991
v -0.412579 0.005981 0.038298
v -0.511246 0.005981 0.585606
v -0.705939 0.005981 0.305277
v -0.158631 0.005981 0.403944
v -0.438960 0.005981 0.598638
v -0.382951 0.005981 0.080956
v -0.188258 0.005981 0.361286
v -0.663280 0.005981 0.275650
v -0.468587 0.005981 0.555979
v -0.343397 0.424274 -0.138453
v 0.031151 0.424274 0.400840
v -0.882690 0.424274 0.236095
v -0.508142 0.424274 0.775388
v -0.145599 0.428939 0.331658
v -0.115972 0.428939 0.374317
v -0.412579 0.428939 0.038298
v -0.369920 0.428939 0.008671
v -0.705939 0.428939 0.305277
v -0.735566 0.428939 0.262618
v -0.438960 0.428939 0.598638
v -0.481619 0.428939 0.628265
v -0.340292 0.428939 0.051329
v -0.692908 0.428939 0.232991
v -0.511246 0.428939 0.585606
v -0.158631 0.428939 0.403944
v -0.188258 0.428939 0.361286
v -0.382951 0.428939 0.080956
v -0.468587 0.428939 0.555979
v -0.663280 0.428939 0.275650
v -0.506154 0.587871 0.134089
v -0.281069 0.587871 0.458179
v -0.570470 0.587871 0.178757
v -0.345384 0.587871 0.502847
v -0.520062 0.624692 0.114064
v -0.267161 0.624692 0.478204
v -0.584377 0.624692 0.158732
v -0.331476 0.624692 0.522872
v 0.691790 0.005746 0.298669
v 0.506606 0.005746 0.228123
v 0.621243 0.005746 0.483853
v 0.436059 0.005746 0.413307
v 0.683559 0.005746 0.320274
v 0.629474 0.005746 0.462248
v 0.528211 0.005746 0.236353
v 0.670185 0.005746 0.290439
v 0.444290 0.005746 0.391702
v 0.498375 0.005746 0.249727
v 0.599638 0.005746 0.475623
v 0.457664 0.005746 0.421537
v 0.661955 0.005746 0.312044
v 0.607869 0.005746 0.454018
v 0.519980 0.005746 0.257958
v 0.465894 0.005746 0.399932
v 0.629474 0.194020 0.462248
v 0.621243 0.194020 0.483853
v 0.670185 0.194020 0.290439
v 0.691790 0.194020 0.298669
v 0.498375 0.194020 0.249727
v 0.506606 0.194020 0.228123
v 0.457664 0.194020 0.421537
v 0.436059 0.194020 0.413307
v 0.683559 0.194020 0.320274
v 0.528211 0.194020 0.236353
v 0.444290 0.194020 0.391702
v 0.599638 0.194020 0.475623
v 0.607869 0.194020 0.454018
v 0.661955 0.194020 0.312044
v 0.465894 0.194020 0.399932
v 0.519980 0.194020 0.257958
v 0.751959 0.190446 0.269826
v 0.476366 0.190446 0.164838
v 0.646971 0.190446 0.545419
v 0.371378 0.190446 0.440431
v 0.751959 0.206606 0.269826
v 0.646971 0.206606 0.545419
v 0.476366 0.206606 0.164838
v 0.371378 0.206606 0.440431
v 0.719660 0.001826 -0.325181
v 0.290045 0.001826 -0.656019
v 0.532386 0.001826 -0.081993
v 0.102771 0.001826 -0.412832
v 0.171643 0.215861 -0.502267
v 0.601258 0.215861 -0.171428
v 0.221173 0.215861 -0.566584
v 0.650788 0.215861 -0.235746
v -0.317375 0.215861 -0.629748
v -0.794124 0.215861 -0.371421
v -0.278701 0.215861 -0.558374
v -0.755450 0.215861 -0.300046
v -0.701673 0.001826 -0.200799
v -0.224923 0.001826 -0.459127
v -0.847901 0.001826 -0.470668
v -0.371152 0.001826 -0.728995
v 1.002269 0.129103 0.869942
v 1.002269 0.129103 -0.863391
v 0.868935 0.129103 -0.996724
v -0.864398 0.129103 -0.996724
v -0.997731 0.129103 -0.863390
v -0.997731 0.129103 0.869943
v -0.864398 0.129103 1.003276
v 0.868935 0.129103 1.003276
v 0.868935 0.129103 -0.863391
v 0.868935 0.129103 0.869942
v -0.864398 0.129103 -0.863390
v -0.864398 0.129103 0.869943
v 0.216170 0.129103 1.003276
v 0.505059 0.129103 1.003276
v 0.216170 0.129103 0.869943
v 0.505059 0.129103 0.869942
v 1.002269 0.180467 -0.996724
v -0.997731 0.180467 -0.996724
v 1.002269 0.180467 1.003276
v -0.997731 0.180467 1.003276
v 1.002269 0.180467 0.869942
v 1.002269 0.180467 -0.863391
v 0.868935 0.180467 -0.996724
v -0.864398 0.180467 -0.996724
v -0.997731 0.180467 -0.863390
v -0.997731 0.180467 0.869943
v -0.864398 0.180467 1.003276
v 0.868935 0.180467 1.003276
v 0.868935 0.180467 -0.863391
v 0.868935 0.180467 0.869942
v -0.864398 0.180467 -0.863390
v -0.864398 0.180467 0.869943
v 0.216170 0.180467 1.003276
v 0.505059 0.180467 1.003276
v 0.216170 0.180467 0.869943
v 0.505059 0.180467 0.869942
v 1.002269 0.000608 -0.863391
v 1.002269 0.000608 -0.996724
v -0.864398 0.000608 -0.996724
v -0.997731 0.000608 -0.996724
v -0.997731 0.000608 0.869943
v -0.997731 0.000608 1.003276
v 0.868935 0.000608 1.003276
v 1.002269 0.000608 1.003276
v 1.002269 0.000608 0.869942
v 0.868935 0.000608 -0.996724
v -0.997731 0.000608 -0.863390
v -0.864398 0.000608 1.003276
v 0.868935 0.000608 0.869942
v 0.868935 0.000608 -0.863391
v -0.864398 0.000608 0.869943
v -0.864398 0.000608 -0.863390
v 1.002269 0.273568 -0.863391
v 1.002269 0.273568 -0.996724
v -0.864398 0.273568 -0.996724
v -0.997731 0.273568 -0.996724
v -0.997731 0.273568 0.869943
v -0.997731 0.273568 1.003276
v 0.868935 0.273568 1.003276
v 1.002269 0.273568 1.003276
v 1.002269 0.273568 0.869942
v 0.868935 0.273568 -0.996724
v -0.997731 0.273568 -0.863390
v -0.864398 0.273568 1.003276
v 0.868935 0.273568 0.869942
v 0.868935 0.273568 -0.863391
v -0.864398 0.273568 0.869943
v -0.864398 0.273568 -0.863390
v 0.446236 0.129103 0.869942
v 0.446236 0.129103 1.003276
v 0.274994 0.129103 0.869943
v 0.274994 0.129103 1.003276
v 0.446236 0.180467 0.869942
v 0.446236 0.180467 1.003276
v 0.274994 0.180467 0.869943
v 0.274994 0.180467 1.003276
v 0.505059 0.000183 0.869942
v 0.505059 0.000183 1.003276
v 0.216170 0.000183 0.869943
v 0.216170 0.000183 1.003276
v 0.446236 0.000183 0.869942
v 0.446236 0.000183 1.003276
v 0.274994 0.000183 0.869943
v 0.274994 0.000183 1.003276
v 0.505059 0.238466 0.869942
v 0.505059 0.238466 1.003276
v 0.216170 0.238466 0.869943
v 0.216170 0.238466 1.003276
v 0.446236 0.238466 0.869942
v 0.446236 0.238466 1.003276
v 0.274994 0.238466 0.869943
v 0.274994 0.238466 1.003276
vn 1.0000 -0.0000 -0.0000
vn -0.9345 -0.0000 -0.3560
vn 0.9345 -0.0000 0.3560
vn 0.5704 -0.0000 0.8213
vn 0.3560 -0.0000 -0.9345
vn 0.8213 -0.0000 -0.5704
vn -0.8213 -0.0000 0.5704
vn -0.5704 -0.0000 -0.8213
vn -0.4453 0.6251 -0.6411
vn 0.4045 0.8703 -0.2809
vn 0.4453 0.6251 0.6411
vn -0.4045 0.8703 0.2809
vn -0.0000 1.0000 -0.0000
vn 0.4756 -0.5521 0.6848
vn -0.4756 -0.5521 -0.6848
vn -0.3560 -0.0000 0.9345
vn 0.5397 0.4665 -0.7008
vn -0.7923 -0.0000 -0.6101
vn 0.7923 -0.0000 0.6101
vn 0.4214 0.4665 0.7777
vn -0.8792 -0.0000 0.4764
vn -0.5397 0.4665 0.7008
vn -0.4214 0.4665 -0.7777
vn 0.8792 -0.0000 -0.4764
vn -0.0000 -0.0000 1.0000
vn -0.0000 -1.0000 -0.0000
vn -1.0000 -0.0000 -0.0000
vn -0.0000 -0.0000 -1.0000
vt 0.406988 0.828642
vt 0.406988 0.828642
vt 0.406988 0.828642
vt 0.406988 0.828642
vt 0.406988 0.828642
vt 0.406988 0.828642
vt 0.406988 0.828642
vt 0.406988 0.828642
vt 0.406988 0.828642
vt 0.406988 0.828642
vt 0.406988 0.828642
vt 0.406988 0.828642
vt 0.406988 0.828642
vt 0.406988 0.828642
vt 0.406988 0.828642
vt 0.406988 0.828642
vt 0.406988 0.828642
vt 0.406988 0.828642
vt 0.406988 0.828642
vt 0.406988 0.828642
vt 0.360482 0.385285
vt 0.360482 0.385285
vt 0.360482 0.385285
vt 0.360482 0.385285
vt 0.406988 0.828642
vt 0.406988 0.828642
vt 0.406988 0.828642
vt 0.406988 0.828642
vt 0.406988 0.828642
vt 0.406988 0.828642
vt 0.406988 0.828642
vt 0.406988 0.828642
vt 0.406988 0.828642
vt 0.406988 0.828642
vt 0.406988 0.828642
vt 0.406988 0.828642
vt 0.406988 0.828642
vt 0.406988 0.828642
vt 0.406988 0.828642
vt 0.406988 0.828642
vt 0.360482 0.385285
vt 0.360482 0.385285
vt 0.360482 0.385285
vt 0.360482 0.385285
vt 0.360482 0.385285
vt 0.360482 0.385285
vt 0.360482 0.385285
vt 0.360482 0.385285
vt 0.406988 0.828642
vt 0.406988 0.828642
vt 0.406988 0.828642
vt 0.406988 0.828642
vt 0.406988 0.828642
vt 0.406988 0.828642
vt 0.406988 0.828642
vt 0.406988 0.828642
vt 0.406988 0.828642
vt 0.406988 0.828642
vt 0.406988 0.828642
vt 0.406988 0.828642
vt 0.406988 0.828642
vt 0.406988 0.828642
vt 0.406988 0.828642
vt 0.406988 0.828642
vt 0.406988 0.828642
vt 0.406988 0.828642
vt 0.406988 0.828642
vt 0.406988 0.828642
vt 0.406988 0.828642
vt 0.406988 0.828642
vt 0.406988 0.828642
vt 0.406988 0.828642
vt 0.406988 0.828642
vt 0.406988 0.828642
vt 0.406988 0.828642
vt 0.406988 0.828642
vt 0.406988 0.828642
vt 0.406988 0.828642
vt 0.406988 0.828642
vt 0.406988 0.828642
vt 0.607857 0.404256
vt 0.607857 0.404256
vt 0.607857 0.404256
vt 0.607857 0.404256
vt 0.607857 0.404256
vt 0.607857 0.404256
vt 0.607857 0.404256
vt 0.607857 0.404256
vt 0.422490 0.800738
vt 0.608514 0.372884
vt 0.422490 0.800738
vt 0.608514 0.372884
vt 0.608514 0.372884
vt 0.422490 0.800738
vt 0.608514 0.372884
vt 0.422490 0.800738
vt 0.608514 0.372884
vt 0.422490 0.800738
vt 0.608514 0.372884
vt 0.422490 0.800738
vt 0.422490 0.800738
vt 0.608514 0.372884
vt 0.422490 0.800738
vt 0.608514 0.372884
vt 0.422490 0.800738
vt 0.608514 0.372884
vt 0.608514 0.372884
vt 0.422490 0.800738
vt 0.422490 0.800738
vt 0.608514 0.372884
vt 0.422490 0.800738
vt 0.608514 0.372884
vt 0.422490 0.800738
vt 0.608514 0.372884
vt 0.422490 0.800738
vt 0.608514 0.372884
vt 0.608514 0.372884
vt 0.422490 0.800738
vt 0.422490 0.800738
vt 0.608514 0.372884
vt 0.607857 0.404256
vt 0.406988 0.828642
vt 0.607857 0.404256
vt 0.406988 0.828642
vt 0.607857 0.404256
vt 0.406988 0.828642
vt 0.607857 0.404256
vt 0.406988 0.828642
vt 0.607857 0.404256
vt 0.406988 0.828642
vt 0.607857 0.404256
vt 0.406988 0.828642
vt 0.607857 0.404256
vt 0.406988 0.828642
vt 0.607857 0.404256
vt 0.406988 0.828642
vt 0.607857 0.404256
vt 0.406988 0.828642
vt 0.607857 0.404256
vt 0.406988 0.828642
vt 0.607857 0.404256
vt 0.406988 0.828642
vt 0.607857 0.404256
vt 0.406988 0.828642
vt 0.607857 0.404256
vt 0.406988 0.828642
vt 0.607857 0.404256
vt 0.406988 0.828642
vt 0.607857 0.404256
vt 0.406988 0.828642
vt 0.607857 0.404256
vt 0.406988 0.828642
vt 0.406988 0.828642
vt 0.406988 0.828642
vt 0.406988 0.828642
vt 0.406988 0.828642
vt 0.607857 0.404256
vt 0.406988 0.828642
vt 0.607857 0.404256
vt 0.406988 0.828642
vt 0.607857 0.404256
vt 0.406988 0.828642
vt 0.607857 0.404256
vt 0.406988 0.828642
vt 0.607857 0.404256
vt 0.406988 0.828642
vt 0.607857 0.404256
vt 0.406988 0.828642
vt 0.607857 0.404256
vt 0.406988 0.828642
vt 0.607857 0.404256
vt 0.406988 0.828642
vt 0.607857 0.404256
vt 0.406988 0.828642
vt 0.607857 0.404256
vt 0.406988 0.828642
vt 0.607857 0.404256
vt 0.406988 0.828642
vt 0.607857 0.404256
vt 0.406988 0.828642
vt 0.607857 0.404256
vt 0.406988 0.828642
vt 0.607857 0.404256
vt 0.406988 0.828642
vt 0.607857 0.404256
vt 0.406988 0.828642
vt 0.607857 0.404256
vt 0.406988 0.828642
vt 0.406988 0.828642
vt 0.406988 0.828642
vt 0.406988 0.828642
vt 0.406988 0.828642
vt 0.406988 0.828642
vt 0.406988 0.828642
vt 0.406988 0.828642
vt 0.406988 0.828642
vt 0.406988 0.828642
vt 0.406988 0.828642
vt 0.406988 0.828642
vt 0.406988 0.828642
vt 0.406988 0.828642
vt 0.406988 0.828642
vt 0.406988 0.828642
vt 0.406988 0.828642
vt 0.406988 0.828642
vt 0.406988 0.828642
vt 0.406988 0.828642
vt 0.406988 0.828642
vt 0.406988 0.828642
vt 0.406988 0.828642
vt 0.406988 0.828642
vt 0.406988 0.828642
vt 0.406988 0.828642
vt 0.406988 0.828642
vt 0.406988 0.828642
vt 0.406988 0.828642
vt 0.406988 0.828642
vt 0.406988 0.828642
vt 0.406988 0.828642
vt 0.406988 0.828642
vt 0.406988 0.828642
vt 0.406988 0.828642
vt 0.406988 0.828642
vt 0.406988 0.828642
vt 0.406988 0.828642
vt 0.406988 0.828642
vt 0.406988 0.828642
vt 0.406988 0.828642
vt 0.406988 0.828642
vt 0.406988 0.828642
vt 0.406988 0.828642
vt 0.406988 0.828642
vt 0.406988 0.828642
vt 0.406988 0.828642
vt 0.406988 0.828642
vt 0.406988 0.828642
vt 0.406988 0.828642
vt 0.406988 0.828642
vt 0.406988 0.828642
vt 0.406988 0.828642
vt 0.406988 0.828642
vt 0.406988 0.828642
vt 0.406988 0.828642
vt 0.406988 0.828642
s 0
usemtl Material
f 105/122/1 3/3/1 148/196/1 149/197/1
f 50/50/2 58/58/2 69/69/2 70/70/2
f 63/63/3 55/55/3 74/74/3 80/80/3
f 14/14/4 19/19/4 40/40/4 29/29/4
f 49/49/5 56/56/5 67/67/5 68/68/5
f 55/55/5 50/50/5 70/70/5 74/74/5
f 56/56/2 61/61/2 78/78/2 67/67/2
f 62/62/2 59/59/2 76/76/2 77/77/2
f 64/64/5 57/57/5 75/75/5 79/79/5
f 54/54/5 62/62/5 77/77/5 65/65/5
f 57/57/2 52/52/2 72/72/2 75/75/2
f 7/7/6 10/10/6 25/25/6 26/26/6
f 16/16/6 20/20/6 39/39/6 31/31/6
f 13/13/7 8/8/7 32/32/7 35/35/7
f 20/20/8 13/13/8 35/35/8 39/39/8
f 5/5/8 12/12/8 27/27/8 28/28/8
f 19/19/6 11/11/6 34/34/6 40/40/6
f 6/6/7 14/14/7 29/29/7 30/30/7
f 15/15/4 7/7/4 26/26/4 36/36/4
f 8/8/4 16/16/4 31/31/4 32/32/4
f 17/17/4 9/9/4 33/33/4 38/38/4
f 9/9/6 5/5/6 28/28/6 33/33/6
f 10/10/8 18/18/8 37/37/8 25/25/8
f 18/18/7 15/15/7 36/36/7 37/37/7
f 12/12/7 17/17/7 38/38/7 27/27/7
f 11/11/8 6/6/8 30/30/8 34/34/8
f 42/42/6 41/41/6 45/45/6 46/46/6
f 21/21/9 23/23/9 43/43/9 41/41/9
f 22/22/10 21/21/10 41/41/10 42/42/10
f 24/24/11 22/22/11 42/42/11 44/44/11
f 23/23/12 24/24/12 44/44/12 43/43/12
f 45/45/13 47/47/13 48/48/13 46/46/13
f 44/44/14 42/42/14 46/46/14 48/48/14
f 43/43/7 44/44/7 48/48/7 47/47/7
f 41/41/15 43/43/15 47/47/15 45/45/15
f 60/60/3 64/64/3 79/79/3 71/71/3
f 51/51/3 54/54/3 65/65/3 66/66/3
f 53/53/3 49/49/3 68/68/3 73/73/3
f 61/61/16 53/53/16 73/73/16 78/78/16
f 52/52/16 60/60/16 71/71/16 72/72/16
f 58/58/16 63/63/16 80/80/16 69/69/16
f 59/59/16 51/51/16 66/66/16 76/76/16
f 85/85/13 87/87/13 88/88/13 86/86/13
f 82/82/2 84/84/2 88/88/2 87/87/2
f 83/83/3 81/81/3 85/85/3 86/86/3
f 84/84/16 83/83/16 86/86/16 88/88/16
f 81/81/5 82/82/5 87/87/5 85/85/5
f 89/89/17 90/91/17 95/101/17 96/103/17
f 96/103/13 95/101/13 93/98/13 94/100/13
f 90/92/18 92/95/18 93/97/18 95/102/18
f 91/93/19 89/90/19 96/104/19 94/99/19
f 101/113/20 102/115/20 99/109/20 100/111/20
f 97/105/13 98/108/13 100/111/13 99/109/13
f 103/117/21 101/114/21 100/112/21 98/107/21
f 92/96/22 91/94/22 94/100/22 93/98/22
f 104/119/23 103/118/23 98/108/23 97/105/23
f 102/116/24 104/120/24 97/106/24 99/110/24
f 106/124/25 113/138/25 154/202/25 141/189/25
f 119/149/26 117/145/26 111/133/26 116/143/26
f 111/134/25 4/4/25 146/194/25 152/200/25
f 106/123/26 105/121/26 114/139/26 113/137/26
f 107/125/26 113/137/26 115/141/26 108/127/26
f 108/128/1 115/142/1 156/204/1 143/191/1
f 115/141/26 116/143/26 110/131/26 109/129/26
f 114/139/26 112/135/26 118/147/26 120/151/26
f 123/155/1 125/158/1 165/213/1 164/212/1
f 133/174/25 126/160/25 157/205/25 170/218/25
f 139/185/13 136/179/13 131/169/13 137/181/13
f 132/172/25 123/155/25 164/212/25 163/211/25
f 126/159/13 133/173/13 134/175/13 125/157/13
f 127/161/13 128/163/13 135/177/13 133/173/13
f 124/156/25 131/170/25 168/216/25 162/210/25
f 135/177/13 129/165/13 130/167/13 136/179/13
f 134/175/13 140/187/13 138/183/13 132/171/13
f 109/129/27 110/131/27 130/167/27 129/165/27
f 111/133/25 117/145/25 137/181/25 131/169/25
f 116/143/1 115/141/1 135/177/1 136/179/1
f 4/4/25 111/134/25 131/170/25 124/156/25
f 119/149/28 116/143/28 136/179/28 139/185/28
f 118/147/25 112/135/25 132/171/25 138/183/25
f 139/186/27 137/182/27 192/240/27 191/239/27
f 3/3/1 105/122/1 125/158/1 123/155/1
f 106/124/1 1/1/1 121/153/1 126/160/1
f 140/188/28 120/152/28 173/221/28 177/225/28
f 105/121/1 106/123/1 126/159/1 125/157/1
f 115/141/25 113/137/25 133/173/25 135/177/25
f 108/128/28 2/2/28 122/154/28 128/164/28
f 1/1/28 107/126/28 127/162/28 121/153/28
f 114/139/28 120/151/28 140/187/28 134/175/28
f 113/137/27 114/139/27 134/175/27 133/173/27
f 110/132/27 4/4/27 124/156/27 130/168/27
f 107/125/28 108/127/28 128/163/28 127/161/28
f 112/136/25 3/3/25 123/155/25 132/172/25
f 2/2/27 109/130/27 129/166/27 122/154/27
f 155/203/26 152/200/26 146/194/26 145/193/26
f 149/197/26 148/196/26 147/195/26 153/201/26
f 142/190/26 141/189/26 154/202/26 150/198/26
f 143/191/26 156/204/26 151/199/26 144/192/26
f 114/140/28 105/122/28 149/197/28 153/201/28
f 112/136/27 114/140/27 153/201/27 147/195/27
f 1/1/1 106/124/1 141/189/1 142/190/1
f 113/138/27 107/126/27 150/198/27 154/202/27
f 2/2/28 108/128/28 143/191/28 144/192/28
f 107/126/28 1/1/28 142/190/28 150/198/28
f 4/4/27 110/132/27 145/193/27 146/194/27
f 115/142/25 109/130/25 151/199/25 156/204/25
f 116/144/1 111/134/1 152/200/1 155/203/1
f 3/3/25 112/136/25 147/195/25 148/196/25
f 109/130/27 2/2/27 144/192/27 151/199/27
f 110/132/28 116/144/28 155/203/28 145/193/28
f 171/219/13 161/209/13 162/210/13 168/216/13
f 165/213/13 169/217/13 163/211/13 164/212/13
f 158/206/13 166/214/13 170/218/13 157/205/13
f 159/207/13 160/208/13 167/215/13 172/220/13
f 125/158/28 134/176/28 169/217/28 165/213/28
f 134/176/27 132/172/27 163/211/27 169/217/27
f 127/162/27 133/174/27 170/218/27 166/214/27
f 121/153/28 127/162/28 166/214/28 158/206/28
f 129/166/25 135/178/25 172/220/25 167/215/25
f 126/160/1 121/153/1 158/206/1 157/205/1
f 131/170/1 136/180/1 171/219/1 168/216/1
f 122/154/27 129/166/27 167/215/27 160/208/27
f 136/180/28 130/168/28 161/209/28 171/219/28
f 128/164/28 122/154/28 160/208/28 159/207/28
f 135/178/1 128/164/1 159/207/1 172/220/1
f 130/168/27 124/156/27 162/210/27 161/209/27
f 173/221/27 174/222/27 178/226/27 177/225/27
f 176/224/1 175/223/1 179/227/1 180/228/1
f 175/223/1 176/224/1 188/236/1 187/235/1
f 137/182/25 117/146/25 176/224/25 180/228/25
f 118/148/25 138/184/25 178/226/25 174/222/25
f 178/226/25 138/184/25 190/238/25 194/242/25
f 119/150/28 139/186/28 179/227/28 175/223/28
f 119/150/28 175/223/28 187/235/28 183/231/28
f 184/232/26 183/231/26 187/235/26 188/236/26
f 181/229/26 182/230/26 186/234/26 185/233/26
f 173/221/28 120/152/28 181/229/28 185/233/28
f 117/146/27 119/150/27 183/231/27 184/232/27
f 118/148/25 174/222/25 186/234/25 182/230/25
f 176/224/25 117/146/25 184/232/25 188/236/25
f 174/222/27 173/221/27 185/233/27 186/234/27
f 120/152/1 118/148/1 182/230/1 181/229/1
f 180/228/1 179/227/1 195/243/1 196/244/1
f 137/182/25 180/228/25 196/244/25 192/240/25
f 138/184/1 140/188/1 189/237/1 190/238/1
f 177/225/27 178/226/27 194/242/27 193/241/27
f 179/227/28 139/186/28 191/239/28 195/243/28
f 140/188/28 177/225/28 193/241/28 189/237/28
f 192/240/13 196/244/13 195/243/13 191/239/13
f 190/238/13 189/237/13 193/241/13 194/242/13
