# Blender 3.5.0
# www.blender.org
mtllib Arrow01.mtl
o Arrow01
v 0.107945 -0.989359 0.107945
v 0.107945 0.107945 0.107945
v -0.107945 -0.989359 0.107945
v -0.107945 0.107945 0.107945
v 0.107945 -0.989359 -0.107945
v 0.107945 0.107945 -0.107945
v -0.107945 -0.989359 -0.107945
v -0.107945 0.107945 -0.107945
v 0.107945 -1.314926 0.107945
v -0.107945 -1.314926 0.107945
v 0.107945 -1.314926 -0.107945
v -0.107945 -1.314926 -0.107945
v -0.035465 -1.243460 0.284584
v 0.035465 -1.243460 0.284584
v 0.035465 -1.243460 -0.284584
v -0.035465 -1.243460 -0.284584
v -0.035465 -1.569027 0.284584
v 0.035465 -1.569027 0.284584
v 0.035465 -1.569027 -0.284584
v -0.035465 -1.569027 -0.284584
v 0.107945 0.381414 0.107945
v -0.107945 0.381414 0.107945
v 0.107945 0.381414 -0.107945
v -0.107945 0.381414 -0.107945
vn -0.0000 -0.0000 1.0000
vn -1.0000 -0.0000 -0.0000
vn -0.0000 -0.0000 -1.0000
vn 1.0000 -0.0000 -0.0000
vn -0.0000 -1.0000 -0.0000
vn -0.0000 -0.5708 0.8211
vn 0.9251 -0.0000 0.3796
vn -0.0000 -0.5708 -0.8211
vn -0.9251 -0.0000 0.3796
vn 0.9251 -0.0000 -0.3796
vn -0.0000 0.5708 0.8211
vn -0.9251 -0.0000 -0.3796
vn -0.0000 0.5708 -0.8211
vn -0.0000 1.0000 -0.0000
vt 0.317902 0.647647
vt 0.317902 0.647647
vt 0.386804 0.401569
vt 0.317902 0.647647
vt 0.317902 0.647647
vt 0.386804 0.401569
vt 0.317902 0.647647
vt 0.317902 0.647647
vt 0.386804 0.401569
vt 0.317902 0.647647
vt 0.317902 0.647647
vt 0.386804 0.401569
vt 0.317902 0.647647
vt 0.317902 0.647647
vt 0.317902 0.647647
vt 0.317902 0.647647
vt 0.317902 0.647647
vt 0.317902 0.647647
vt 0.317902 0.647647
vt 0.317902 0.647647
vt 0.317902 0.647647
vt 0.317902 0.647647
vt 0.317902 0.647647
vt 0.317902 0.647647
vt 0.386804 0.401569
vt 0.386804 0.401569
vt 0.386804 0.401569
vt 0.386804 0.401569
s 0
usemtl Material
f 1/1/1 2/2/1 4/5/1 3/4/1
f 3/4/2 4/5/2 8/11/2 7/10/2
f 7/10/3 8/11/3 6/8/3 5/7/3
f 5/7/4 6/8/4 2/2/4 1/1/4
f 5/7/4 1/1/4 9/13/4 11/15/4
f 6/9/3 8/12/3 24/28/3 23/27/3
f 10/14/5 12/16/5 11/15/5 9/13/5
f 3/4/2 7/10/2 12/16/2 10/14/2
f 11/15/6 12/16/6 20/24/6 19/23/6
f 9/13/7 1/1/7 14/18/7 18/22/7
f 14/18/1 13/17/1 17/21/1 18/22/1
f 16/20/3 15/19/3 19/23/3 20/24/3
f 10/14/8 9/13/8 18/22/8 17/21/8
f 3/4/9 10/14/9 17/21/9 13/17/9
f 5/7/10 11/15/10 19/23/10 15/19/10
f 1/1/11 3/4/11 13/17/11 14/18/11
f 12/16/12 7/10/12 16/20/12 20/24/12
f 7/10/13 5/7/13 15/19/13 16/20/13
f 24/28/14 22/26/14 21/25/14 23/27/14
f 4/6/1 2/3/1 21/25/1 22/26/1
f 2/3/4 6/9/4 23/27/4 21/25/4
f 8/12/2 4/6/2 22/26/2 24/28/2
