# Blender 3.4.1
# www.blender.org
mtllib Strike01.mtl
o Strike01
v 0.189554 0.773560 -0.105703
v 0.153793 0.466726 -0.086143
v 0.189554 0.773560 0.112905
v 0.153793 0.466726 0.082092
v -0.189554 0.773560 -0.105703
v -0.153793 0.466726 -0.086143
v -0.189554 0.773560 0.112905
v -0.153793 0.466726 0.082092
v -0.056683 0.425872 -0.028570
v -0.046964 0.262331 -0.035860
v -0.056683 0.425872 0.028570
v -0.046964 0.262331 0.035860
v -0.132871 0.425872 -0.028570
v -0.142590 0.262331 -0.035860
v -0.132871 0.425872 0.028570
v -0.142590 0.262331 0.035860
v -0.046964 0.247683 -0.035860
v -0.054214 0.082321 -0.027312
v -0.046964 0.247683 0.035860
v -0.054214 0.082321 0.033533
v -0.142590 0.247683 -0.035860
v -0.135340 0.082321 -0.027312
v -0.142590 0.247683 0.035860
v -0.135340 0.082321 0.033533
v -0.054214 0.061938 -0.027312
v -0.046964 0.002082 -0.035860
v -0.054214 0.061938 0.103151
v -0.046964 0.002082 0.117920
v -0.135340 0.061938 -0.027312
v -0.142590 0.002082 -0.035860
v -0.135340 0.061938 0.103151
v -0.142590 0.002082 0.117920
v 0.132871 0.425872 -0.028570
v 0.142590 0.262331 -0.035860
v 0.132871 0.425872 0.028570
v 0.142590 0.262331 0.035860
v 0.056683 0.425872 -0.028570
v 0.046964 0.262331 -0.035860
v 0.056683 0.425872 0.028570
v 0.046964 0.262331 0.035860
v 0.142590 0.247683 -0.035860
v 0.135340 0.082321 -0.027312
v 0.142590 0.247683 0.035860
v 0.135340 0.082321 0.033533
v 0.046964 0.247683 -0.035860
v 0.054214 0.082321 -0.027312
v 0.046964 0.247683 0.035860
v 0.054214 0.082321 0.033533
v 0.135340 0.061938 -0.027312
v 0.142590 0.002082 -0.035860
v 0.135340 0.061938 0.103151
v 0.142590 0.002082 0.117920
v 0.054214 0.061938 -0.027312
v 0.046964 0.002082 -0.035860
v 0.054214 0.061938 0.103151
v 0.046964 0.002082 0.117920
v 0.152808 0.943721 -0.085604
v 0.152808 0.943721 0.081553
v -0.152808 0.943721 -0.085604
v -0.152808 0.943721 0.081553
v -0.225157 0.749057 -0.043584
v -0.217054 0.605966 -0.043584
v -0.225157 0.749057 0.043584
v -0.217054 0.605966 0.043584
v -0.315578 0.749057 -0.043584
v -0.304221 0.605966 -0.043584
v -0.315578 0.749057 0.043584
v -0.304221 0.605966 0.043584
v -0.217054 0.910117 -0.043584
v -0.225157 0.767026 -0.043584
v -0.217054 0.910117 0.043584
v -0.225157 0.767026 0.043584
v -0.304221 0.910117 -0.043584
v -0.315578 0.767026 -0.043584
v -0.304221 0.910117 0.043584
v -0.315578 0.767026 0.043584
v -0.209139 0.575372 -0.051498
v -0.209139 0.477662 -0.051498
v -0.209139 0.575372 0.051498
v -0.209139 0.477662 0.051498
v -0.312135 0.575372 -0.051498
v -0.312135 0.477662 -0.051498
v -0.312135 0.575372 0.051498
v -0.312135 0.477662 0.051498
v 0.315578 0.749057 -0.043584
v 0.304221 0.605966 -0.043584
v 0.315578 0.749057 0.043584
v 0.304221 0.605966 0.043584
v 0.225157 0.749057 -0.043584
v 0.217054 0.605966 -0.043584
v 0.225157 0.749057 0.043584
v 0.217054 0.605966 0.043584
v 0.304221 0.910117 -0.043584
v 0.315578 0.767026 -0.043584
v 0.304221 0.910117 0.043584
v 0.315578 0.767026 0.043584
v 0.217054 0.910117 -0.043584
v 0.225157 0.767026 -0.043584
v 0.217054 0.910117 0.043584
v 0.225157 0.767026 0.043584
v 0.312135 0.575372 -0.051498
v 0.312135 0.477662 -0.051498
v 0.312135 0.575372 0.051498
v 0.312135 0.477662 0.051498
v 0.209139 0.575372 -0.051498
v 0.209139 0.477662 -0.051498
v 0.209139 0.575372 0.051498
v 0.209139 0.477662 0.051498
v -0.094065 1.015354 0.094065
v -0.094065 1.203484 0.094065
v -0.094065 1.015354 -0.094065
v -0.094065 1.203484 -0.094065
v 0.094065 1.015354 0.094065
v 0.094065 1.203484 0.094065
v 0.094065 1.015354 -0.094065
v 0.094065 1.203484 -0.094065
vn 0.9775 0.2111 -0.0000
vn -0.0000 -0.0999 0.9950
vn -0.9933 -0.1158 -0.0000
vn -0.0000 -1.0000 -0.0000
vn 0.9933 -0.1158 -0.0000
vn -0.0000 -0.0636 -0.9980
vn -0.0000 1.0000 -0.0000
vn -0.0000 0.0445 0.9990
vn -0.9982 0.0593 -0.0000
vn 0.9982 0.0593 -0.0000
vn -0.0000 0.0445 -0.9990
vn -0.0000 -0.0141 0.9999
vn -0.9990 -0.0438 -0.0000
vn 0.9990 -0.0438 -0.0000
vn -0.0000 -0.0516 -0.9987
vn -0.0000 0.2396 0.9709
vn -0.9927 0.1202 -0.0000
vn 0.9927 0.1202 -0.0000
vn -0.0000 0.1414 -0.9900
vn -0.0000 0.1173 -0.9931
vn -0.0000 0.1812 0.9834
vn -0.9775 0.2111 -0.0000
vn -0.0000 -0.0000 -1.0000
vn -0.9969 -0.0791 -0.0000
vn -0.0000 -0.0000 1.0000
vn 0.9984 0.0565 -0.0000
vn -0.9969 0.0791 -0.0000
vn 0.9984 -0.0565 -0.0000
vn -1.0000 -0.0000 -0.0000
vn 1.0000 -0.0000 -0.0000
vn -0.9984 0.0565 -0.0000
vn 0.9969 -0.0791 -0.0000
vn -0.9984 -0.0565 -0.0000
vn 0.9969 0.0791 -0.0000
vt 0.625000 0.500000
vt 0.375000 0.500000
vt 0.625000 0.750000
vt 0.375000 0.750000
vt 0.625000 0.250000
vt 0.125000 0.500000
vt 0.375000 0.250000
vt 0.625000 1.000000
vt 0.625000 0.000000
vt 0.375000 1.000000
vt 0.375000 0.000000
vt 0.125000 0.750000
vt 0.625000 0.500000
vt 0.375000 0.500000
vt 0.625000 0.750000
vt 0.375000 0.750000
vt 0.875000 0.500000
vt 0.625000 0.250000
vt 0.125000 0.500000
vt 0.375000 0.250000
vt 0.875000 0.750000
vt 0.625000 1.000000
vt 0.625000 0.000000
vt 0.375000 1.000000
vt 0.375000 0.000000
vt 0.125000 0.750000
vt 0.625000 0.500000
vt 0.375000 0.500000
vt 0.625000 0.750000
vt 0.375000 0.750000
vt 0.875000 0.500000
vt 0.625000 0.250000
vt 0.125000 0.500000
vt 0.375000 0.250000
vt 0.875000 0.750000
vt 0.625000 1.000000
vt 0.625000 0.000000
vt 0.375000 1.000000
vt 0.375000 0.000000
vt 0.125000 0.750000
vt 0.625000 0.500000
vt 0.375000 0.500000
vt 0.625000 0.750000
vt 0.375000 0.750000
vt 0.875000 0.500000
vt 0.625000 0.250000
vt 0.125000 0.500000
vt 0.375000 0.250000
vt 0.875000 0.750000
vt 0.625000 1.000000
vt 0.625000 0.000000
vt 0.375000 1.000000
vt 0.375000 0.000000
vt 0.125000 0.750000
vt 0.625000 0.500000
vt 0.375000 0.500000
vt 0.625000 0.750000
vt 0.375000 0.750000
vt 0.875000 0.500000
vt 0.625000 0.250000
vt 0.125000 0.500000
vt 0.375000 0.250000
vt 0.875000 0.750000
vt 0.625000 1.000000
vt 0.625000 0.000000
vt 0.375000 1.000000
vt 0.375000 0.000000
vt 0.125000 0.750000
vt 0.625000 0.500000
vt 0.375000 0.500000
vt 0.625000 0.750000
vt 0.375000 0.750000
vt 0.875000 0.500000
vt 0.625000 0.250000
vt 0.125000 0.500000
vt 0.375000 0.250000
vt 0.875000 0.750000
vt 0.625000 1.000000
vt 0.625000 0.000000
vt 0.375000 1.000000
vt 0.375000 0.000000
vt 0.125000 0.750000
vt 0.625000 0.500000
vt 0.375000 0.500000
vt 0.625000 0.750000
vt 0.375000 0.750000
vt 0.875000 0.500000
vt 0.625000 0.250000
vt 0.125000 0.500000
vt 0.375000 0.250000
vt 0.875000 0.750000
vt 0.625000 1.000000
vt 0.625000 0.000000
vt 0.375000 1.000000
vt 0.375000 0.000000
vt 0.125000 0.750000
vt 0.625000 0.500000
vt 0.625000 0.750000
vt 0.875000 0.500000
vt 0.625000 0.250000
vt 0.875000 0.750000
vt 0.625000 1.000000
vt 0.625000 0.000000
vt 0.625000 0.500000
vt 0.125000 0.500000
vt 0.875000 0.500000
vt 0.625000 0.000000
vt 0.375000 0.500000
vt 0.625000 0.500000
vt 0.625000 0.750000
vt 0.125000 0.750000
vt 0.875000 0.750000
vt 0.625000 0.250000
vt 0.375000 0.750000
vt 0.625000 0.750000
vt 0.625000 0.250000
vt 0.625000 0.750000
vt 0.375000 0.500000
vt 0.375000 0.000000
vt 0.375000 0.250000
vt 0.375000 0.750000
vt 0.625000 0.500000
vt 0.625000 1.000000
vt 0.375000 0.750000
vt 0.375000 0.250000
vt 0.375000 0.500000
vt 0.375000 1.000000
vt 0.625000 0.500000
vt 0.125000 0.500000
vt 0.875000 0.500000
vt 0.625000 0.000000
vt 0.375000 0.500000
vt 0.625000 0.500000
vt 0.625000 0.750000
vt 0.125000 0.750000
vt 0.875000 0.750000
vt 0.625000 0.250000
vt 0.375000 0.750000
vt 0.625000 0.750000
vt 0.625000 0.250000
vt 0.625000 0.750000
vt 0.375000 0.500000
vt 0.375000 0.000000
vt 0.375000 0.250000
vt 0.375000 0.750000
vt 0.625000 0.500000
vt 0.625000 1.000000
vt 0.375000 0.750000
vt 0.375000 0.250000
vt 0.375000 0.500000
vt 0.375000 1.000000
vt 0.625000 0.500000
vt 0.125000 0.500000
vt 0.875000 0.500000
vt 0.625000 0.000000
vt 0.375000 0.500000
vt 0.625000 0.500000
vt 0.625000 0.750000
vt 0.125000 0.750000
vt 0.875000 0.750000
vt 0.625000 0.250000
vt 0.375000 0.750000
vt 0.625000 0.750000
vt 0.625000 0.250000
vt 0.625000 0.750000
vt 0.375000 0.500000
vt 0.375000 0.000000
vt 0.375000 0.250000
vt 0.375000 0.750000
vt 0.625000 0.500000
vt 0.625000 1.000000
vt 0.375000 0.750000
vt 0.375000 0.250000
vt 0.375000 0.500000
vt 0.375000 1.000000
vt 0.625000 0.500000
vt 0.125000 0.500000
vt 0.875000 0.500000
vt 0.625000 0.000000
vt 0.375000 0.500000
vt 0.625000 0.500000
vt 0.625000 0.750000
vt 0.125000 0.750000
vt 0.875000 0.750000
vt 0.625000 0.250000
vt 0.375000 0.750000
vt 0.625000 0.750000
vt 0.625000 0.250000
vt 0.625000 0.750000
vt 0.375000 0.500000
vt 0.375000 0.000000
vt 0.375000 0.250000
vt 0.375000 0.750000
vt 0.625000 0.500000
vt 0.625000 1.000000
vt 0.375000 0.750000
vt 0.375000 0.250000
vt 0.375000 0.500000
vt 0.375000 1.000000
vt 0.625000 0.500000
vt 0.125000 0.500000
vt 0.875000 0.500000
vt 0.625000 0.000000
vt 0.375000 0.500000
vt 0.625000 0.500000
vt 0.625000 0.750000
vt 0.125000 0.750000
vt 0.875000 0.750000
vt 0.625000 0.250000
vt 0.375000 0.750000
vt 0.625000 0.750000
vt 0.625000 0.250000
vt 0.625000 0.750000
vt 0.375000 0.500000
vt 0.375000 0.000000
vt 0.375000 0.250000
vt 0.375000 0.750000
vt 0.625000 0.500000
vt 0.625000 1.000000
vt 0.375000 0.750000
vt 0.375000 0.250000
vt 0.375000 0.500000
vt 0.375000 1.000000
vt 0.625000 0.500000
vt 0.125000 0.500000
vt 0.875000 0.500000
vt 0.625000 0.000000
vt 0.375000 0.500000
vt 0.625000 0.500000
vt 0.625000 0.750000
vt 0.125000 0.750000
vt 0.875000 0.750000
vt 0.625000 0.250000
vt 0.375000 0.750000
vt 0.625000 0.750000
vt 0.625000 0.250000
vt 0.625000 0.750000
vt 0.375000 0.500000
vt 0.375000 0.000000
vt 0.375000 0.250000
vt 0.375000 0.750000
vt 0.625000 0.500000
vt 0.625000 1.000000
vt 0.375000 0.750000
vt 0.375000 0.250000
vt 0.375000 0.500000
vt 0.375000 1.000000
vt 0.375000 0.000000
vt 0.375000 1.000000
vt 0.125000 0.750000
vt 0.625000 0.000000
vt 0.625000 1.000000
vt 0.875000 0.750000
vt 0.375000 0.250000
vt 0.125000 0.500000
vt 0.625000 0.250000
vt 0.875000 0.500000
vt 0.375000 0.750000
vt 0.625000 0.750000
vt 0.375000 0.500000
vt 0.625000 0.500000
s 0
usemtl Material
f 3/3/1 1/1/1 57/97/1 58/98/1
f 4/4/2 3/3/2 7/8/2 8/10/2
f 8/11/3 7/9/3 5/5/3 6/7/3
f 6/6/4 2/2/4 4/4/4 8/12/4
f 2/2/5 1/1/5 3/3/5 4/4/5
f 6/7/6 5/5/6 1/1/6 2/2/6
f 9/13/7 13/17/7 15/21/7 11/15/7
f 12/16/8 11/15/8 15/22/8 16/24/8
f 16/25/9 15/23/9 13/18/9 14/20/9
f 14/19/4 10/14/4 12/16/4 16/26/4
f 10/14/10 9/13/10 11/15/10 12/16/10
f 14/20/11 13/18/11 9/13/11 10/14/11
f 17/27/7 21/31/7 23/35/7 19/29/7
f 20/30/12 19/29/12 23/36/12 24/38/12
f 24/39/13 23/37/13 21/32/13 22/34/13
f 22/33/4 18/28/4 20/30/4 24/40/4
f 18/28/14 17/27/14 19/29/14 20/30/14
f 22/34/15 21/32/15 17/27/15 18/28/15
f 25/41/7 29/45/7 31/49/7 27/43/7
f 28/44/16 27/43/16 31/50/16 32/52/16
f 32/53/17 31/51/17 29/46/17 30/48/17
f 30/47/4 26/42/4 28/44/4 32/54/4
f 26/42/18 25/41/18 27/43/18 28/44/18
f 30/48/19 29/46/19 25/41/19 26/42/19
f 33/55/7 37/59/7 39/63/7 35/57/7
f 36/58/8 35/57/8 39/64/8 40/66/8
f 40/67/9 39/65/9 37/60/9 38/62/9
f 38/61/4 34/56/4 36/58/4 40/68/4
f 34/56/10 33/55/10 35/57/10 36/58/10
f 38/62/11 37/60/11 33/55/11 34/56/11
f 41/69/7 45/73/7 47/77/7 43/71/7
f 44/72/12 43/71/12 47/78/12 48/80/12
f 48/81/13 47/79/13 45/74/13 46/76/13
f 46/75/4 42/70/4 44/72/4 48/82/4
f 42/70/14 41/69/14 43/71/14 44/72/14
f 46/76/15 45/74/15 41/69/15 42/70/15
f 49/83/7 53/87/7 55/91/7 51/85/7
f 52/86/16 51/85/16 55/92/16 56/94/16
f 56/95/17 55/93/17 53/88/17 54/90/17
f 54/89/4 50/84/4 52/86/4 56/96/4
f 50/84/18 49/83/18 51/85/18 52/86/18
f 54/90/19 53/88/19 49/83/19 50/84/19
f 57/97/7 59/99/7 60/101/7 58/98/7
f 1/1/20 5/5/20 59/100/20 57/97/20
f 7/8/21 3/3/21 58/98/21 60/102/21
f 5/5/22 7/9/22 60/103/22 59/100/22
f 66/119/4 62/107/4 64/113/4 68/125/4
f 66/120/23 65/116/23 61/104/23 62/108/23
f 68/126/24 67/122/24 65/117/24 66/121/24
f 64/114/25 63/110/25 67/123/25 68/127/25
f 61/105/7 65/118/7 67/124/7 63/111/7
f 62/109/26 61/106/26 63/112/26 64/115/26
f 74/143/4 70/131/4 72/137/4 76/149/4
f 74/144/23 73/140/23 69/128/23 70/132/23
f 76/150/27 75/146/27 73/141/27 74/145/27
f 72/138/25 71/134/25 75/147/25 76/151/25
f 69/129/7 73/142/7 75/148/7 71/135/7
f 70/133/28 69/130/28 71/136/28 72/139/28
f 82/167/4 78/155/4 80/161/4 84/173/4
f 82/168/23 81/164/23 77/152/23 78/156/23
f 84/174/29 83/170/29 81/165/29 82/169/29
f 80/162/25 79/158/25 83/171/25 84/175/25
f 77/153/7 81/166/7 83/172/7 79/159/7
f 78/157/30 77/154/30 79/160/30 80/163/30
f 90/191/4 86/179/4 88/185/4 92/197/4
f 90/192/23 89/188/23 85/176/23 86/180/23
f 92/198/31 91/194/31 89/189/31 90/193/31
f 88/186/25 87/182/25 91/195/25 92/199/25
f 85/177/7 89/190/7 91/196/7 87/183/7
f 86/181/32 85/178/32 87/184/32 88/187/32
f 98/215/4 94/203/4 96/209/4 100/221/4
f 98/216/23 97/212/23 93/200/23 94/204/23
f 100/222/33 99/218/33 97/213/33 98/217/33
f 96/210/25 95/206/25 99/219/25 100/223/25
f 93/201/7 97/214/7 99/220/7 95/207/7
f 94/205/34 93/202/34 95/208/34 96/211/34
f 106/239/4 102/227/4 104/233/4 108/245/4
f 106/240/23 105/236/23 101/224/23 102/228/23
f 108/246/29 107/242/29 105/237/29 106/241/29
f 104/234/25 103/230/25 107/243/25 108/247/25
f 101/225/7 105/238/7 107/244/7 103/231/7
f 102/229/30 101/226/30 103/232/30 104/235/30
f 109/248/29 110/251/29 112/256/29 111/254/29
f 111/254/23 112/256/23 116/261/23 115/260/23
f 115/260/30 116/261/30 114/259/30 113/258/30
f 113/258/25 114/259/25 110/252/25 109/249/25
f 111/255/4 115/260/4 113/258/4 109/250/4
f 116/261/7 112/257/7 110/253/7 114/259/7
