# Blender 3.6.0
# www.blender.org
mtllib Hill02.mtl
o Hill02
v -0.923735 0.001534 0.991578
v -0.647485 0.001534 1.083833
v -0.286430 0.001534 1.047554
v -0.044932 0.001534 0.941109
v 0.282718 0.001534 0.960378
v 0.616702 0.001534 1.025771
v 0.868826 0.001534 0.989182
v -1.008467 0.001534 0.659724
v -0.651480 0.375909 0.683311
v -0.334282 0.536083 0.652116
v 0.056837 0.190028 0.708198
v 0.339862 0.313041 0.669221
v 0.665303 0.321936 0.665421
v 1.011049 0.001534 0.677462
v -1.131952 0.001534 0.298365
v -0.660380 0.482941 0.380603
v -0.329017 0.864673 0.391468
v 0.035560 0.394921 0.350078
v 0.290461 0.648384 0.315128
v 0.626244 0.552724 0.377826
v 1.028855 0.001534 0.299204
v -1.300004 0.001534 -0.022204
v -0.675339 0.313305 -0.010730
v -0.310256 0.672879 0.006691
v 0.064776 0.470544 0.072629
v 0.328325 0.403598 0.007009
v 0.746835 0.450316 -0.028958
v 1.083287 0.001534 0.026937
v -1.126605 0.221239 -0.328195
v -0.629164 0.532526 -0.313750
v -0.323215 1.101263 -0.317606
v -0.036644 0.719803 -0.287804
v 0.274464 0.891891 -0.361526
v 0.717838 0.355220 -0.382159
v 1.228980 0.001534 -0.318596
v -1.104299 0.001534 -0.697147
v -0.661042 0.273468 -0.656767
v -0.383834 0.523261 -0.657776
v -0.004539 0.518602 -0.631442
v 0.333200 0.543433 -0.666686
v 0.722277 0.372983 -0.724221
v 1.094673 0.001534 -0.665443
v -0.969290 0.001534 -0.961793
v -0.603485 0.221239 -1.045595
v -0.272950 0.221239 -1.086028
v 0.031799 0.001534 -1.035445
v 0.284182 0.001534 -1.183053
v 0.630439 0.001534 -1.082319
v 0.930983 0.001534 -1.000957
v -0.456143 0.897234 -0.323822
v -0.322425 0.922836 -0.168270
v -0.207109 0.969648 -0.312559
v -0.347800 0.977861 -0.422682
v -0.449658 0.725695 0.387512
v -0.331603 0.703259 0.519506
v -0.188187 0.683215 0.375480
v -0.322218 0.795164 0.252019
v 0.128317 0.720476 -0.473266
v 0.129092 0.803126 -0.340755
v 0.257868 0.804723 -0.217903
v 0.372720 0.751009 -0.248158
v 0.260216 0.728459 -0.488924
v 0.423413 0.732981 -0.377065
vn -0.7172 0.6724 0.1831
vn -0.2881 0.6981 0.6554
vn 0.3284 0.5806 0.7451
vn -0.0364 0.7845 0.6190
vn -0.1391 0.6897 0.7106
vn 0.0970 0.7373 0.6686
vn -0.7133 0.6571 0.2438
vn -0.4028 0.8591 0.3156
vn 0.6603 0.4602 0.5935
vn -0.2905 0.8230 0.4881
vn 0.0809 0.7293 0.6794
vn 0.5984 0.6626 0.4505
vn -0.4380 0.8691 0.2296
vn -0.6681 0.6917 -0.2743
vn 0.7502 0.6056 -0.2653
vn -0.6915 0.7121 0.1213
vn 0.3219 0.7602 -0.5644
vn 0.8103 0.5784 0.0946
vn -0.4221 0.8326 0.3586
vn -0.6604 0.6526 0.3715
vn 0.6051 0.4761 0.6381
vn 0.3258 0.8180 0.4740
vn 0.1079 0.5795 0.8078
vn 0.7937 0.5679 -0.2181
vn -0.4259 0.7658 -0.4818
vn -0.6001 0.6642 -0.4458
vn 0.5933 0.3322 -0.7332
vn -0.5109 0.7307 -0.4528
vn 0.5979 0.5726 -0.5610
vn 0.7018 0.7109 0.0460
vn -0.4897 0.8353 -0.2498
vn -0.6569 0.7283 -0.1951
vn 0.0495 0.8222 -0.5670
vn -0.1265 0.6052 -0.7860
vn 0.2087 0.6647 -0.7174
vn 0.1975 0.6546 -0.7297
vn -0.2227 0.7111 0.6669
vn 0.0802 0.5974 0.7979
vn 0.4331 0.5987 0.6738
vn -0.2032 0.6882 0.6964
vn -0.0127 0.7481 0.6635
vn 0.6442 0.7062 0.2939
vn -0.7079 0.6591 0.2539
vn -0.5999 0.5031 0.6221
vn 0.5828 0.7198 0.3772
vn -0.5021 0.5919 0.6306
vn -0.0140 0.7789 0.6270
vn 0.8095 0.5859 0.0381
vn -0.6625 0.6962 -0.2765
vn -0.7042 0.6211 -0.3439
vn 0.4173 0.8647 0.2796
vn 0.0455 0.7849 -0.6180
vn -0.1301 0.9517 -0.2782
vn 0.7809 0.6049 0.1561
vn -0.4792 0.7442 0.4654
vn -0.7350 0.3645 0.5718
vn 0.3571 0.8122 0.4612
vn -0.3360 0.5175 0.7870
vn 0.7262 0.6759 -0.1259
vn 0.5352 0.8140 0.2257
vn -0.4445 0.7342 -0.5132
vn -0.7597 0.3452 -0.5511
vn 0.0454 0.8639 -0.5016
vn -0.1295 0.6166 -0.7765
vn 0.4072 0.9118 0.0526
vn 0.5733 0.7887 -0.2220
vn -0.5371 0.8219 -0.1899
vn -0.0718 0.8062 -0.5872
vn 0.5079 0.5523 -0.6611
vn -0.3812 0.6556 -0.6518
vn 0.1808 0.6591 -0.7300
vn 0.6910 0.6394 -0.3371
vn -0.7130 0.4481 0.5392
vn 0.5612 0.4689 -0.6820
vn 0.5714 0.5282 0.6281
vn -0.7559 0.5052 -0.4164
vn 0.4749 0.5149 -0.7137
vn 0.4716 0.7286 0.4967
vn -0.1263 0.6614 -0.7393
vn -0.4236 0.7953 0.4337
vn -0.5221 0.7170 -0.4618
vn 0.7253 0.6609 0.1928
vt 0.686024 0.394587
vt 0.686024 0.394587
vt 0.686024 0.394587
vt 0.865846 0.574409
vt 0.865846 0.574409
s 0
usemtl Material
f 1/1/1 9/1/1 8/1/1
f 2/1/2 10/1/2 9/1/2
f 4/1/3 10/1/3 3/1/3
f 5/1/4 11/1/4 4/1/4
f 6/1/5 12/1/5 5/1/5
f 7/1/6 13/1/6 6/1/6
f 8/1/7 16/1/7 15/1/7
f 10/1/8 16/1/8 9/1/8
f 10/1/9 18/1/9 56/1/9 55/1/9
f 12/1/10 18/1/10 11/1/10
f 12/1/11 20/1/11 19/1/11
f 14/1/12 20/1/12 13/1/12
f 15/1/13 23/1/13 22/1/13
f 16/1/14 24/1/14 23/1/14
f 18/1/15 24/1/15 57/2/15 56/1/15
f 19/1/16 25/1/16 18/1/16
f 20/1/17 26/1/17 19/1/17
f 21/1/18 27/1/18 20/1/18
f 23/1/19 29/1/19 22/1/19
f 24/1/20 30/1/20 23/1/20
f 24/1/21 32/1/21 52/1/21 51/1/21
f 26/1/22 32/1/22 25/1/22
f 27/1/23 61/3/23 60/1/23 26/1/23
f 28/1/24 34/1/24 27/1/24
f 29/1/25 37/1/25 36/1/25
f 30/1/26 38/1/26 37/1/26
f 32/1/27 38/1/27 53/1/27 52/1/27
f 33/4/28 58/4/28 59/4/28
f 34/1/29 40/1/29 62/1/29 63/1/29
f 34/1/30 42/1/30 41/1/30
f 37/1/31 43/1/31 36/1/31
f 38/1/32 44/1/32 37/1/32
f 39/1/33 45/1/33 38/1/33
f 40/1/34 46/1/34 39/1/34
f 40/1/35 48/1/35 47/1/35
f 41/1/36 49/1/36 48/1/36
f 1/1/37 2/1/37 9/1/37
f 2/1/38 3/1/38 10/1/38
f 4/1/39 11/1/39 10/1/39
f 5/1/40 12/1/40 11/1/40
f 6/1/41 13/1/41 12/1/41
f 7/1/42 14/1/42 13/1/42
f 8/1/43 9/1/43 16/1/43
f 10/1/44 55/1/44 54/1/44 16/1/44
f 10/1/45 11/1/45 18/1/45
f 12/1/46 19/1/46 18/1/46
f 12/1/47 13/1/47 20/1/47
f 14/1/48 21/1/48 20/1/48
f 15/1/49 16/1/49 23/1/49
f 16/1/50 54/1/50 57/2/50 24/1/50
f 18/1/51 25/1/51 24/1/51
f 19/1/52 26/1/52 25/1/52
f 20/1/53 27/1/53 26/1/53
f 21/1/54 28/1/54 27/1/54
f 23/1/55 30/1/55 29/1/55
f 24/1/56 51/1/56 50/1/56 30/1/56
f 24/1/57 25/1/57 32/1/57
f 26/1/58 60/1/58 59/1/58 32/1/58
f 27/1/59 34/1/59 63/1/59 61/3/59
f 28/1/60 35/1/60 34/1/60
f 29/1/61 30/1/61 37/1/61
f 30/1/62 50/1/62 53/1/62 38/1/62
f 32/1/63 39/1/63 38/1/63
f 33/4/64 62/4/64 58/4/64
f 34/1/65 41/1/65 40/1/65
f 34/1/66 35/1/66 42/1/66
f 37/1/67 44/1/67 43/1/67
f 38/1/68 45/1/68 44/1/68
f 39/1/69 46/1/69 45/1/69
f 40/1/70 47/1/70 46/1/70
f 40/1/71 41/1/71 48/1/71
f 41/1/72 42/1/72 49/1/72
f 50/4/73 51/4/73 31/4/73
f 52/4/74 53/4/74 31/4/74
f 51/4/75 52/4/75 31/4/75
f 53/4/76 50/4/76 31/4/76
f 56/4/15 57/4/15 17/4/15
f 55/4/9 56/4/9 17/4/9
f 57/4/50 54/4/50 17/4/50
f 54/4/44 55/4/44 17/4/44
f 63/4/77 62/4/77 33/4/77
f 60/4/78 61/5/78 33/4/78
f 58/1/79 62/1/79 40/1/79 39/1/79
f 59/4/80 60/4/80 33/4/80
f 59/1/81 58/1/81 39/1/81 32/1/81
f 61/5/82 63/4/82 33/4/82
